mtllib model_3.mtl
o model_3
v -0.009178631007671356 -0.03214327245950699 0.058385368436574936 
v -0.0012477455893531442 -0.14687353372573853 0.16308501362800598 
v -0.009195398539304733 -0.016517695039510727 0.06450691819190979 
v -0.0012812799541279674 -0.10170919448137283 0.19453713297843933 
v -0.009228932671248913 0.03913504630327225 -0.05391344800591469 
v -0.0014657191932201385 0.16628015041351318 -0.14341476559638977 
v 0.009164685383439064 0.048767250031232834 -0.06700090318918228 
v 0.001233799965120852 0.16628015041351318 -0.14341476559638977 
v 0.009231754578649998 -0.04862504452466965 -0.06700090318918228 
v 0.0014014720218256116 -0.08501337468624115 -0.20251940190792084 
v 0.00921498704701662 -0.030430879443883896 -0.07713312655687332 
v 0.0013679376570507884 -0.031929224729537964 -0.2172955572605133 
v -0.009161864407360554 -0.04562835767865181 0.04846423119306564 
v -0.009161864407360554 -0.05611675977706909 0.035587865859270096 
v 0.009231754578649998 -0.056758906692266464 0.0604962483048439 
v 0.0092485211789608 -0.07002994418144226 0.044453561305999756 
v -0.009161864407360554 -0.05611675977706909 0.035587865859270096 
v -0.009161864407360554 -0.06339442729949951 0.020600615069270134 
v 0.0092485211789608 -0.07002994418144226 0.044453561305999756 
v 0.0092485211789608 -0.07880595326423645 0.025666728615760803 
v 0.00921498704701662 -0.020584626123309135 0.08033852279186249 
v 0.0014182392042130232 -0.10170919448137283 0.19453713297843933 
v 0.009231754578649998 -0.03984903544187546 0.07273935526609421 
v 0.0014517735689878464 -0.14687353372573853 0.16308501362800598 
v -0.009161864407360554 -0.06639111042022705 0.004135752096772194 
v -0.0011974440421909094 -0.21643945574760437 -0.03660423308610916 
v -0.009161864407360554 -0.06339442729949951 0.020600615069270134 
v -0.0011974440421909094 -0.21879400312900543 0.01827864721417427 
v -0.009178631007671356 -0.039206888526678085 -0.05391344800591469 
v -0.0012812799541279674 -0.08501337468624115 -0.20251940190792084 
v 0.009231754578649998 -0.04862504452466965 -0.06700090318918228 
v 0.0014014720218256116 -0.08501337468624115 -0.20251940190792084 
v -0.009161864407360554 -0.06018369272351265 -0.028371799737215042 
v -0.009161864407360554 -0.05119363218545914 -0.04251469671726227 
v 0.0092485211789608 -0.07495307177305222 -0.03533770516514778 
v 0.0092485211789608 -0.06382252275943756 -0.052858006209135056 
v -0.009161864407360554 -0.05119363218545914 -0.04251469671726227 
v -0.009178631007671356 -0.039206888526678085 -0.05391344800591469 
v 0.0092485211789608 -0.06382252275943756 -0.052858006209135056 
v 0.009231754578649998 -0.04862504452466965 -0.06700090318918228 
v 0.0092485211789608 -0.07880595326423645 0.025666728615760803 
v 0.001502075232565403 -0.21879400312900543 0.01827864721417427 
v 0.009265288710594177 -0.08265883475542068 0.005191192030906677 
v 0.001502075232565403 -0.21643945574760437 -0.03660423308610916 
v -0.009195398539304733 -0.00003592199936974794 0.06661780178546906 
v -0.0013148144353181124 -0.050123389810323715 0.21374613046646118 
v 0.009198220446705818 -0.00003592199936974794 0.08287157863378525 
v 0.0013847048394382 -0.050123389810323715 0.21374613046646118 
v 0.009164685383439064 0.039991240948438644 0.07273935526609421 
v 0.0013008688110858202 0.05904160067439079 0.21142417192459106 
v -0.009228932671248913 0.03207142651081085 0.058385368436574936 
v -0.0013818831648677588 0.05904160067439079 0.21142417192459106 
v -0.009212165139615536 0.008311988785862923 -0.06594546139240265 
v -0.009212165139615536 0.024579713121056557 -0.06193479150533676 
v 0.009198220446705818 0.010452479124069214 -0.08219923824071884 
v 0.009181452915072441 0.030573084950447083 -0.07713312655687332 
v -0.009212165139615536 0.024579713121056557 -0.06193479150533676 
v -0.009228932671248913 0.03913504630327225 -0.05391344800591469 
v 0.009181452915072441 0.030573084950447083 -0.07713312655687332 
v 0.009164685383439064 0.048767250031232834 -0.06700090318918228 
v -0.009161864407360554 -0.06339442729949951 0.020600615069270134 
v -0.0011974440421909094 -0.21879400312900543 0.01827864721417427 
v 0.0092485211789608 -0.07880595326423645 0.025666728615760803 
v 0.001502075232565403 -0.21879400312900543 0.01827864721417427 
v -0.009195398539304733 -0.016517695039510727 0.06450691819190979 
v -0.0012812799541279674 -0.10170919448137283 0.19453713297843933 
v -0.009195398539304733 -0.00003592199936974794 0.06661780178546906 
v -0.0013148144353181124 -0.050123389810323715 0.21374613046646118 
v -0.009228932671248913 0.03207142651081085 0.058385368436574936 
v -0.0013818831648677588 0.05904160067439079 0.21142417192459106 
v -0.009228932671248913 0.04555651545524597 0.04846423119306564 
v -0.0014154176460579038 0.10977121442556381 0.19010427594184875 
v -0.00924570020288229 0.06546307355165482 -0.012540199793875217 
v -0.00924570020288229 0.06631926447153091 0.004135752096772194 
v 0.009147918783128262 0.08151675015687943 -0.01549543160945177 
v 0.009147918783128262 0.08280104398727417 0.005191192030906677 
v -0.00924570020288229 0.06631926447153091 0.004135752096772194 
v -0.00924570020288229 0.06332258135080338 0.020600615069270134 
v 0.009147918783128262 0.08280104398727417 0.005191192030906677 
v 0.009147918783128262 0.07894816249608994 0.025666728615760803 
v 0.009147918783128262 0.08151675015687943 -0.01549543160945177 
v 0.0012002656003460288 0.21936430037021637 0.009201863780617714 
v -0.00924570020288229 0.06546307355165482 -0.012540199793875217 
v -0.0014992535579949617 0.21936430037021637 0.009201863780617714 
v 0.009198220446705818 -0.00003592199936974794 0.08287157863378525 
v 0.0013847048394382 -0.050123389810323715 0.21374613046646118 
v 0.00921498704701662 -0.020584626123309135 0.08033852279186249 
v 0.0014182392042130232 -0.10170919448137283 0.19453713297843933 
v 0.009164685383439064 0.056687064468860626 0.0604962483048439 
v 0.001267334446310997 0.10977121442556381 0.19010427594184875 
v 0.009164685383439064 0.039991240948438644 0.07273935526609421 
v 0.0013008688110858202 0.05904160067439079 0.21142417192459106 
v -0.009228932671248913 0.03207142651081085 0.058385368436574936 
v -0.009212165139615536 0.01644585095345974 0.06450691819190979 
v 0.009164685383439064 0.039991240948438644 0.07273935526609421 
v 0.009181452915072441 0.020726831629872322 0.08033852279186249 
v -0.009212165139615536 0.01644585095345974 0.06450691819190979 
v -0.009195398539304733 -0.00003592199936974794 0.06661780178546906 
v 0.009181452915072441 0.020726831629872322 0.08033852279186249 
v 0.009198220446705818 -0.00003592199936974794 0.08287157863378525 
v 0.009231754578649998 -0.03984903544187546 0.07273935526609421 
v 0.025043224915862083 -0.03984903544187546 0.07273935526609421 
v 0.00921498704701662 -0.020584626123309135 0.08033852279186249 
v 0.025026457384228706 -0.020584626123309135 0.08033852279186249 
v -0.0013148144353181124 -0.050123389810323715 0.21374613046646118 
v -0.0012812799541279674 -0.10170919448137283 0.19453713297843933 
v 0.0013847048394382 -0.050123389810323715 0.21374613046646118 
v 0.0014182392042130232 -0.10170919448137283 0.19453713297843933 
v -0.0012812799541279674 -0.10170919448137283 0.19453713297843933 
v -0.0012477455893531442 -0.14687353372573853 0.16308501362800598 
v 0.0014182392042130232 -0.10170919448137283 0.19453713297843933 
v 0.0014517735689878464 -0.14687353372573853 0.16308501362800598 
v -0.0012477455893531442 -0.14687353372573853 0.16308501362800598 
v -0.001214211224578321 -0.18283376097679138 0.12150067836046219 
v 0.0014517735689878464 -0.14687353372573853 0.16308501362800598 
v 0.001468540751375258 -0.18283376097679138 0.12150067836046219 
v -0.0011974440421909094 -0.21879400312900543 0.01827864721417427 
v -0.0011974440421909094 -0.21643945574760437 -0.03660423308610916 
v 0.001502075232565403 -0.21879400312900543 0.01827864721417427 
v 0.001502075232565403 -0.21643945574760437 -0.03660423308610916 
v -0.0011974440421909094 -0.21643945574760437 -0.03660423308610916 
v -0.001214211224578321 -0.20059983432292938 -0.08937623351812363 
v 0.001502075232565403 -0.21643945574760437 -0.03660423308610916 
v 0.0014853080501779914 -0.20059983432292938 -0.08937623351812363 
v -0.001214211224578321 -0.20059983432292938 -0.08937623351812363 
v -0.0012309784069657326 -0.17213131487369537 -0.13644886016845703 
v 0.0014853080501779914 -0.20059983432292938 -0.08937623351812363 
v 0.001468540751375258 -0.17213131487369537 -0.13644886016845703 
v -0.0012812799541279674 -0.08501337468624115 -0.20251940190792084 
v -0.001331581617705524 -0.031929224729537964 -0.2172955572605133 
v 0.0014014720218256116 -0.08501337468624115 -0.20251940190792084 
v 0.0013679376570507884 -0.031929224729537964 -0.2172955572605133 
v -0.001331581617705524 -0.031929224729537964 -0.2172955572605133 
v -0.0013651159824803472 0.023081369698047638 -0.21835100650787354 
v 0.0013679376570507884 -0.031929224729537964 -0.2172955572605133 
v 0.0013344031758606434 0.023081369698047638 -0.21835100650787354 
v -0.0013651159824803472 0.023081369698047638 -0.21835100650787354 
v -0.0013986503472551703 0.07659362256526947 -0.20568571984767914 
v 0.0013344031758606434 0.023081369698047638 -0.21835100650787354 
v 0.0013008688110858202 0.07659362256526947 -0.20568571984767914 
v -0.0014657191932201385 0.16628015041351318 -0.14341476559638977 
v -0.0014824863756075501 0.196675106883049 -0.09760866314172745 
v 0.001233799965120852 0.16628015041351318 -0.14341476559638977 
v 0.0012170327827334404 0.196675106883049 -0.09760866314172745 
v -0.0014824863756075501 0.196675106883049 -0.09760866314172745 
v -0.0014992535579949617 0.21486927568912506 -0.04568101465702057 
v 0.0012170327827334404 0.196675106883049 -0.09760866314172745 
v 0.0012002656003460288 0.21486927568912506 -0.04568101465702057 
v -0.0014992535579949617 0.21486927568912506 -0.04568101465702057 
v -0.0014992535579949617 0.21936430037021637 0.009201863780617714 
v 0.0012002656003460288 0.21486927568912506 -0.04568101465702057 
v 0.0012002656003460288 0.21936430037021637 0.009201863780617714 
v -0.0014824863756075501 0.1876850575208664 0.11369042098522186 
v -0.001448952010832727 0.15365126729011536 0.15696346759796143 
v 0.0012170327827334404 0.1876850575208664 0.11369042098522186 
v 0.001233799965120852 0.15365126729011536 0.15696346759796143 
v -0.001448952010832727 0.15365126729011536 0.15696346759796143 
v -0.0014154176460579038 0.10977121442556381 0.19010427594184875 
v 0.001233799965120852 0.15365126729011536 0.15696346759796143 
v 0.001267334446310997 0.10977121442556381 0.19010427594184875 
v -0.0014154176460579038 0.10977121442556381 0.19010427594184875 
v -0.0013818831648677588 0.05904160067439079 0.21142417192459106 
v 0.001267334446310997 0.10977121442556381 0.19010427594184875 
v 0.0013008688110858202 0.05904160067439079 0.21142417192459106 
v -0.009178631007671356 -0.02443750761449337 -0.06193479150533676 
v -0.001331581617705524 -0.031929224729537964 -0.2172955572605133 
v -0.009178631007671356 -0.039206888526678085 -0.05391344800591469 
v -0.0012812799541279674 -0.08501337468624115 -0.20251940190792084 
v 0.009265288710594177 -0.08265883475542068 0.005191192030906677 
v 0.001502075232565403 -0.21643945574760437 -0.03660423308610916 
v 0.0092485211789608 -0.08137454092502594 -0.01549543160945177 
v 0.0014853080501779914 -0.20059983432292938 -0.08937623351812363 
v 0.009164685383439064 0.048767250031232834 -0.06700090318918228 
v 0.001233799965120852 0.16628015041351318 -0.14341476559638977 
v 0.009147918783128262 0.06396473199129105 -0.052858006209135056 
v 0.0012170327827334404 0.196675106883049 -0.09760866314172745 
v -0.00924570020288229 0.06332258135080338 0.020600615069270134 
v -0.0014824863756075501 0.1876850575208664 0.11369042098522186 
v 0.009147918783128262 0.07894816249608994 0.025666728615760803 
v 0.0012170327827334404 0.1876850575208664 0.11369042098522186 
v -0.009161864407360554 -0.06532086431980133 -0.012540199793875217 
v -0.001214211224578321 -0.20059983432292938 -0.08937623351812363 
v -0.009161864407360554 -0.06639111042022705 0.004135752096772194 
v -0.0011974440421909094 -0.21643945574760437 -0.03660423308610916 
v -0.009228932671248913 0.051335837692022324 -0.04251469671726227 
v -0.0014824863756075501 0.196675106883049 -0.09760866314172745 
v -0.009228932671248913 0.03913504630327225 -0.05391344800591469 
v -0.0014657191932201385 0.16628015041351318 -0.14341476559638977 
v 0.009231754578649998 -0.03984903544187546 0.07273935526609421 
v 0.0014517735689878464 -0.14687353372573853 0.16308501362800598 
v 0.009231754578649998 -0.056758906692266464 0.0604962483048439 
v 0.001468540751375258 -0.18283376097679138 0.12150067836046219 
v 0.00921498704701662 -0.030430879443883896 -0.07713312655687332 
v 0.0013679376570507884 -0.031929224729537964 -0.2172955572605133 
v 0.00921498704701662 -0.010310273617506027 -0.08219923824071884 
v 0.0013344031758606434 0.023081369698047638 -0.21835100650787354 
v 0.009147918783128262 0.07894816249608994 0.025666728615760803 
v 0.0012170327827334404 0.1876850575208664 0.11369042098522186 
v 0.009147918783128262 0.06995809823274612 0.044453561305999756 
v 0.001233799965120852 0.15365126729011536 0.15696346759796143 
v -0.009161864407360554 -0.04562835767865181 0.04846423119306564 
v -0.001214211224578321 -0.18283376097679138 0.12150067836046219 
v -0.009178631007671356 -0.03214327245950699 0.058385368436574936 
v -0.0012477455893531442 -0.14687353372573853 0.16308501362800598 
v -0.009195398539304733 -0.00838383287191391 -0.06594546139240265 
v -0.0013651159824803472 0.023081369698047638 -0.21835100650787354 
v -0.009178631007671356 -0.02443750761449337 -0.06193479150533676 
v -0.001331581617705524 -0.031929224729537964 -0.2172955572605133 
v -0.00924570020288229 0.05625896528363228 0.035587865859270096 
v -0.001448952010832727 0.15365126729011536 0.15696346759796143 
v -0.00924570020288229 0.06332258135080338 0.020600615069270134 
v -0.0014824863756075501 0.1876850575208664 0.11369042098522186 
v 0.0092485211789608 -0.08137454092502594 -0.01549543160945177 
v 0.0014853080501779914 -0.20059983432292938 -0.08937623351812363 
v 0.0092485211789608 -0.07495307177305222 -0.03533770516514778 
v 0.001468540751375258 -0.17213131487369537 -0.13644886016845703 
v 0.009147918783128262 0.06396473199129105 -0.052858006209135056 
v 0.0012170327827334404 0.196675106883049 -0.09760866314172745 
v 0.009147918783128262 0.0750952735543251 -0.03533770516514778 
v 0.0012002656003460288 0.21486927568912506 -0.04568101465702057 
v 0.009231754578649998 -0.056758906692266464 0.0604962483048439 
v 0.001468540751375258 -0.18283376097679138 0.12150067836046219 
v -0.009161864407360554 -0.04562835767865181 0.04846423119306564 
v -0.001214211224578321 -0.18283376097679138 0.12150067836046219 
v -0.009161864407360554 -0.06018369272351265 -0.028371799737215042 
v -0.0012309784069657326 -0.17213131487369537 -0.13644886016845703 
v -0.009161864407360554 -0.06532086431980133 -0.012540199793875217 
v -0.001214211224578321 -0.20059983432292938 -0.08937623351812363 
v -0.00924570020288229 0.06011184677481651 -0.028371799737215042 
v -0.0014992535579949617 0.21486927568912506 -0.04568101465702057 
v -0.009228932671248913 0.051335837692022324 -0.04251469671726227 
v -0.0014824863756075501 0.196675106883049 -0.09760866314172745 
v 0.00921498704701662 -0.010310273617506027 -0.08219923824071884 
v 0.0013344031758606434 0.023081369698047638 -0.21835100650787354 
v 0.009198220446705818 0.010452479124069214 -0.08219923824071884 
v 0.0013008688110858202 0.07659362256526947 -0.20568571984767914 
v 0.009147918783128262 0.06995809823274612 0.044453561305999756 
v 0.001233799965120852 0.15365126729011536 0.15696346759796143 
v 0.009164685383439064 0.056687064468860626 0.0604962483048439 
v 0.001267334446310997 0.10977121442556381 0.19010427594184875 
v 0.0092485211789608 -0.07495307177305222 -0.03533770516514778 
v 0.001468540751375258 -0.17213131487369537 -0.13644886016845703 
v -0.009161864407360554 -0.06018369272351265 -0.028371799737215042 
v -0.0012309784069657326 -0.17213131487369537 -0.13644886016845703 
v -0.009212165139615536 0.008311988785862923 -0.06594546139240265 
v -0.0013986503472551703 0.07659362256526947 -0.20568571984767914 
v -0.009195398539304733 -0.00838383287191391 -0.06594546139240265 
v -0.0013651159824803472 0.023081369698047638 -0.21835100650787354 
v -0.009228932671248913 0.04555651545524597 0.04846423119306564 
v -0.0014154176460579038 0.10977121442556381 0.19010427594184875 
v -0.00924570020288229 0.05625896528363228 0.035587865859270096 
v -0.001448952010832727 0.15365126729011536 0.15696346759796143 
v 0.009147918783128262 0.0750952735543251 -0.03533770516514778 
v 0.0012002656003460288 0.21486927568912506 -0.04568101465702057 
v 0.009147918783128262 0.08151675015687943 -0.01549543160945177 
v 0.0012002656003460288 0.21936430037021637 0.009201863780617714 
v 0.009198220446705818 0.010452479124069214 -0.08219923824071884 
v 0.0013008688110858202 0.07659362256526947 -0.20568571984767914 
v -0.009212165139615536 0.008311988785862923 -0.06594546139240265 
v -0.0013986503472551703 0.07659362256526947 -0.20568571984767914 
v -0.00924570020288229 0.06546307355165482 -0.012540199793875217 
v -0.0014992535579949617 0.21936430037021637 0.009201863780617714 
v -0.00924570020288229 0.06011184677481651 -0.028371799737215042 
v -0.0014992535579949617 0.21486927568912506 -0.04568101465702057 
v 0.0092485211789608 -0.08137454092502594 -0.01549543160945177 
v 0.02507675811648369 -0.08137454092502594 -0.01549543160945177 
v 0.009265288710594177 -0.08265883475542068 0.005191192030906677 
v 0.02507675811648369 -0.08265883475542068 0.005191192030906677 
v 0.00921498704701662 -0.010310273617506027 -0.08219923824071884 
v 0.025026457384228706 -0.010310273617506027 -0.08219923824071884 
v 0.00921498704701662 -0.030430879443883896 -0.07713312655687332 
v 0.025043224915862083 -0.030430879443883896 -0.07713312655687332 
v 0.009147918783128262 0.0750952735543251 -0.03533770516514778 
v 0.024959387257695198 0.0750952735543251 -0.03533770516514778 
v 0.009147918783128262 0.06396473199129105 -0.052858006209135056 
v 0.024976154789328575 0.06396473199129105 -0.052858006209135056 
v 0.009164685383439064 0.056687064468860626 0.0604962483048439 
v 0.024976154789328575 0.056687064468860626 0.0604962483048439 
v 0.009147918783128262 0.06995809823274612 0.044453561305999756 
v 0.024976154789328575 0.06995809823274612 0.044453561305999756 
v 0.0092485211789608 -0.07880595326423645 0.025666728615760803 
v 0.02507675811648369 -0.07880595326423645 0.025666728615760803 
v 0.0092485211789608 -0.07002994418144226 0.044453561305999756 
v 0.02505999058485031 -0.07002994418144226 0.044453561305999756 
v 0.009231754578649998 -0.04862504452466965 -0.06700090318918228 
v 0.02505999058485031 -0.04862504452466965 -0.06700090318918228 
v 0.0092485211789608 -0.06382252275943756 -0.052858006209135056 
v 0.02505999058485031 -0.06382252275943756 -0.052858006209135056 
v 0.009164685383439064 0.048767250031232834 -0.06700090318918228 
v 0.024992922320961952 0.048767250031232834 -0.06700090318918228 
v 0.009181452915072441 0.030573084950447083 -0.07713312655687332 
v 0.024992922320961952 0.030573084950447083 -0.07713312655687332 
v 0.009147918783128262 0.07894816249608994 0.025666728615760803 
v 0.024959387257695198 0.07894816249608994 0.025666728615760803 
v 0.009147918783128262 0.08280104398727417 0.005191192030906677 
v 0.024959387257695198 0.08280104398727417 0.005191192030906677 
v 0.009198220446705818 -0.00003592199936974794 0.08287157863378525 
v 0.025026457384228706 -0.00003592199936974794 0.08287157863378525 
v 0.009181452915072441 0.020726831629872322 0.08033852279186249 
v 0.02500968985259533 0.020726831629872322 0.08033852279186249 
v 0.009231754578649998 -0.056758906692266464 0.0604962483048439 
v 0.02505999058485031 -0.056758906692266464 0.0604962483048439 
v 0.009231754578649998 -0.03984903544187546 0.07273935526609421 
v 0.025043224915862083 -0.03984903544187546 0.07273935526609421 
v 0.0092485211789608 -0.07495307177305222 -0.03533770516514778 
v 0.02507675811648369 -0.07495307177305222 -0.03533770516514778 
v 0.0092485211789608 -0.08137454092502594 -0.01549543160945177 
v 0.02507675811648369 -0.08137454092502594 -0.01549543160945177 
v 0.00921498704701662 -0.020584626123309135 0.08033852279186249 
v 0.025026457384228706 -0.020584626123309135 0.08033852279186249 
v 0.009198220446705818 -0.00003592199936974794 0.08287157863378525 
v 0.025026457384228706 -0.00003592199936974794 0.08287157863378525 
v 0.009198220446705818 0.010452479124069214 -0.08219923824071884 
v 0.02500968985259533 0.010452479124069214 -0.08219923824071884 
v 0.00921498704701662 -0.010310273617506027 -0.08219923824071884 
v 0.025026457384228706 -0.010310273617506027 -0.08219923824071884 
v 0.009147918783128262 0.08151675015687943 -0.01549543160945177 
v 0.024959387257695198 0.08151675015687943 -0.01549543160945177 
v 0.009147918783128262 0.0750952735543251 -0.03533770516514778 
v 0.024959387257695198 0.0750952735543251 -0.03533770516514778 
v 0.009164685383439064 0.039991240948438644 0.07273935526609421 
v 0.024992922320961952 0.039991240948438644 0.07273935526609421 
v 0.009164685383439064 0.056687064468860626 0.0604962483048439 
v 0.024976154789328575 0.056687064468860626 0.0604962483048439 
v 0.009265288710594177 -0.08265883475542068 0.005191192030906677 
v 0.02507675811648369 -0.08265883475542068 0.005191192030906677 
v 0.0092485211789608 -0.07880595326423645 0.025666728615760803 
v 0.02507675811648369 -0.07880595326423645 0.025666728615760803 
v 0.00921498704701662 -0.030430879443883896 -0.07713312655687332 
v 0.025043224915862083 -0.030430879443883896 -0.07713312655687332 
v 0.009231754578649998 -0.04862504452466965 -0.06700090318918228 
v 0.02505999058485031 -0.04862504452466965 -0.06700090318918228 
v 0.009147918783128262 0.06396473199129105 -0.052858006209135056 
v 0.024976154789328575 0.06396473199129105 -0.052858006209135056 
v 0.009164685383439064 0.048767250031232834 -0.06700090318918228 
v 0.024992922320961952 0.048767250031232834 -0.06700090318918228 
v 0.009147918783128262 0.06995809823274612 0.044453561305999756 
v 0.024976154789328575 0.06995809823274612 0.044453561305999756 
v 0.009147918783128262 0.07894816249608994 0.025666728615760803 
v 0.024959387257695198 0.07894816249608994 0.025666728615760803 
v 0.0092485211789608 -0.07002994418144226 0.044453561305999756 
v 0.02505999058485031 -0.07002994418144226 0.044453561305999756 
v 0.009231754578649998 -0.056758906692266464 0.0604962483048439 
v 0.02505999058485031 -0.056758906692266464 0.0604962483048439 
v 0.0092485211789608 -0.06382252275943756 -0.052858006209135056 
v 0.02505999058485031 -0.06382252275943756 -0.052858006209135056 
v 0.0092485211789608 -0.07495307177305222 -0.03533770516514778 
v 0.02507675811648369 -0.07495307177305222 -0.03533770516514778 
v 0.009181452915072441 0.030573084950447083 -0.07713312655687332 
v 0.024992922320961952 0.030573084950447083 -0.07713312655687332 
v 0.009198220446705818 0.010452479124069214 -0.08219923824071884 
v 0.02500968985259533 0.010452479124069214 -0.08219923824071884 
v 0.009147918783128262 0.08280104398727417 0.005191192030906677 
v 0.024959387257695198 0.08280104398727417 0.005191192030906677 
v 0.009147918783128262 0.08151675015687943 -0.01549543160945177 
v 0.024959387257695198 0.08151675015687943 -0.01549543160945177 
v 0.009181452915072441 0.020726831629872322 0.08033852279186249 
v 0.02500968985259533 0.020726831629872322 0.08033852279186249 
v 0.009164685383439064 0.039991240948438644 0.07273935526609421 
v 0.024992922320961952 0.039991240948438644 0.07273935526609421 
v -0.009161864407360554 -0.06639111042022705 0.004135752096772194 
v -0.009161864407360554 -0.06339442729949951 0.020600615069270134 
v -0.009161864407360554 -0.06532086431980133 -0.012540199793875217 
v -0.009161864407360554 -0.06018369272351265 -0.028371799737215042 
v -0.009161864407360554 -0.05611675977706909 0.035587865859270096 
v -0.009161864407360554 -0.05119363218545914 -0.04251469671726227 
v -0.009161864407360554 -0.04562835767865181 0.04846423119306564 
v -0.009178631007671356 -0.039206888526678085 -0.05391344800591469 
v -0.009178631007671356 -0.03214327245950699 0.058385368436574936 
v -0.009178631007671356 -0.02443750761449337 -0.06193479150533676 
v -0.009195398539304733 -0.016517695039510727 0.06450691819190979 
v -0.009195398539304733 -0.00838383287191391 -0.06594546139240265 
v -0.009195398539304733 -0.00003592199936974794 0.06661780178546906 
v -0.009212165139615536 0.008311988785862923 -0.06594546139240265 
v -0.009212165139615536 0.01644585095345974 0.06450691819190979 
v -0.009212165139615536 0.024579713121056557 -0.06193479150533676 
v -0.009228932671248913 0.03207142651081085 0.058385368436574936 
v -0.009228932671248913 0.03913504630327225 -0.05391344800591469 
v -0.009228932671248913 0.04555651545524597 0.04846423119306564 
v -0.009228932671248913 0.051335837692022324 -0.04251469671726227 
v -0.00924570020288229 0.05625896528363228 0.035587865859270096 
v -0.00924570020288229 0.06011184677481651 -0.028371799737215042 
v -0.00924570020288229 0.06332258135080338 0.020600615069270134 
v -0.00924570020288229 0.06546307355165482 -0.012540199793875217 
v -0.00924570020288229 0.06631926447153091 0.004135752096772194 
v 0.02507675811648369 -0.08265883475542068 0.005191192030906677 
v 0.02507675811648369 -0.08137454092502594 -0.01549543160945177 
v 0.02507675811648369 -0.07880595326423645 0.025666728615760803 
v 0.02507675811648369 -0.07495307177305222 -0.03533770516514778 
v 0.02505999058485031 -0.07002994418144226 0.044453561305999756 
v 0.02505999058485031 -0.06382252275943756 -0.052858006209135056 
v 0.02505999058485031 -0.056758906692266464 0.0604962483048439 
v 0.02505999058485031 -0.04862504452466965 -0.06700090318918228 
v 0.025043224915862083 -0.03984903544187546 0.07273935526609421 
v 0.025043224915862083 -0.030430879443883896 -0.07713312655687332 
v 0.025026457384228706 -0.020584626123309135 0.08033852279186249 
v 0.025026457384228706 -0.010310273617506027 -0.08219923824071884 
v 0.025026457384228706 -0.00003592199936974794 0.08287157863378525 
v 0.02500968985259533 0.010452479124069214 -0.08219923824071884 
v 0.02500968985259533 0.020726831629872322 0.08033852279186249 
v 0.024992922320961952 0.030573084950447083 -0.07713312655687332 
v 0.024992922320961952 0.039991240948438644 0.07273935526609421 
v 0.024992922320961952 0.048767250031232834 -0.06700090318918228 
v 0.024976154789328575 0.056687064468860626 0.0604962483048439 
v 0.024976154789328575 0.06396473199129105 -0.052858006209135056 
v 0.024976154789328575 0.06995809823274612 0.044453561305999756 
v 0.024959387257695198 0.0750952735543251 -0.03533770516514778 
v 0.024959387257695198 0.07894816249608994 0.025666728615760803 
v 0.024959387257695198 0.08151675015687943 -0.01549543160945177 
v 0.024959387257695198 0.08280104398727417 0.005191192030906677 
vn -0.9985979795455933 -0.026432543992996216 0.04586252197623253 
vn -0.9985979795455933 -0.026432543992996216 0.04586252197623253 
vn -0.9985979795455933 -0.026432543992996216 0.04586252197623253 
vn -0.9985979795455933 -0.026432543992996216 0.04586252197623253 
vn -0.2525939345359802 -0.5431797504425049 -0.8007197380065918 
vn -0.2525939345359802 -0.5431797504425049 -0.8007197380065918 
vn -0.2525939345359802 -0.5431797504425049 -0.8007197380065918 
vn -0.2525939345359802 -0.5431797504425049 -0.8007197380065918 
vn 0.9983946681022644 -0.015098861418664455 -0.05459024757146835 
vn 0.9983946681022644 -0.015098861418664455 -0.05459024757146835 
vn 0.9983946681022644 -0.015098861418664455 -0.05459024757146835 
vn 0.9983946681022644 -0.015098861418664455 -0.05459024757146835 
vn -0.6609883308410645 -0.5770589113235474 0.4796847105026245 
vn -0.6609883308410645 -0.5770589113235474 0.4796847105026245 
vn -0.6609883308410645 -0.5770589113235474 0.4796847105026245 
vn -0.6609883308410645 -0.5770589113235474 0.4796847105026245 
vn -0.6598948240280151 -0.6799014806747437 0.3198012113571167 
vn -0.6598948240280151 -0.6799014806747437 0.3198012113571167 
vn -0.6598948240280151 -0.6799014806747437 0.3198012113571167 
vn -0.6598948240280151 -0.6799014806747437 0.3198012113571167 
vn 0.9982811212539673 -0.030201194807887077 0.05022686347365379 
vn 0.9982811212539673 -0.030201194807887077 0.05022686347365379 
vn 0.9982811212539673 -0.030201194807887077 0.05022686347365379 
vn 0.9982811212539673 -0.030201194807887077 0.05022686347365379 
vn -0.9986006617546082 -0.05283859372138977 0.002184694167226553 
vn -0.9986006617546082 -0.05283859372138977 0.002184694167226553 
vn -0.9986006617546082 -0.05283859372138977 0.002184694167226553 
vn -0.9986006617546082 -0.05283859372138977 0.002184694167226553 
vn -0.25711315870285034 -0.9279826879501343 0.26970529556274414 
vn -0.25711315870285034 -0.9279826879501343 0.26970529556274414 
vn -0.25711315870285034 -0.9279826879501343 0.26970529556274414 
vn -0.25711315870285034 -0.9279826879501343 0.26970529556274414 
vn -0.6595841646194458 -0.6355531215667725 -0.401274174451828 
vn -0.6595841646194458 -0.6355531215667725 -0.401274174451828 
vn -0.6595841646194458 -0.6355531215667725 -0.401274174451828 
vn -0.6595841646194458 -0.6355531215667725 -0.401274174451828 
vn -0.6617622375488281 -0.5125503540039062 -0.5471406579017639 
vn -0.6617622375488281 -0.5125503540039062 -0.5471406579017639 
vn -0.6617622375488281 -0.5125503540039062 -0.5471406579017639 
vn -0.6617622375488281 -0.5125503540039062 -0.5471406579017639 
vn 0.998173177242279 -0.06037835404276848 0.002184694167226553 
vn 0.998173177242279 -0.06037835404276848 0.002184694167226553 
vn 0.998173177242279 -0.06037835404276848 0.002184694167226553 
vn 0.998173177242279 -0.06037835404276848 0.002184694167226553 
vn -0.25510135293006897 0.9095571637153625 0.3280687630176544 
vn -0.25510135293006897 0.9095571637153625 0.3280687630176544 
vn -0.25510135293006897 0.9095571637153625 0.3280687630176544 
vn -0.25510135293006897 0.9095571637153625 0.3280687630176544 
vn 0.25193262100219727 -0.9560218453407288 0.15017375349998474 
vn 0.25193262100219727 -0.9560218453407288 0.15017375349998474 
vn 0.25193262100219727 -0.9560218453407288 0.15017375349998474 
vn 0.25193262100219727 -0.9560218453407288 0.15017375349998474 
vn -0.6600651144981384 0.1866486370563507 -0.7276512384414673 
vn -0.6600651144981384 0.1866486370563507 -0.7276512384414673 
vn -0.6600651144981384 0.1866486370563507 -0.7276512384414673 
vn -0.6600651144981384 0.1866486370563507 -0.7276512384414673 
vn -0.6598164439201355 0.3620475232601166 -0.6584556698799133 
vn -0.6598164439201355 0.3620475232601166 -0.6584556698799133 
vn -0.6598164439201355 0.3620475232601166 -0.6584556698799133 
vn -0.6598164439201355 0.3620475232601166 -0.6584556698799133 
vn -0.25270527601242065 -0.033743374049663544 0.9669547080993652 
vn -0.25270527601242065 -0.033743374049663544 0.9669547080993652 
vn -0.25270527601242065 -0.033743374049663544 0.9669547080993652 
vn -0.25270527601242065 -0.033743374049663544 0.9669547080993652 
vn -0.9985594153404236 -0.018877500668168068 0.05022686347365379 
vn -0.9985594153404236 -0.018877500668168068 0.05022686347365379 
vn -0.9985594153404236 -0.018877500668168068 0.05022686347365379 
vn -0.9985594153404236 -0.018877500668168068 0.05022686347365379 
vn -0.9987692832946777 0.01888146810233593 0.04586252197623253 
vn -0.9987692832946777 0.01888146810233593 0.04586252197623253 
vn -0.9987692832946777 0.01888146810233593 0.04586252197623253 
vn -0.9987692832946777 0.01888146810233593 0.04586252197623253 
vn -0.6644880771636963 0.745890200138092 -0.04586252197623253 
vn -0.6644880771636963 0.745890200138092 -0.04586252197623253 
vn -0.6644880771636963 0.745890200138092 -0.04586252197623253 
vn -0.6644880771636963 0.745890200138092 -0.04586252197623253 
vn -0.6616469621658325 0.7363375425338745 0.1415284425020218 
vn -0.6616469621658325 0.7363375425338745 0.1415284425020218 
vn -0.6616469621658325 0.7363375425338745 0.1415284425020218 
vn -0.6616469621658325 0.7363375425338745 0.1415284425020218 
vn 0.25589582324028015 -0.15063714981079102 0.9548956751823425 
vn 0.25589582324028015 -0.15063714981079102 0.9548956751823425 
vn 0.25589582324028015 -0.15063714981079102 0.9548956751823425 
vn 0.25589582324028015 -0.15063714981079102 0.9548956751823425 
vn 0.9983946681022644 -0.015098861418664455 0.05459024757146835 
vn 0.9983946681022644 -0.015098861418664455 0.05459024757146835 
vn 0.9983946681022644 -0.015098861418664455 0.05459024757146835 
vn 0.9983946681022644 -0.015098861418664455 0.05459024757146835 
vn 0.9984809160232544 0.022652406245470047 0.05022686347365379 
vn 0.9984809160232544 0.022652406245470047 0.05022686347365379 
vn 0.9984809160232544 0.022652406245470047 0.05022686347365379 
vn 0.9984809160232544 0.022652406245470047 0.05022686347365379 
vn -0.6606759428977966 0.27875784039497375 0.6969945430755615 
vn -0.6606759428977966 0.27875784039497375 0.6969945430755615 
vn -0.6606759428977966 0.27875784039497375 0.6969945430755615 
vn -0.6606759428977966 0.27875784039497375 0.6969945430755615 
vn -0.6605172157287598 0.09012475609779358 0.7453821301460266 
vn -0.6605172157287598 0.09012475609779358 0.7453821301460266 
vn -0.6605172157287598 0.09012475609779358 0.7453821301460266 
vn -0.6605172157287598 0.09012475609779358 0.7453821301460266 
vn -0.0018777163932099938 -0.36698195338249207 0.9302261471748352 
vn -0.0018777163932099938 -0.36698195338249207 0.9302261471748352 
vn -0.0018777163932099938 -0.36698195338249207 0.9302261471748352 
vn -0.0018777163932099938 -0.36698195338249207 0.9302261471748352 
vn 0.0018799792742356658 -0.35066840052604675 0.9364978075027466 
vn 0.0018799792742356658 -0.35066840052604675 0.9364978075027466 
vn 0.0018799792742356658 -0.35066840052604675 0.9364978075027466 
vn 0.0018799792742356658 -0.35066840052604675 0.9364978075027466 
vn 1.7679427529154051e-13 -0.5706896185874939 0.8211658596992493 
vn 1.7679427529154051e-13 -0.5706896185874939 0.8211658596992493 
vn 1.7679427529154051e-13 -0.5706896185874939 0.8211658596992493 
vn 1.7679427529154051e-13 -0.5706896185874939 0.8211658596992493 
vn 2.3560163152011593e-13 -0.758344829082489 0.651853621006012 
vn 2.3560163152011593e-13 -0.758344829082489 0.651853621006012 
vn 2.3560163152011593e-13 -0.758344829082489 0.651853621006012 
vn 2.3560163152011593e-13 -0.758344829082489 0.651853621006012 
vn 3.0952372826256735e-13 -0.999138593673706 -0.04149730131030083 
vn 3.0952372826256735e-13 -0.999138593673706 -0.04149730131030083 
vn 3.0952372826256735e-13 -0.999138593673706 -0.04149730131030083 
vn 3.0952372826256735e-13 -0.999138593673706 -0.04149730131030083 
vn 2.972640579870789e-13 -0.9568213224411011 -0.29067665338516235 
vn 2.972640579870789e-13 -0.9568213224411011 -0.29067665338516235 
vn 2.972640579870789e-13 -0.9568213224411011 -0.29067665338516235 
vn 2.972640579870789e-13 -0.9568213224411011 -0.29067665338516235 
vn 2.6507255049788847e-13 -0.8556508421897888 -0.5175535082817078 
vn 2.6507255049788847e-13 -0.8556508421897888 -0.5175535082817078 
vn 2.6507255049788847e-13 -0.8556508421897888 -0.5175535082817078 
vn 2.6507255049788847e-13 -0.8556508421897888 -0.5175535082817078 
vn 0.003786779474467039 -0.26757413148880005 -0.9635298252105713 
vn 0.003786779474467039 -0.26757413148880005 -0.9635298252105713 
vn 0.003786779474467039 -0.26757413148880005 -0.9635298252105713 
vn 0.003786779474467039 -0.26757413148880005 -0.9635298252105713 
vn 0.0037933827843517065 -0.02151334285736084 -0.9997613430023193 
vn 0.0037933827843517065 -0.02151334285736084 -0.9997613430023193 
vn 0.0037933827843517065 -0.02151334285736084 -0.9997613430023193 
vn 0.0037933827843517065 -0.02151334285736084 -0.9997613430023193 
vn -0.0018875121604651213 0.22950568795204163 -0.9733054637908936 
vn -0.0018875121604651213 0.22950568795204163 -0.9733054637908936 
vn -0.0018875121604651213 0.22950568795204163 -0.9733054637908936 
vn -0.0018875121604651213 0.22950568795204163 -0.9733054637908936 
vn -8.606192879656235e-14 0.8322274088859558 -0.5544344186782837 
vn -8.606192879656235e-14 0.8322274088859558 -0.5544344186782837 
vn -8.606192879656235e-14 0.8322274088859558 -0.5544344186782837 
vn -8.606192879656235e-14 0.8322274088859558 -0.5544344186782837 
vn -0.003775712102651596 0.9446462988853455 -0.3280687630176544 
vn -0.003775712102651596 0.9446462988853455 -0.3280687630176544 
vn -0.003775712102651596 0.9446462988853455 -0.3280687630176544 
vn -0.003775712102651596 0.9446462988853455 -0.3280687630176544 
vn 0.0018879338167607784 0.9963706135749817 -0.08510008454322815 
vn 0.0018879338167607784 0.9963706135749817 -0.08510008454322815 
vn 0.0018879338167607784 0.9963706135749817 -0.08510008454322815 
vn 0.0018879338167607784 0.9963706135749817 -0.08510008454322815 
vn 0.0018844384467229247 0.7833834886550903 0.6215357780456543 
vn 0.0018844384467229247 0.7833834886550903 0.6215357780456543 
vn 0.0018844384467229247 0.7833834886550903 0.6215357780456543 
vn 0.0018844384467229247 0.7833834886550903 0.6215357780456543 
vn 0.001884994562715292 0.6060105562210083 0.7954543828964233 
vn 0.001884994562715292 0.6060105562210083 0.7954543828964233 
vn 0.001884994562715292 0.6060105562210083 0.7954543828964233 
vn 0.001884994562715292 0.6060105562210083 0.7954543828964233 
vn -0.0018831010675057769 0.38721561431884766 0.9219872951507568 
vn -0.0018831010675057769 0.38721561431884766 0.9219872951507568 
vn -0.0018831010675057769 0.38721561431884766 0.9219872951507568 
vn -0.0018831010675057769 0.38721561431884766 0.9219872951507568 
vn -0.9985594153404236 -0.018877500668168068 -0.05022686347365379 
vn -0.9985594153404236 -0.018877500668168068 -0.05022686347365379 
vn -0.9985594153404236 -0.018877500668168068 -0.05022686347365379 
vn -0.9985594153404236 -0.018877500668168068 -0.05022686347365379 
vn 0.9984862804412842 -0.05283254012465477 -0.0152922747656703 
vn 0.9984862804412842 -0.05283254012465477 -0.0152922747656703 
vn 0.9984862804412842 -0.05283254012465477 -0.0152922747656703 
vn 0.9984862804412842 -0.05283254012465477 -0.0152922747656703 
vn 0.9984372854232788 0.0452716089785099 -0.03276457265019417 
vn 0.9984372854232788 0.0452716089785099 -0.03276457265019417 
vn 0.9984372854232788 0.0452716089785099 -0.03276457265019417 
vn 0.9984372854232788 0.0452716089785099 -0.03276457265019417 
vn -0.2536402940750122 0.5950685739517212 -0.762600839138031 
vn -0.2536402940750122 0.5950685739517212 -0.762600839138031 
vn -0.2536402940750122 0.5950685739517212 -0.762600839138031 
vn -0.2536402940750122 0.5950685739517212 -0.762600839138031 
vn -0.9985435009002686 -0.05283556878566742 -0.010923261754214764 
vn -0.9985435009002686 -0.05283556878566742 -0.010923261754214764 
vn -0.9985435009002686 -0.05283556878566742 -0.010923261754214764 
vn -0.9985435009002686 -0.05283556878566742 -0.010923261754214764 
vn -0.9987506866455078 0.03773028776049614 -0.03276457265019417 
vn -0.9987506866455078 0.03773028776049614 -0.03276457265019417 
vn -0.9987506866455078 0.03773028776049614 -0.03276457265019417 
vn -0.9987506866455078 0.03773028776049614 -0.03276457265019417 
vn 0.9984264373779297 -0.0377180390059948 0.04149730131030083 
vn 0.9984264373779297 -0.0377180390059948 0.04149730131030083 
vn 0.9984264373779297 -0.0377180390059948 0.04149730131030083 
vn 0.9984264373779297 -0.0377180390059948 0.04149730131030083 
vn 0.9982322454452515 -0.007547771092504263 -0.058952588587999344 
vn 0.9982322454452515 -0.007547771092504263 -0.058952588587999344 
vn 0.9982322454452515 -0.007547771092504263 -0.058952588587999344 
vn 0.9982322454452515 -0.007547771092504263 -0.058952588587999344 
vn 0.9984372854232788 0.0452716089785099 0.03276457265019417 
vn 0.9984372854232788 0.0452716089785099 0.03276457265019417 
vn 0.9984372854232788 0.0452716089785099 0.03276457265019417 
vn 0.9984372854232788 0.0452716089785099 0.03276457265019417 
vn -0.9985980987548828 -0.03772452101111412 0.03713129088282585 
vn -0.9985980987548828 -0.03772452101111412 0.03713129088282585 
vn -0.9985980987548828 -0.03772452101111412 0.03713129088282585 
vn -0.9985980987548828 -0.03772452101111412 0.03713129088282585 
vn -0.9987307190895081 -0.003775716060772538 -0.05022686347365379 
vn -0.9987307190895081 -0.003775716060772538 -0.05022686347365379 
vn -0.9987307190895081 -0.003775716060772538 -0.05022686347365379 
vn -0.9987307190895081 -0.003775716060772538 -0.05022686347365379 
vn -0.9988842010498047 0.03773533180356026 0.028397228568792343 
vn -0.9988842010498047 0.03773533180356026 0.028397228568792343 
vn -0.9988842010498047 0.03773533180356026 0.028397228568792343 
vn -0.9988842010498047 0.03773533180356026 0.028397228568792343 
vn 0.9982003569602966 -0.052817411720752716 -0.028397228568792343 
vn 0.9982003569602966 -0.052817411720752716 -0.028397228568792343 
vn 0.9982003569602966 -0.052817411720752716 -0.028397228568792343 
vn 0.9982003569602966 -0.052817411720752716 -0.028397228568792343 
vn 0.9983147382736206 0.05282346159219742 -0.024029340595006943 
vn 0.9983147382736206 0.05282346159219742 -0.024029340595006943 
vn 0.9983147382736206 0.05282346159219742 -0.024029340595006943 
vn 0.9983147382736206 0.05282346159219742 -0.024029340595006943 
vn 0.2562691271305084 -0.4388270080089569 -0.8612531423568726 
vn 0.2562691271305084 -0.4388270080089569 -0.8612531423568726 
vn 0.2562691271305084 -0.4388270080089569 -0.8612531423568726 
vn 0.2562691271305084 -0.4388270080089569 -0.8612531423568726 
vn -0.9986851811408997 -0.04528285190463066 -0.024029340595006943 
vn -0.9986851811408997 -0.04528285190463066 -0.024029340595006943 
vn -0.9986851811408997 -0.04528285190463066 -0.024029340595006943 
vn -0.9986851811408997 -0.04528285190463066 -0.024029340595006943 
vn -0.9987804889678955 0.04528717324137688 -0.01966099627315998 
vn -0.9987804889678955 0.04528717324137688 -0.01966099627315998 
vn -0.9987804889678955 0.04528717324137688 -0.01966099627315998 
vn -0.9987804889678955 0.04528717324137688 -0.01966099627315998 
vn 0.9984803199768066 0.0075496467761695385 -0.05459024757146835 
vn 0.9984803199768066 0.0075496467761695385 -0.05459024757146835 
vn 0.9984803199768066 0.0075496467761695385 -0.05459024757146835 
vn 0.9984803199768066 0.0075496467761695385 -0.05459024757146835 
vn 0.9984264373779297 0.0377180390059948 0.04149730131030083 
vn 0.9984264373779297 0.0377180390059948 0.04149730131030083 
vn 0.9984264373779297 0.0377180390059948 0.04149730131030083 
vn 0.9984264373779297 0.0377180390059948 0.04149730131030083 
vn 0.2552940249443054 0.6829947829246521 -0.6843559741973877 
vn 0.2552940249443054 0.6829947829246521 -0.6843559741973877 
vn 0.2552940249443054 0.6829947829246521 -0.6843559741973877 
vn 0.2552940249443054 0.6829947829246521 -0.6843559741973877 
vn -0.9986736178398132 0.011326932348310947 -0.05022686347365379 
vn -0.9986736178398132 0.011326932348310947 -0.05022686347365379 
vn -0.9986736178398132 0.011326932348310947 -0.05022686347365379 
vn -0.9986736178398132 0.011326932348310947 -0.05022686347365379 
vn -0.9988545179367065 0.03018219955265522 0.03713129088282585 
vn -0.9988545179367065 0.03018219955265522 0.03713129088282585 
vn -0.9988545179367065 0.03018219955265522 0.03713129088282585 
vn -0.9988545179367065 0.03018219955265522 0.03713129088282585 
vn 0.9981541037559509 0.060377199202775955 -0.006554040592163801 
vn 0.9981541037559509 0.060377199202775955 -0.006554040592163801 
vn 0.9981541037559509 0.060377199202775955 -0.006554040592163801 
vn 0.9981541037559509 0.060377199202775955 -0.006554040592163801 
vn 0.2513887286186218 0.8616325855255127 0.4409002661705017 
vn 0.2513887286186218 0.8616325855255127 0.4409002661705017 
vn 0.2513887286186218 0.8616325855255127 0.4409002661705017 
vn 0.2513887286186218 0.8616325855255127 0.4409002661705017 
vn -0.99858158826828 0.05283758416771889 -0.006554040592163801 
vn -0.99858158826828 0.05283758416771889 -0.006554040592163801 
vn -0.99858158826828 0.05283758416771889 -0.006554040592163801 
vn -0.99858158826828 0.05283758416771889 -0.006554040592163801 
vn -0.0018864546436816454 -0.9979918599128723 -0.0633138045668602 
vn -0.0018864546436816454 -0.9979918599128723 -0.0633138045668602 
vn -0.0018864546436816454 -0.9979918599128723 -0.0633138045668602 
vn -0.0018864546436816454 -0.9979918599128723 -0.0633138045668602 
vn 7.76709290417274e-14 -0.2507207691669464 -0.9680594801902771 
vn 7.76709290417274e-14 -0.2507207691669464 -0.9680594801902771 
vn 7.76709290417274e-14 -0.2507207691669464 -0.9680594801902771 
vn 7.76709290417274e-14 -0.2507207691669464 -0.9680594801902771 
vn -0.003777687903493643 0.844132125377655 -0.5361219048500061 
vn -0.003777687903493643 0.844132125377655 -0.5361219048500061 
vn -0.003777687903493643 0.844132125377655 -0.5361219048500061 
vn -0.003777687903493643 0.844132125377655 -0.5361219048500061 
vn 0.0018859859555959702 0.7696189284324646 0.6385006904602051 
vn 0.0018859859555959702 0.7696189284324646 0.6385006904602051 
vn 0.0018859859555959702 0.7696189284324646 0.6385006904602051 
vn 0.0018859859555959702 0.7696189284324646 0.6385006904602051 
vn 0.003771252231672406 -0.905116617679596 0.42514660954475403 
vn 0.003771252231672406 -0.905116617679596 0.42514660954475403 
vn 0.003771252231672406 -0.905116617679596 0.42514660954475403 
vn 0.003771252231672406 -0.905116617679596 0.42514660954475403 
vn 0.0037806248292326927 -0.6859368681907654 -0.7276512384414673 
vn 0.0037806248292326927 -0.6859368681907654 -0.7276512384414673 
vn 0.0037806248292326927 -0.6859368681907654 -0.7276512384414673 
vn 0.0037806248292326927 -0.6859368681907654 -0.7276512384414673 
vn -4.98030571860833e-14 0.4816005229949951 -0.8763908743858337 
vn -4.98030571860833e-14 0.4816005229949951 -0.8763908743858337 
vn -4.98030571860833e-14 0.4816005229949951 -0.8763908743858337 
vn -4.98030571860833e-14 0.4816005229949951 -0.8763908743858337 
vn 0.0018880139105021954 0.9819895029067993 0.18892620503902435 
vn 0.0018880139105021954 0.9819895029067993 0.18892620503902435 
vn 0.0018880139105021954 0.9819895029067993 0.18892620503902435 
vn 0.0018880139105021954 0.9819895029067993 0.18892620503902435 
vn -0.0018551399698480964 0.1263599395751953 0.9919826984405518 
vn -0.0018551399698480964 0.1263599395751953 0.9919826984405518 
vn -0.0018551399698480964 0.1263599395751953 0.9919826984405518 
vn -0.0018551399698480964 0.1263599395751953 0.9919826984405518 
vn -0.0018826874438673258 -0.5884889960289001 0.8085030317306519 
vn -0.0018826874438673258 -0.5884889960289001 0.8085030317306519 
vn -0.0018826874438673258 -0.5884889960289001 0.8085030317306519 
vn -0.0018826874438673258 -0.5884889960289001 0.8085030317306519 
vn 2.9479519411505783e-13 -0.95159512758255 -0.30735430121421814 
vn 2.9479519411505783e-13 -0.95159512758255 -0.30735430121421814 
vn 2.9479519411505783e-13 -0.95159512758255 -0.30735430121421814 
vn 2.9479519411505783e-13 -0.95159512758255 -0.30735430121421814 
vn -0.0018551399698480964 -0.1263599395751953 0.9919826984405518 
vn -0.0018551399698480964 -0.1263599395751953 0.9919826984405518 
vn -0.0018551399698480964 -0.1263599395751953 0.9919826984405518 
vn -0.0018551399698480964 -0.1263599395751953 0.9919826984405518 
vn -2.0682311115474694e-13 0 -1 
vn -2.0682311115474694e-13 0 -1 
vn -2.0682311115474694e-13 0 -1 
vn -2.0682311115474694e-13 0 -1 
vn -9.840592967227946e-14 0.95159512758255 -0.30735430121421814 
vn -9.840592967227946e-14 0.95159512758255 -0.30735430121421814 
vn -9.840592967227946e-14 0.95159512758255 -0.30735430121421814 
vn -9.840592967227946e-14 0.95159512758255 -0.30735430121421814 
vn -0.0018826874438673258 0.5884889960289001 0.8085030317306519 
vn -0.0018826874438673258 0.5884889960289001 0.8085030317306519 
vn -0.0018826874438673258 0.5884889960289001 0.8085030317306519 
vn -0.0018826874438673258 0.5884889960289001 0.8085030317306519 
vn 0.0018880139105021954 -0.9819895029067993 0.18892620503902435 
vn 0.0018880139105021954 -0.9819895029067993 0.18892620503902435 
vn 0.0018880139105021954 -0.9819895029067993 0.18892620503902435 
vn 0.0018880139105021954 -0.9819895029067993 0.18892620503902435 
vn 1.4919529912719998e-13 -0.4816005229949951 -0.8763908743858337 
vn 1.4919529912719998e-13 -0.4816005229949951 -0.8763908743858337 
vn 1.4919529912719998e-13 -0.4816005229949951 -0.8763908743858337 
vn 1.4919529912719998e-13 -0.4816005229949951 -0.8763908743858337 
vn -0.0037806248292326927 0.6859368681907654 -0.7276512384414673 
vn -0.0037806248292326927 0.6859368681907654 -0.7276512384414673 
vn -0.0037806248292326927 0.6859368681907654 -0.7276512384414673 
vn -0.0037806248292326927 0.6859368681907654 -0.7276512384414673 
vn -0.003771252231672406 0.905116617679596 0.42514660954475403 
vn -0.003771252231672406 0.905116617679596 0.42514660954475403 
vn -0.003771252231672406 0.905116617679596 0.42514660954475403 
vn -0.003771252231672406 0.905116617679596 0.42514660954475403 
vn 0.0018859859555959702 -0.7696189284324646 0.6385006904602051 
vn 0.0018859859555959702 -0.7696189284324646 0.6385006904602051 
vn 0.0018859859555959702 -0.7696189284324646 0.6385006904602051 
vn 0.0018859859555959702 -0.7696189284324646 0.6385006904602051 
vn 0.003777687903493643 -0.844132125377655 -0.5361219048500061 
vn 0.003777687903493643 -0.844132125377655 -0.5361219048500061 
vn 0.003777687903493643 -0.844132125377655 -0.5361219048500061 
vn 0.003777687903493643 -0.844132125377655 -0.5361219048500061 
vn -2.5927422711504063e-14 0.2507207691669464 -0.9680594801902771 
vn -2.5927422711504063e-14 0.2507207691669464 -0.9680594801902771 
vn -2.5927422711504063e-14 0.2507207691669464 -0.9680594801902771 
vn -2.5927422711504063e-14 0.2507207691669464 -0.9680594801902771 
vn -0.0018864546436816454 0.9979918599128723 -0.0633138045668602 
vn -0.0018864546436816454 0.9979918599128723 -0.0633138045668602 
vn -0.0018864546436816454 0.9979918599128723 -0.0633138045668602 
vn -0.0018864546436816454 0.9979918599128723 -0.0633138045668602 
vn -0.0018777163932099938 0.36698195338249207 0.9302261471748352 
vn -0.0018777163932099938 0.36698195338249207 0.9302261471748352 
vn -0.0018777163932099938 0.36698195338249207 0.9302261471748352 
vn -0.0018777163932099938 0.36698195338249207 0.9302261471748352 
vn -0.999997615814209 -2.0682260971124217e-13 0.002184694167226553 
vn -0.999997615814209 -2.0682260971124217e-13 0.002184694167226553 
vn -0.999997615814209 -2.0682260971124217e-13 0.002184694167226553 
vn -0.999997615814209 -2.0682260971124217e-13 0.002184694167226553 
vn -0.999997615814209 -2.0682260971124217e-13 0.002184694167226553 
vn -0.999997615814209 -2.0682260971124217e-13 0.002184694167226553 
vn -0.999997615814209 -2.0682260971124217e-13 0.002184694167226553 
vn -0.999997615814209 -2.0682260971124217e-13 0.002184694167226553 
vn -0.999997615814209 -2.0682260971124217e-13 0.002184694167226553 
vn -0.999997615814209 -2.0682260971124217e-13 0.002184694167226553 
vn -0.999997615814209 -2.0682260971124217e-13 0.002184694167226553 
vn -0.999997615814209 -2.0682260971124217e-13 0.002184694167226553 
vn -0.999997615814209 -2.0682260971124217e-13 0.002184694167226553 
vn -0.999997615814209 -2.0682260971124217e-13 0.002184694167226553 
vn -0.999997615814209 -2.0682260971124217e-13 0.002184694167226553 
vn -0.999997615814209 -2.0682260971124217e-13 0.002184694167226553 
vn -0.999997615814209 -2.0682260971124217e-13 0.002184694167226553 
vn -0.999997615814209 -2.0682260971124217e-13 0.002184694167226553 
vn -0.999997615814209 -2.0682260971124217e-13 0.002184694167226553 
vn -0.999997615814209 -2.0682260971124217e-13 0.002184694167226553 
vn -0.999997615814209 -2.0682260971124217e-13 0.002184694167226553 
vn -0.999997615814209 -2.0682260971124217e-13 0.002184694167226553 
vn -0.999997615814209 -2.0682260971124217e-13 0.002184694167226553 
vn -0.999997615814209 -2.0682260971124217e-13 0.002184694167226553 
vn -0.999997615814209 -2.0682260971124217e-13 0.002184694167226553 
vn 0.999997615814209 0 -0.002184694167226553 
vn 0.999997615814209 0 -0.002184694167226553 
vn 0.999997615814209 0 -0.002184694167226553 
vn 0.999997615814209 0 -0.002184694167226553 
vn 0.999997615814209 0 -0.002184694167226553 
vn 0.999997615814209 0 -0.002184694167226553 
vn 0.999997615814209 0 -0.002184694167226553 
vn 0.999997615814209 0 -0.002184694167226553 
vn 0.999997615814209 0 -0.002184694167226553 
vn 0.999997615814209 0 -0.002184694167226553 
vn 0.999997615814209 0 -0.002184694167226553 
vn 0.999997615814209 0 -0.002184694167226553 
vn 0.999997615814209 0 -0.002184694167226553 
vn 0.999997615814209 0 -0.002184694167226553 
vn 0.999997615814209 0 -0.002184694167226553 
vn 0.999997615814209 0 -0.002184694167226553 
vn 0.999997615814209 0 -0.002184694167226553 
vn 0.999997615814209 0 -0.002184694167226553 
vn 0.999997615814209 0 -0.002184694167226553 
vn 0.999997615814209 0 -0.002184694167226553 
vn 0.999997615814209 0 -0.002184694167226553 
vn 0.999997615814209 0 -0.002184694167226553 
vn 0.999997615814209 0 -0.002184694167226553 
vn 0.999997615814209 0 -0.002184694167226553 
vn 0.999997615814209 0 -0.002184694167226553 
s on 
f 1//1 2//2 3//3 
f 2//2 4//4 3//3 
f 3//3 4//4 4//4 
f 4//4 5//5 4//4 
f 4//4 5//5 5//5 
f 5//5 6//6 5//5 
f 5//5 6//6 7//7 
f 6//6 8//8 7//7 
f 7//7 8//8 8//8 
f 8//8 9//9 8//8 
f 8//8 9//9 9//9 
f 9//9 10//10 9//9 
f 9//9 10//10 11//11 
f 10//10 12//12 11//11 
f 11//11 12//12 12//12 
f 12//12 13//13 12//12 
f 12//12 13//13 13//13 
f 13//13 14//14 13//13 
f 13//13 14//14 15//15 
f 14//14 16//16 15//15 
f 15//15 16//16 16//16 
f 16//16 17//17 16//16 
f 16//16 17//17 17//17 
f 17//17 18//18 17//17 
f 17//17 18//18 19//19 
f 18//18 20//20 19//19 
f 19//19 20//20 20//20 
f 20//20 21//21 20//20 
f 20//20 21//21 21//21 
f 21//21 22//22 21//21 
f 21//21 22//22 23//23 
f 22//22 24//24 23//23 
f 23//23 24//24 24//24 
f 24//24 25//25 24//24 
f 24//24 25//25 25//25 
f 25//25 26//26 25//25 
f 25//25 26//26 27//27 
f 26//26 28//28 27//27 
f 27//27 28//28 28//28 
f 28//28 29//29 28//28 
f 28//28 29//29 29//29 
f 29//29 30//30 29//29 
f 29//29 30//30 31//31 
f 30//30 32//32 31//31 
f 31//31 32//32 32//32 
f 32//32 33//33 32//32 
f 32//32 33//33 33//33 
f 33//33 34//34 33//33 
f 33//33 34//34 35//35 
f 34//34 36//36 35//35 
f 35//35 36//36 36//36 
f 36//36 37//37 36//36 
f 36//36 37//37 37//37 
f 37//37 38//38 37//37 
f 37//37 38//38 39//39 
f 38//38 40//40 39//39 
f 39//39 40//40 40//40 
f 40//40 41//41 40//40 
f 40//40 41//41 41//41 
f 41//41 42//42 41//41 
f 41//41 42//42 43//43 
f 42//42 44//44 43//43 
f 43//43 44//44 44//44 
f 44//44 45//45 44//44 
f 44//44 45//45 45//45 
f 45//45 46//46 45//45 
f 45//45 46//46 47//47 
f 46//46 48//48 47//47 
f 47//47 48//48 48//48 
f 48//48 49//49 48//48 
f 48//48 49//49 49//49 
f 49//49 50//50 49//49 
f 49//49 50//50 51//51 
f 50//50 52//52 51//51 
f 51//51 52//52 52//52 
f 52//52 53//53 52//52 
f 52//52 53//53 53//53 
f 53//53 54//54 53//53 
f 53//53 54//54 55//55 
f 54//54 56//56 55//55 
f 55//55 56//56 56//56 
f 56//56 57//57 56//56 
f 56//56 57//57 57//57 
f 57//57 58//58 57//57 
f 57//57 58//58 59//59 
f 58//58 60//60 59//59 
f 59//59 60//60 60//60 
f 60//60 61//61 60//60 
f 60//60 61//61 61//61 
f 61//61 62//62 61//61 
f 61//61 62//62 63//63 
f 62//62 64//64 63//63 
f 63//63 64//64 64//64 
f 64//64 65//65 64//64 
f 64//64 65//65 65//65 
f 65//65 66//66 65//65 
f 65//65 66//66 67//67 
f 66//66 68//68 67//67 
f 67//67 68//68 68//68 
f 68//68 69//69 68//68 
f 68//68 69//69 69//69 
f 69//69 70//70 69//69 
f 69//69 70//70 71//71 
f 70//70 72//72 71//71 
f 71//71 72//72 72//72 
f 72//72 73//73 72//72 
f 72//72 73//73 73//73 
f 73//73 74//74 73//73 
f 73//73 74//74 75//75 
f 74//74 76//76 75//75 
f 75//75 76//76 76//76 
f 76//76 77//77 76//76 
f 76//76 77//77 77//77 
f 77//77 78//78 77//77 
f 77//77 78//78 79//79 
f 78//78 80//80 79//79 
f 79//79 80//80 80//80 
f 80//80 81//81 80//80 
f 80//80 81//81 81//81 
f 81//81 82//82 81//81 
f 81//81 82//82 83//83 
f 82//82 84//84 83//83 
f 83//83 84//84 84//84 
f 84//84 85//85 84//84 
f 84//84 85//85 85//85 
f 85//85 86//86 85//85 
f 85//85 86//86 87//87 
f 86//86 88//88 87//87 
f 87//87 88//88 88//88 
f 88//88 89//89 88//88 
f 88//88 89//89 89//89 
f 89//89 90//90 89//89 
f 89//89 90//90 91//91 
f 90//90 92//92 91//91 
f 91//91 92//92 92//92 
f 92//92 93//93 92//92 
f 92//92 93//93 93//93 
f 93//93 94//94 93//93 
f 93//93 94//94 95//95 
f 94//94 96//96 95//95 
f 95//95 96//96 96//96 
f 96//96 97//97 96//96 
f 96//96 97//97 97//97 
f 97//97 98//98 97//97 
f 97//97 98//98 99//99 
f 98//98 100//100 99//99 
f 99//99 100//100 100//100 
f 100//100 101//101 100//100 
f 100//100 101//101 101//101 
f 101//101 102//102 101//101 
f 101//101 102//102 103//103 
f 102//102 104//104 103//103 
f 103//103 104//104 104//104 
f 104//104 105//105 104//104 
f 104//104 105//105 105//105 
f 105//105 106//106 105//105 
f 105//105 106//106 107//107 
f 106//106 108//108 107//107 
f 107//107 108//108 108//108 
f 108//108 109//109 108//108 
f 108//108 109//109 109//109 
f 109//109 110//110 109//109 
f 109//109 110//110 111//111 
f 110//110 112//112 111//111 
f 111//111 112//112 112//112 
f 112//112 113//113 112//112 
f 112//112 113//113 113//113 
f 113//113 114//114 113//113 
f 113//113 114//114 115//115 
f 114//114 116//116 115//115 
f 115//115 116//116 116//116 
f 116//116 117//117 116//116 
f 116//116 117//117 117//117 
f 117//117 118//118 117//117 
f 117//117 118//118 119//119 
f 118//118 120//120 119//119 
f 119//119 120//120 120//120 
f 120//120 121//121 120//120 
f 120//120 121//121 121//121 
f 121//121 122//122 121//121 
f 121//121 122//122 123//123 
f 122//122 124//124 123//123 
f 123//123 124//124 124//124 
f 124//124 125//125 124//124 
f 124//124 125//125 125//125 
f 125//125 126//126 125//125 
f 125//125 126//126 127//127 
f 126//126 128//128 127//127 
f 127//127 128//128 128//128 
f 128//128 129//129 128//128 
f 128//128 129//129 129//129 
f 129//129 130//130 129//129 
f 129//129 130//130 131//131 
f 130//130 132//132 131//131 
f 131//131 132//132 132//132 
f 132//132 133//133 132//132 
f 132//132 133//133 133//133 
f 133//133 134//134 133//133 
f 133//133 134//134 135//135 
f 134//134 136//136 135//135 
f 135//135 136//136 136//136 
f 136//136 137//137 136//136 
f 136//136 137//137 137//137 
f 137//137 138//138 137//137 
f 137//137 138//138 139//139 
f 138//138 140//140 139//139 
f 139//139 140//140 140//140 
f 140//140 141//141 140//140 
f 140//140 141//141 141//141 
f 141//141 142//142 141//141 
f 141//141 142//142 143//143 
f 142//142 144//144 143//143 
f 143//143 144//144 144//144 
f 144//144 145//145 144//144 
f 144//144 145//145 145//145 
f 145//145 146//146 145//145 
f 145//145 146//146 147//147 
f 146//146 148//148 147//147 
f 147//147 148//148 148//148 
f 148//148 149//149 148//148 
f 148//148 149//149 149//149 
f 149//149 150//150 149//149 
f 149//149 150//150 151//151 
f 150//150 152//152 151//151 
f 151//151 152//152 152//152 
f 152//152 153//153 152//152 
f 152//152 153//153 153//153 
f 153//153 154//154 153//153 
f 153//153 154//154 155//155 
f 154//154 156//156 155//155 
f 155//155 156//156 156//156 
f 156//156 157//157 156//156 
f 156//156 157//157 157//157 
f 157//157 158//158 157//157 
f 157//157 158//158 159//159 
f 158//158 160//160 159//159 
f 159//159 160//160 160//160 
f 160//160 161//161 160//160 
f 160//160 161//161 161//161 
f 161//161 162//162 161//161 
f 161//161 162//162 163//163 
f 162//162 164//164 163//163 
f 163//163 164//164 164//164 
f 164//164 165//165 164//164 
f 164//164 165//165 165//165 
f 165//165 166//166 165//165 
f 165//165 166//166 167//167 
f 166//166 168//168 167//167 
f 167//167 168//168 168//168 
f 168//168 169//169 168//168 
f 168//168 169//169 169//169 
f 169//169 170//170 169//169 
f 169//169 170//170 171//171 
f 170//170 172//172 171//171 
f 171//171 172//172 172//172 
f 172//172 173//173 172//172 
f 172//172 173//173 173//173 
f 173//173 174//174 173//173 
f 173//173 174//174 175//175 
f 174//174 176//176 175//175 
f 175//175 176//176 176//176 
f 176//176 177//177 176//176 
f 176//176 177//177 177//177 
f 177//177 178//178 177//177 
f 177//177 178//178 179//179 
f 178//178 180//180 179//179 
f 179//179 180//180 180//180 
f 180//180 181//181 180//180 
f 180//180 181//181 181//181 
f 181//181 182//182 181//181 
f 181//181 182//182 183//183 
f 182//182 184//184 183//183 
f 183//183 184//184 184//184 
f 184//184 185//185 184//184 
f 184//184 185//185 185//185 
f 185//185 186//186 185//185 
f 185//185 186//186 187//187 
f 186//186 188//188 187//187 
f 187//187 188//188 188//188 
f 188//188 189//189 188//188 
f 188//188 189//189 189//189 
f 189//189 190//190 189//189 
f 189//189 190//190 191//191 
f 190//190 192//192 191//191 
f 191//191 192//192 192//192 
f 192//192 193//193 192//192 
f 192//192 193//193 193//193 
f 193//193 194//194 193//193 
f 193//193 194//194 195//195 
f 194//194 196//196 195//195 
f 195//195 196//196 196//196 
f 196//196 197//197 196//196 
f 196//196 197//197 197//197 
f 197//197 198//198 197//197 
f 197//197 198//198 199//199 
f 198//198 200//200 199//199 
f 199//199 200//200 200//200 
f 200//200 201//201 200//200 
f 200//200 201//201 201//201 
f 201//201 202//202 201//201 
f 201//201 202//202 203//203 
f 202//202 204//204 203//203 
f 203//203 204//204 204//204 
f 204//204 205//205 204//204 
f 204//204 205//205 205//205 
f 205//205 206//206 205//205 
f 205//205 206//206 207//207 
f 206//206 208//208 207//207 
f 207//207 208//208 208//208 
f 208//208 209//209 208//208 
f 208//208 209//209 209//209 
f 209//209 210//210 209//209 
f 209//209 210//210 211//211 
f 210//210 212//212 211//211 
f 211//211 212//212 212//212 
f 212//212 213//213 212//212 
f 212//212 213//213 213//213 
f 213//213 214//214 213//213 
f 213//213 214//214 215//215 
f 214//214 216//216 215//215 
f 215//215 216//216 216//216 
f 216//216 217//217 216//216 
f 216//216 217//217 217//217 
f 217//217 218//218 217//217 
f 217//217 218//218 219//219 
f 218//218 220//220 219//219 
f 219//219 220//220 220//220 
f 220//220 221//221 220//220 
f 220//220 221//221 221//221 
f 221//221 222//222 221//221 
f 221//221 222//222 223//223 
f 222//222 224//224 223//223 
f 223//223 224//224 224//224 
f 224//224 225//225 224//224 
f 224//224 225//225 225//225 
f 225//225 226//226 225//225 
f 225//225 226//226 227//227 
f 226//226 228//228 227//227 
f 227//227 228//228 228//228 
f 228//228 229//229 228//228 
f 228//228 229//229 229//229 
f 229//229 230//230 229//229 
f 229//229 230//230 231//231 
f 230//230 232//232 231//231 
f 231//231 232//232 232//232 
f 232//232 233//233 232//232 
f 232//232 233//233 233//233 
f 233//233 234//234 233//233 
f 233//233 234//234 235//235 
f 234//234 236//236 235//235 
f 235//235 236//236 236//236 
f 236//236 237//237 236//236 
f 236//236 237//237 237//237 
f 237//237 238//238 237//237 
f 237//237 238//238 239//239 
f 238//238 240//240 239//239 
f 239//239 240//240 240//240 
f 240//240 241//241 240//240 
f 240//240 241//241 241//241 
f 241//241 242//242 241//241 
f 241//241 242//242 243//243 
f 242//242 244//244 243//243 
f 243//243 244//244 244//244 
f 244//244 245//245 244//244 
f 244//244 245//245 245//245 
f 245//245 246//246 245//245 
f 245//245 246//246 247//247 
f 246//246 248//248 247//247 
f 247//247 248//248 248//248 
f 248//248 249//249 248//248 
f 248//248 249//249 249//249 
f 249//249 250//250 249//249 
f 249//249 250//250 251//251 
f 250//250 252//252 251//251 
f 251//251 252//252 252//252 
f 252//252 253//253 252//252 
f 252//252 253//253 253//253 
f 253//253 254//254 253//253 
f 253//253 254//254 255//255 
f 254//254 256//256 255//255 
f 255//255 256//256 256//256 
f 256//256 257//257 256//256 
f 256//256 257//257 257//257 
f 257//257 258//258 257//257 
f 257//257 258//258 259//259 
f 258//258 260//260 259//259 
f 259//259 260//260 260//260 
f 260//260 261//261 260//260 
f 260//260 261//261 261//261 
f 261//261 262//262 261//261 
f 261//261 262//262 263//263 
f 262//262 264//264 263//263 
f 263//263 264//264 264//264 
f 264//264 265//265 264//264 
f 264//264 265//265 265//265 
f 265//265 266//266 265//265 
f 265//265 266//266 267//267 
f 266//266 268//268 267//267 
f 267//267 268//268 268//268 
f 268//268 269//269 268//268 
f 268//268 269//269 269//269 
f 269//269 270//270 269//269 
f 269//269 270//270 271//271 
f 270//270 272//272 271//271 
f 271//271 272//272 272//272 
f 272//272 273//273 272//272 
f 272//272 273//273 273//273 
f 273//273 274//274 273//273 
f 273//273 274//274 275//275 
f 274//274 276//276 275//275 
f 275//275 276//276 276//276 
f 276//276 277//277 276//276 
f 276//276 277//277 277//277 
f 277//277 278//278 277//277 
f 277//277 278//278 279//279 
f 278//278 280//280 279//279 
f 279//279 280//280 280//280 
f 280//280 281//281 280//280 
f 280//280 281//281 281//281 
f 281//281 282//282 281//281 
f 281//281 282//282 283//283 
f 282//282 284//284 283//283 
f 283//283 284//284 284//284 
f 284//284 285//285 284//284 
f 284//284 285//285 285//285 
f 285//285 286//286 285//285 
f 285//285 286//286 287//287 
f 286//286 288//288 287//287 
f 287//287 288//288 288//288 
f 288//288 289//289 288//288 
f 288//288 289//289 289//289 
f 289//289 290//290 289//289 
f 289//289 290//290 291//291 
f 290//290 292//292 291//291 
f 291//291 292//292 292//292 
f 292//292 293//293 292//292 
f 292//292 293//293 293//293 
f 293//293 294//294 293//293 
f 293//293 294//294 295//295 
f 294//294 296//296 295//295 
f 295//295 296//296 296//296 
f 296//296 297//297 296//296 
f 296//296 297//297 297//297 
f 297//297 298//298 297//297 
f 297//297 298//298 299//299 
f 298//298 300//300 299//299 
f 299//299 300//300 300//300 
f 300//300 301//301 300//300 
f 300//300 301//301 301//301 
f 301//301 302//302 301//301 
f 301//301 302//302 303//303 
f 302//302 304//304 303//303 
f 303//303 304//304 304//304 
f 304//304 305//305 304//304 
f 304//304 305//305 305//305 
f 305//305 306//306 305//305 
f 305//305 306//306 307//307 
f 306//306 308//308 307//307 
f 307//307 308//308 308//308 
f 308//308 309//309 308//308 
f 308//308 309//309 309//309 
f 309//309 310//310 309//309 
f 309//309 310//310 311//311 
f 310//310 312//312 311//311 
f 311//311 312//312 312//312 
f 312//312 313//313 312//312 
f 312//312 313//313 313//313 
f 313//313 314//314 313//313 
f 313//313 314//314 315//315 
f 314//314 316//316 315//315 
f 315//315 316//316 316//316 
f 316//316 317//317 316//316 
f 316//316 317//317 317//317 
f 317//317 318//318 317//317 
f 317//317 318//318 319//319 
f 318//318 320//320 319//319 
f 319//319 320//320 320//320 
f 320//320 321//321 320//320 
f 320//320 321//321 321//321 
f 321//321 322//322 321//321 
f 321//321 322//322 323//323 
f 322//322 324//324 323//323 
f 323//323 324//324 324//324 
f 324//324 325//325 324//324 
f 324//324 325//325 325//325 
f 325//325 326//326 325//325 
f 325//325 326//326 327//327 
f 326//326 328//328 327//327 
f 327//327 328//328 328//328 
f 328//328 329//329 328//328 
f 328//328 329//329 329//329 
f 329//329 330//330 329//329 
f 329//329 330//330 331//331 
f 330//330 332//332 331//331 
f 331//331 332//332 332//332 
f 332//332 333//333 332//332 
f 332//332 333//333 333//333 
f 333//333 334//334 333//333 
f 333//333 334//334 335//335 
f 334//334 336//336 335//335 
f 335//335 336//336 336//336 
f 336//336 337//337 336//336 
f 336//336 337//337 337//337 
f 337//337 338//338 337//337 
f 337//337 338//338 339//339 
f 338//338 340//340 339//339 
f 339//339 340//340 340//340 
f 340//340 341//341 340//340 
f 340//340 341//341 341//341 
f 341//341 342//342 341//341 
f 341//341 342//342 343//343 
f 342//342 344//344 343//343 
f 343//343 344//344 344//344 
f 344//344 345//345 344//344 
f 344//344 345//345 345//345 
f 345//345 346//346 345//345 
f 345//345 346//346 347//347 
f 346//346 348//348 347//347 
f 347//347 348//348 348//348 
f 348//348 349//349 348//348 
f 348//348 349//349 349//349 
f 349//349 350//350 349//349 
f 349//349 350//350 351//351 
f 350//350 352//352 351//351 
f 351//351 352//352 352//352 
f 352//352 353//353 352//352 
f 352//352 353//353 353//353 
f 353//353 354//354 353//353 
f 353//353 354//354 355//355 
f 354//354 356//356 355//355 
f 355//355 356//356 356//356 
f 356//356 357//357 356//356 
f 356//356 357//357 357//357 
f 357//357 358//358 357//357 
f 357//357 358//358 359//359 
f 358//358 360//360 359//359 
f 359//359 360//360 360//360 
f 360//360 361//361 360//360 
f 360//360 361//361 361//361 
f 361//361 362//362 361//361 
f 361//361 362//362 363//363 
f 362//362 362//362 363//363 
f 363//363 362//362 364//364 
f 362//362 365//365 364//364 
f 364//364 365//365 366//366 
f 365//365 367//367 366//366 
f 366//366 367//367 368//368 
f 367//367 369//369 368//368 
f 368//368 369//369 370//370 
f 369//369 371//371 370//370 
f 370//370 371//371 372//372 
f 371//371 373//373 372//372 
f 372//372 373//373 374//374 
f 373//373 375//375 374//374 
f 374//374 375//375 376//376 
f 375//375 377//377 376//376 
f 376//376 377//377 378//378 
f 377//377 379//379 378//378 
f 378//378 379//379 380//380 
f 379//379 381//381 380//380 
f 380//380 381//381 382//382 
f 381//381 383//383 382//382 
f 382//382 383//383 384//384 
f 383//383 385//385 384//384 
f 384//384 385//385 385//385 
f 385//385 386//386 385//385 
f 385//385 386//386 386//386 
f 386//386 387//387 386//386 
f 386//386 387//387 388//388 
f 387//387 389//389 388//388 
f 388//388 389//389 390//390 
f 389//389 391//391 390//390 
f 390//390 391//391 392//392 
f 391//391 393//393 392//392 
f 392//392 393//393 394//394 
f 393//393 395//395 394//394 
f 394//394 395//395 396//396 
f 395//395 397//397 396//396 
f 396//396 397//397 398//398 
f 397//397 399//399 398//398 
f 398//398 399//399 400//400 
f 399//399 401//401 400//400 
f 400//400 401//401 402//402 
f 401//401 403//403 402//402 
f 402//402 403//403 404//404 
f 403//403 405//405 404//404 
f 404//404 405//405 406//406 
f 405//405 407//407 406//406 
f 406//406 407//407 408//408 
f 407//407 409//409 408//408 
f 408//408 409//409 410//410 

