mtllib model_6.mtl
o model_6
v 21.181568145751953 281.9966125488281 38.34172058105469 
v 52.793495178222656 282.0389709472656 97.82548522949219 
v 17.051366806030273 286.1438293457031 40.52787399291992 
v 48.66329574584961 286.2284851074219 100.06248474121094 
v 13.662484169006348 291.1797180175781 42.30730056762695 
v 45.274410247802734 291.264404296875 101.84190368652344 
v 11.279675483703613 296.85040283203125 43.62915802001953 
v 42.83864974975586 296.8927307128906 103.11292266845703 
v 9.849990844726562 302.90191650390625 44.34092330932617 
v 41.461917877197266 302.9866027832031 103.87554168701172 
v 9.532282829284668 309.2073669433594 44.54428482055664 
v 41.14421081542969 309.29205322265625 104.0280532836914 
v 10.273600578308105 315.42816162109375 44.08671569824219 
v 41.885528564453125 315.5128479003906 103.62133026123047 
v 12.073945999145508 321.39508056640625 43.120731353759766 
v 43.68587112426758 321.43743896484375 102.65534973144531 
v 14.880365371704102 326.81182861328125 41.64634323120117 
v 46.49229049682617 326.8965148925781 101.13011932373047 
v 18.586956024169922 331.5091857910156 39.663551330566406 
v 50.198883056640625 331.5938415527344 99.19816589355469 
v 22.98191261291504 335.3178405761719 37.32487106323242 
v 54.59383773803711 335.40252685546875 96.80864715576172 
v 28.012287139892578 338.0685119628906 34.68114471435547 
v 59.62421417236328 338.1531982421875 94.1649169921875 
v 68.83773803710938 333.1596374511719 107.58689880371094 
v 64.65458679199219 330.8321228027344 109.82390594482422 
v 61.00094985961914 327.7005615234375 111.80669403076172 
v 57.929771423339844 323.76495361328125 113.43360137939453 
v 55.54696273803711 319.23687744140625 114.6537857055664 
v 54.064327239990234 314.2856140136719 115.46723937988281 
v 53.42891311645508 309.0804443359375 115.82312774658203 
v 53.693668365478516 303.8329772949219 115.67061614990234 
v 54.85859680175781 298.7970886230469 115.06053161621094 
v 56.92369842529297 294.0574035644531 113.99286651611328 
v 59.7301139831543 289.8678894042969 112.51848602294922 
v 63.17195129394531 286.3977966308594 110.68822479248047 
v 52.793495178222656 282.0389709472656 97.82548522949219 
v 57.612060546875 278.8650817871094 95.283447265625 
v 21.181568145751953 281.9966125488281 38.34172058105469 
v 26.00013542175293 278.8227233886719 35.799678802490234 
v 62.85424041748047 276.83380126953125 92.4872055053711 
v 31.24231719970703 276.7491455078125 33.00343322753906 
v 68.36117553710938 275.9450988769531 89.58927917480469 
v 36.74925231933594 275.90277099609375 30.10550880432129 
v 73.92106628417969 276.3259582519531 86.64051055908203 
v 42.309139251708984 276.28363037109375 27.156740188598633 
v 79.26914978027344 277.93408203125 83.79342651367188 
v 80.75178527832031 281.61578369140625 101.33351135253906 
v 76.14501953125 281.319580078125 103.77386474609375 
v 71.53825378417969 282.0389709472656 106.21422576904297 
v 67.19625091552734 283.7317199707031 108.55290985107422 
v 47.657222747802734 277.8493957519531 24.309654235839844 
v 84.29951477050781 280.6847839355469 81.14970397949219 
v 52.687591552734375 280.60009765625 21.615087509155273 
v 85.25263977050781 282.969970703125 98.9439926147461 
v 89.38284301757812 285.25518798828125 96.7578353881836 
v 57.082550048828125 284.40875244140625 19.27640724182129 
v 52.687591552734375 280.60009765625 21.615087509155273 
v 88.69447326660156 284.4934387207031 78.76017761230469 
v 84.29951477050781 280.6847839355469 81.14970397949219 
v 89.38284301757812 285.25518798828125 96.7578353881836 
v 93.08943939208984 288.4290466308594 94.77503967285156 
v 92.40106964111328 289.1907653808594 76.8282241821289 
v 60.78914260864258 289.1061096191406 17.293611526489258 
v 95.20748901367188 294.6075439453125 75.3030014038086 
v 63.59556198120117 294.5228576660156 15.819222450256348 
v 97.0078353881836 300.5744323730469 74.3370132446289 
v 65.39590454101562 300.48974609375 14.853243827819824 
v 97.74915313720703 306.79522705078125 73.93029022216797 
v 66.13722229003906 306.7105712890625 14.446513175964355 
v 97.43144226074219 313.0583801269531 74.08280944824219 
v 65.81951141357422 313.0160217285156 14.599032402038574 
v 96.00175476074219 319.1522216796875 74.84541320800781 
v 64.38983154296875 319.0675354003906 15.361640930175781 
v 93.56599426269531 324.8228759765625 76.11642456054688 
v 62.007022857666016 324.73822021484375 16.632658004760742 
v 90.23006439208984 329.81646728515625 77.89585876464844 
v 58.618141174316406 329.77410888671875 18.412084579467773 
v 86.09986114501953 334.0059814453125 80.13285064697266 
v 54.487937927246094 333.92132568359375 20.598236083984375 
v 90.9184341430664 329.68951416015625 95.89351654052734 
v 94.36026763916016 326.21942138671875 94.06324005126953 
v 97.16667938232422 322.0299072265625 92.58885955810547 
v 99.17884063720703 317.3325500488281 91.47036743164062 
v 100.34376525878906 312.25433349609375 90.86028289794922 
v 100.66146850585938 307.0068359375 90.75860595703125 
v 100.02606201171875 301.8016662597656 91.06365203857422 
v 98.49046325683594 296.8504333496094 91.87710571289062 
v 96.16061401367188 292.3223571777344 93.14812469482422 
v 49.669368743896484 337.0951843261719 23.140277862548828 
v 81.28129577636719 337.17987060546875 82.67488861083984 
v 54.487937927246094 333.92132568359375 20.598236083984375 
v 86.09986114501953 334.0059814453125 80.13285064697266 
v 90.9184341430664 329.68951416015625 95.89351654052734 
v 86.89412689208984 332.3555603027344 98.02882385253906 
v 76.03911590576172 339.25347900390625 85.42029571533203 
v 44.427188873291016 339.1687927246094 25.936521530151367 
v 70.53218078613281 340.0998229980469 88.36906433105469 
v 38.92025375366211 340.01519775390625 28.88528823852539 
v 64.9722900390625 339.718994140625 91.31783294677734 
v 33.36036682128906 339.6766357421875 31.834056854248047 
v 59.62421417236328 338.1531982421875 94.1649169921875 
v 28.012287139892578 338.0685119628906 34.68114471435547 
v 68.83773803710938 333.1596374511719 107.58689880371094 
v 73.3386001586914 334.4715270996094 105.1973876953125 
v 77.94536590576172 334.7677307128906 102.75701141357422 
v 82.5521240234375 334.0483093261719 100.31665802001953 
v 94.67797088623047 310.4769592285156 104.2314224243164 
v 99.17884063720703 317.3325500488281 91.47036743164062 
v 93.9896011352539 313.39691162109375 104.53646850585938 
v 97.16667938232422 322.0299072265625 92.58885955810547 
v 100.34376525878906 312.25433349609375 90.86028289794922 
v 94.83682250976562 307.47235107421875 104.1297378540039 
v 100.66146850585938 307.0068359375 90.75860595703125 
v 94.46617126464844 304.51007080078125 104.33309936523438 
v 100.02606201171875 301.8016662597656 91.06365203857422 
v 93.61894989013672 301.6324157714844 104.7906723022461 
v 98.49046325683594 296.8504333496094 91.87710571289062 
v 92.295166015625 299.0509948730469 105.50244903564453 
v 96.16061401367188 292.3223571777344 93.14812469482422 
v 90.49481964111328 296.80810546875 106.41758728027344 
v 93.08943939208984 288.4290466308594 94.77503967285156 
v 88.37677001953125 294.9884033203125 107.58692932128906 
v 89.38284301757812 285.25518798828125 96.7578353881836 
v 85.99395751953125 293.6765441894531 108.85794830322266 
v 85.25263977050781 282.969970703125 98.9439926147461 
v 83.4522933959961 292.9148254394531 110.17980194091797 
v 80.75178527832031 281.61578369140625 101.33351135253906 
v 80.80473327636719 292.74554443359375 111.60335540771484 
v 76.14501953125 281.319580078125 103.77386474609375 
v 78.15716552734375 293.12640380859375 113.02689361572266 
v 71.53825378417969 282.0389709472656 106.21422576904297 
v 75.66845703125 294.1420593261719 114.3487548828125 
v 67.19625091552734 283.7317199707031 108.55290985107422 
v 73.3386001586914 295.66552734375 115.56893157958984 
v 63.17195129394531 286.3977966308594 110.68822479248047 
v 57.612060546875 278.8650817871094 95.283447265625 
v 52.793495178222656 282.0389709472656 97.82548522949219 
v 71.37940216064453 297.65447998046875 116.58575439453125 
v 69.79086303710938 300.0243225097656 117.45004272460938 
v 68.62593078613281 302.7326965332031 118.06013488769531 
v 67.93756103515625 305.65264892578125 118.416015625 
v 59.7301139831543 289.8678894042969 112.51848602294922 
v 56.92369842529297 294.0574035644531 113.99286651611328 
v 54.85859680175781 298.7970886230469 115.06053161621094 
v 53.693668365478516 303.8329772949219 115.67061614990234 
v 67.7787094116211 308.65728759765625 118.51769256591797 
v 53.42891311645508 309.0804443359375 115.82312774658203 
v 68.14936828613281 311.61956787109375 118.3143310546875 
v 54.064327239990234 314.2856140136719 115.46723937988281 
v 68.99658966064453 314.45489501953125 117.85676574707031 
v 55.54696273803711 319.23687744140625 114.6537857055664 
v 70.32037353515625 317.0786437988281 117.14498901367188 
v 57.929771423339844 323.76495361328125 113.43360137939453 
v 92.82467651367188 316.06298828125 105.19739532470703 
v 91.23613739013672 318.47515869140625 106.0108413696289 
v 72.12071990966797 319.321533203125 116.17900848388672 
v 61.00094985961914 327.7005615234375 111.80669403076172 
v 74.23876953125 321.1412048339844 115.06051635742188 
v 64.65458679199219 330.8321228027344 109.82390594482422 
v 94.36026763916016 326.21942138671875 94.06324005126953 
v 90.9184341430664 329.68951416015625 95.89351654052734 
v 89.27693939208984 320.464111328125 107.0784912109375 
v 86.89412689208984 332.3555603027344 98.02882385253906 
v 86.94708251953125 321.9875793457031 108.2986831665039 
v 82.5521240234375 334.0483093261719 100.31665802001953 
v 76.62158203125 322.45306396484375 113.78948974609375 
v 68.83773803710938 333.1596374511719 107.58689880371094 
v 79.16323852539062 323.2148132324219 112.41678619384766 
v 73.3386001586914 334.4715270996094 105.1973876953125 
v 81.81080627441406 323.3840637207031 111.0440902709961 
v 77.94536590576172 334.7677307128906 102.75701141357422 
v 84.4583740234375 322.9609069824219 109.62053680419922 
v -74.50143432617188 281.06561279296875 48.408206939697266 
v -74.81913757324219 278.69580078125 54.25490188598633 
v -91.39289093017578 278.99200439453125 47.28970718383789 
v -91.65765380859375 277.0453796386719 52.17042541503906 
v -75.61341094970703 277.3839416503906 60.35580062866211 
v -92.34601593017578 275.9450988769531 57.2545166015625 
v -76.93719482421875 277.21466064453125 66.5075454711914 
v -15.143022537231445 303.6636657714844 74.13365173339844 
v -16.46680450439453 303.4944152832031 80.23455047607422 
v -14.295801162719727 304.9332275390625 68.03275299072266 
v -104.73662567138672 283.477783203125 52.882198333740234 
v -105.10728454589844 282.8429870605469 55.78012466430664 
v -93.45800018310547 275.8181457519531 62.33859634399414 
v -105.74269104003906 282.75836181640625 58.7288932800293 
v -78.73753356933594 278.18798828125 72.45591735839844 
v -18.214197158813477 304.46771240234375 86.23377227783203 
v -80.90853881835938 280.2615661621094 77.99756622314453 
v -20.38520050048828 306.5413513183594 91.77542114257812 
v -107.6489486694336 284.1971740722656 64.21969604492188 
v -106.58991241455078 283.223876953125 61.57598114013672 
v -96.68802642822266 278.3572692871094 71.947509765625 
v -94.94063568115234 276.6221923828125 67.32099151611328 
v -22.820960998535156 309.5882568359375 96.65613555908203 
v -83.34429931640625 283.350830078125 82.87828826904297 
v -20.38520050048828 306.5413513183594 91.77542114257812 
v -80.90853881835938 280.2615661621094 77.99756622314453 
v -96.68802642822266 278.3572692871094 71.947509765625 
v -98.75312805175781 280.9386901855469 76.01477813720703 
v -85.99185943603516 287.3287658691406 86.99639129638672 
v -25.46852684020996 313.6085205078125 100.72339630126953 
v -88.74533081054688 292.06842041015625 90.0976791381836 
v -28.274944305419922 318.3058776855469 103.8246841430664 
v -91.49879455566406 297.3582458496094 92.0804672241211 
v -30.975461959838867 323.5956726074219 105.85831451416016 
v -94.1463623046875 302.9866027832031 92.94475555419922 
v -33.62302780151367 329.2663269042969 106.67176818847656 
v -96.58212280273438 308.7842102050781 92.53802490234375 
v -36.05878829956055 335.06396484375 106.31587982177734 
v -98.7001724243164 314.4971923828125 91.01280212402344 
v -38.17683792114258 340.7346496582031 104.73980712890625 
v -100.44756317138672 319.9139404296875 88.26739501953125 
v -39.924232482910156 346.1513977050781 102.04524230957031 
v -107.75485229492188 297.31591796875 84.40350341796875 
v -105.58384704589844 292.5762634277344 83.69173431396484 
v -103.25398254394531 288.1751403808594 82.01398468017578 
v -100.97708129882812 284.239501953125 79.42111206054688 
v -41.19506072998047 351.0603332519531 98.3338623046875 
v -101.71839904785156 324.8229064941406 84.5560073852539 
v -39.924232482910156 346.1513977050781 102.04524230957031 
v -100.44756317138672 319.9139404296875 88.26739501953125 
v -102.5126724243164 329.0124206542969 79.98033142089844 
v -41.98933410644531 355.29217529296875 93.70734405517578 
v -102.72447204589844 332.39788818359375 74.64204406738281 
v -42.254085540771484 358.63531494140625 88.41989135742188 
v -102.459716796875 334.72540283203125 68.79534912109375 
v -41.936378479003906 361.0051574707031 82.57319641113281 
v -101.61249542236328 336.0372619628906 62.69444274902344 
v -41.08916091918945 362.2746887207031 76.4722900390625 
v -100.28871154785156 336.20654296875 56.542701721191406 
v -39.765377044677734 362.4439697265625 70.320556640625 
v -98.48836517333984 335.23321533203125 50.594329833984375 
v -112.89112854003906 324.9921569824219 54.102352142333984 
v -114.00309753417969 324.8652038574219 59.186431884765625 
v -111.40848541259766 324.1881103515625 49.11994934082031 
v -116.91542053222656 310.94244384765625 54.00067901611328 
v -116.06819915771484 310.4769287109375 51.15359115600586 
v -104.73662567138672 283.477783203125 52.882198333740234 
v -104.57776641845703 284.57806396484375 50.0859489440918 
v -115.0091781616211 309.50360107421875 48.50986862182617 
v -104.68367004394531 286.1861572265625 47.54390335083008 
v -113.84425354003906 308.0224609375 46.17118835449219 
v -105.05432891845703 288.2174377441406 45.357749938964844 
v -112.57341003417969 306.1181335449219 44.18840026855469 
v -105.68974304199219 290.5449523925781 43.57831954956055 
v -111.24964141845703 303.875244140625 42.71401596069336 
v -106.5369644165039 293.1263732910156 42.30729675292969 
v -109.97879791259766 301.3361511230469 41.748043060302734 
v -107.54303741455078 295.8770751953125 41.54468536376953 
v -108.70796203613281 298.6277770996094 41.34131622314453 
v -105.10728454589844 282.8429870605469 55.78012466430664 
v -117.55083465576172 310.8577880859375 56.94944763183594 
v -117.92149353027344 310.2653503417969 59.847373962402344 
v -114.69147491455078 323.7649230957031 64.32135772705078 
v -118.08035278320312 309.12274169921875 62.64362335205078 
v -106.58991241455078 283.223876953125 61.57598114013672 
v -107.6489486694336 284.1971740722656 64.21969604492188 
v -105.74269104003906 282.75836181640625 58.7288932800293 
v -114.90327453613281 321.8182678222656 69.1512451171875 
v -114.74441528320312 319.0252685546875 73.57439422607422 
v -114.0560531616211 315.5128173828125 77.43830108642578 
v -117.97444915771484 307.5146484375 65.18566131591797 
v -108.81387329101562 285.6783447265625 66.55838012695312 
v -98.75312805175781 280.9386901855469 76.01477813720703 
v -100.97708129882812 284.239501953125 79.42111206054688 
v -110.08470153808594 287.5826721191406 68.54116821289062 
v -103.25398254394531 288.1751403808594 82.01398468017578 
v -117.60379028320312 305.52569580078125 67.37181854248047 
v -116.96836853027344 303.1558532714844 69.15125274658203 
v -112.99701690673828 311.407958984375 80.53958892822266 
v -111.56734466552734 306.8798828125 82.7765884399414 
v -98.7001724243164 314.4971923828125 91.01280212402344 
v -111.40848541259766 289.86785888671875 70.01555633544922 
v -116.17410278320312 300.5744323730469 70.42227172851562 
v -112.73226928710938 292.3646545410156 70.98152923583984 
v -105.58384704589844 292.5762634277344 83.69173431396484 
v -107.75485229492188 297.31591796875 84.40350341796875 
v -96.68802642822266 278.3572692871094 71.947509765625 
v -115.11508178710938 297.8660583496094 71.18488311767578 
v -113.95014190673828 295.0730285644531 71.38825225830078 
v -109.76699829101562 302.1402282714844 84.09845733642578 
v -96.58212280273438 308.7842102050781 92.53802490234375 
v -94.1463623046875 302.9866027832031 92.94475555419922 
v -38.01798629760742 361.47064208984375 64.3721694946289 
v -98.48836517333984 335.23321533203125 50.594329833984375 
v -39.765377044677734 362.4439697265625 70.320556640625 
v -100.28871154785156 336.20654296875 56.542701721191406 
v -35.846981048583984 359.39703369140625 58.83052444458008 
v -96.37031555175781 333.15960693359375 45.052677154541016 
v -38.01798629760742 361.47064208984375 64.3721694946289 
v -98.48836517333984 335.23321533203125 50.594329833984375 
v -111.40848541259766 324.1881103515625 49.11994934082031 
v -109.60813903808594 322.4530334472656 44.49343490600586 
v -116.06819915771484 310.4769287109375 51.15359115600586 
v -115.0091781616211 309.50360107421875 48.50986862182617 
v -107.54303741455078 319.8716125488281 40.426170349121094 
v -113.84425354003906 308.0224609375 46.17118835449219 
v -93.88160705566406 330.0703430175781 40.171958923339844 
v -33.41122055053711 356.35009765625 53.94981002807617 
v -91.23403930664062 326.0924072265625 36.10469436645508 
v -30.763656616210938 352.3298645019531 49.83170700073242 
v -105.31908416748047 316.5707702636719 37.01983642578125 
v -112.57341003417969 306.1181335449219 44.18840026855469 
v -103.04218292236328 312.6351623535156 34.42695617675781 
v -111.24964141845703 303.875244140625 42.71401596069336 
v -88.48057556152344 321.3527526855469 33.0034065246582 
v -27.957237243652344 347.63250732421875 46.73041915893555 
v -85.72710418701172 316.0629577636719 30.969776153564453 
v -25.20376968383789 342.34271240234375 44.74762725830078 
v -100.76527404785156 308.19171142578125 32.749210357666016 
v -109.97879791259766 301.3361511230469 41.748043060302734 
v -98.54132080078125 303.494384765625 32.037445068359375 
v -108.70796203613281 298.6277770996094 41.34131622314453 
v -83.07954406738281 310.4346008300781 30.156328201293945 
v -22.609155654907227 336.6720275878906 43.88333511352539 
v -80.6437759399414 304.636962890625 30.512216567993164 
v -20.173397064208984 330.8744201660156 44.29006576538086 
v -96.52916717529297 298.6700744628906 32.342491149902344 
v -107.54303741455078 295.8770751953125 41.54468536376953 
v -94.78178405761719 293.930419921875 33.66435623168945 
v -106.5369644165039 293.1263732910156 42.30729675292969 
v -78.52572631835938 298.9239807128906 32.088287353515625 
v -18.055343627929688 325.1614074707031 45.81529235839844 
v -76.77833557128906 293.5072326660156 34.78285217285156 
v -16.307950973510742 319.7869873046875 48.50986099243164 
v -75.50750732421875 288.5982971191406 38.49423599243164 
v -15.03711986541748 314.8780517578125 52.27208709716797 
v -93.29914093017578 289.40234375 35.9013557434082 
v -105.68974304199219 290.5449523925781 43.57831954956055 
v -92.2401123046875 285.2974548339844 39.002647399902344 
v -74.76618957519531 284.4087829589844 43.12075424194336 
v -91.60469818115234 281.7850341796875 42.86655044555664 
v -74.50143432617188 281.06561279296875 48.408206939697266 
v -91.39289093017578 278.99200439453125 47.28970718383789 
v -104.68367004394531 286.1861572265625 47.54390335083008 
v -104.57776641845703 284.57806396484375 50.0859489440918 
v -91.65765380859375 277.0453796386719 52.17042541503906 
v -104.73662567138672 283.477783203125 52.882198333740234 
v -105.05432891845703 288.2174377441406 45.357749938964844 
v -75.50750732421875 288.5982971191406 38.49423599243164 
v -15.03711986541748 314.8780517578125 52.27208709716797 
v -74.76618957519531 284.4087829589844 43.12075424194336 
v -14.242850303649902 310.6462097167969 56.84776306152344 
v -74.50143432617188 281.06561279296875 48.408206939697266 
v -13.978094100952148 307.30303955078125 62.18605422973633 
v -74.81913757324219 278.69580078125 54.25490188598633 
v -14.295801162719727 304.9332275390625 68.03275299072266 
v 36.74925231933594 275.90277099609375 30.10550880432129 
v 42.309139251708984 276.28363037109375 27.156740188598633 
v 31.24231719970703 276.7491455078125 33.00343322753906 
v 47.657222747802734 277.8493957519531 24.309654235839844 
v 26.00013542175293 278.8227233886719 35.799678802490234 
v 52.687591552734375 280.60009765625 21.615087509155273 
v 21.181568145751953 281.9966125488281 38.34172058105469 
v 57.082550048828125 284.40875244140625 19.27640724182129 
v 17.051366806030273 286.1438293457031 40.52787399291992 
v 60.78914260864258 289.1061096191406 17.293611526489258 
v 13.662484169006348 291.1797180175781 42.30730056762695 
v 63.59556198120117 294.5228576660156 15.819222450256348 
v 11.279675483703613 296.85040283203125 43.62915802001953 
v 65.39590454101562 300.48974609375 14.853243827819824 
v 9.849990844726562 302.90191650390625 44.34092330932617 
v 66.13722229003906 306.7105712890625 14.446513175964355 
v 9.532282829284668 309.2073669433594 44.54428482055664 
v 65.81951141357422 313.0160217285156 14.599032402038574 
v 10.273600578308105 315.42816162109375 44.08671569824219 
v 64.38983154296875 319.0675354003906 15.361640930175781 
v 12.073945999145508 321.39508056640625 43.120731353759766 
v 62.007022857666016 324.73822021484375 16.632658004760742 
v 14.880365371704102 326.81182861328125 41.64634323120117 
v 58.618141174316406 329.77410888671875 18.412084579467773 
v 18.586956024169922 331.5091857910156 39.663551330566406 
v 54.487937927246094 333.92132568359375 20.598236083984375 
v 22.98191261291504 335.3178405761719 37.32487106323242 
v 49.669368743896484 337.0951843261719 23.140277862548828 
v 28.012287139892578 338.0685119628906 34.68114471435547 
v 44.427188873291016 339.1687927246094 25.936521530151367 
v 33.36036682128906 339.6766357421875 31.834056854248047 
v 38.92025375366211 340.01519775390625 28.88528823852539 
v -33.62302780151367 329.2663269042969 106.67176818847656 
v -36.05878829956055 335.06396484375 106.31587982177734 
v -30.975461959838867 323.5956726074219 105.85831451416016 
v -38.17683792114258 340.7346496582031 104.73980712890625 
v -28.274944305419922 318.3058776855469 103.8246841430664 
v -39.924232482910156 346.1513977050781 102.04524230957031 
v -25.46852684020996 313.6085205078125 100.72339630126953 
v -41.19506072998047 351.0603332519531 98.3338623046875 
v -22.820960998535156 309.5882568359375 96.65613555908203 
v -41.98933410644531 355.29217529296875 93.70734405517578 
v -20.38520050048828 306.5413513183594 91.77542114257812 
v -42.254085540771484 358.63531494140625 88.41989135742188 
v -18.214197158813477 304.46771240234375 86.23377227783203 
v -41.936378479003906 361.0051574707031 82.57319641113281 
v -16.46680450439453 303.4944152832031 80.23455047607422 
v -41.08916091918945 362.2746887207031 76.4722900390625 
v -15.143022537231445 303.6636657714844 74.13365173339844 
v -39.765377044677734 362.4439697265625 70.320556640625 
v -14.295801162719727 304.9332275390625 68.03275299072266 
v -38.01798629760742 361.47064208984375 64.3721694946289 
v -13.978094100952148 307.30303955078125 62.18605422973633 
v -35.846981048583984 359.39703369140625 58.83052444458008 
v -14.242850303649902 310.6462097167969 56.84776306152344 
v -33.41122055053711 356.35009765625 53.94981002807617 
v -15.03711986541748 314.8780517578125 52.27208709716797 
v -30.763656616210938 352.3298645019531 49.83170700073242 
v -16.307950973510742 319.7869873046875 48.50986099243164 
v -27.957237243652344 347.63250732421875 46.73041915893555 
v -18.055343627929688 325.1614074707031 45.81529235839844 
v -25.20376968383789 342.34271240234375 44.74762725830078 
v -20.173397064208984 330.8744201660156 44.29006576538086 
v -22.609155654907227 336.6720275878906 43.88333511352539 
vn -0.005179416388273239 -0.008085023611783981 0.0027939127758145332 
vn -0.00437256321310997 -0.007980939000844955 0.004145503509789705 
vn -0.006491341628134251 -0.0067795743234455585 0.003449606942012906 
vn -0.005649284925311804 -0.006715076509863138 0.004795127082616091 
vn -0.007542773615568876 -0.005212866701185703 0.003991557750850916 
vn -0.0067031774669885635 -0.005175528582185507 0.005318011622875929 
vn -0.008263684809207916 -0.0034862614702433348 0.004422381520271301 
vn -0.007434700150042772 -0.003404223592951894 0.00575642567127943 
vn -0.008715062402188778 -0.0015880720457062125 0.0046395775862038136 
vn -0.007866927422583103 -0.001544916769489646 0.005977008957415819 
vn -0.008813130669295788 0.0003713156038429588 0.004710713401436806 
vn -0.007958589121699333 0.0003713164187502116 0.006043420638889074 
vn -0.00858933012932539 0.0023163941223174334 0.004567023366689682 
vn -0.007734948769211769 0.002316395053640008 0.005899562034755945 
vn -0.008037611842155457 0.0041722082532942295 0.0042413948103785515 
vn -0.007176295388489962 0.004132459871470928 0.005605666432529688 
vn -0.007149992510676384 0.00586724141612649 0.003801712766289711 
vn -0.006335598416626453 0.005796253681182861 0.005124799441546202 
vn -0.006000967230647802 0.007336174603551626 0.003188865492120385 
vn -0.005169665440917015 0.007246469613164663 0.004556660074740648 
vn -0.004615993704646826 0.008522399701178074 0.002461950294673443 
vn -0.003837109776213765 0.00842966977506876 0.003770562820136547 
vn -0.0030794665217399597 0.009380205534398556 0.0015901286387816072 
vn -0.0022921764757484198 0.009269832633435726 0.0029691767413169146 
vn 0.00009425261669093743 0.007765497080981731 0.006299844477325678 
vn -0.0011631733505055308 0.007063339464366436 0.0069825598038733006 
vn -0.0023390199057757854 0.006077499594539404 0.007588996086269617 
vn -0.003258679760619998 0.00487334281206131 0.008101322688162327 
vn -0.003980726469308138 0.0034452839754521847 0.008501984179019928 
vn -0.004486262332648039 0.0019321551080793142 0.008725831285119057 
vn -0.004644736647605896 0.0003276510105933994 0.008849800564348698 
vn -0.004561026580631733 -0.0012853980297222733 0.008805946446955204 
vn -0.0042127748019993305 -0.002864924492314458 0.008604919537901878 
vn -0.003562457161024213 -0.004330391995608807 0.008279885165393353 
vn -0.00274275173433125 -0.0056168497540056705 0.007805651985108852 
vn -0.0016659018583595753 -0.006682633887976408 0.007250314112752676 
vn -0.00437256321310997 -0.007980939000844955 0.004145503509789705 
vn -0.0029104927089065313 -0.008965899236500263 0.0033378975931555033 
vn -0.005179416388273239 -0.008085023611783981 0.0027939127758145332 
vn -0.0037037290167063475 -0.00907890871167183 0.0019635972566902637 
vn -0.0012905958574265242 -0.009599386714398861 0.0024871709756553173 
vn -0.0020671645179390907 -0.009722926653921604 0.0010915142484009266 
vn 0.000395143695641309 -0.009869595058262348 0.0015603923238813877 
vn -0.0003268872096668929 -0.009992262348532677 0.00021842510614078492 
vn 0.002105317311361432 -0.009752733632922173 0.0006720972596667707 
vn 0.0013870688853785396 -0.009876536205410957 -0.0007279834244400263 
vn 0.003784698201343417 -0.009253352880477905 -0.00022674065257888287 
vn 0.003809988498687744 -0.00816146656870842 0.00434446195140481 
vn 0.0023470844607800245 -0.008261207491159439 0.0051228441298007965 
vn 0.0009596094023436308 -0.008033286780118942 0.005877527873963118 
vn -0.00043408069177530706 -0.007511783391237259 0.006586696021258831 
vn 0.0030741861555725336 -0.009380205534398556 -0.0016003132332116365 
vn 0.005313274450600147 -0.008406082168221474 -0.0010520507348701358 
vn 0.004613217897713184 -0.008522399701178074 -0.0024671482387930155 
vn 0.005199067760258913 -0.007737887557595968 0.0036186601500958204 
vn 0.006476348731666803 -0.007032335735857487 0.0029331014957278967 
vn 0.005998207721859217 -0.007336174603551626 -0.0031940520275384188 
vn 0.004613217897713184 -0.008522399701178074 -0.0024671482387930155 
vn 0.006673195865005255 -0.007246467750519514 -0.001719621242955327 
vn 0.005313274450600147 -0.008406082168221474 -0.0010520507348701358 
vn 0.006476348731666803 -0.007032335735857487 0.0029331014957278967 
vn 0.007604177109897137 -0.0060427370481193066 0.002379446057602763 
vn 0.007793133147060871 -0.005796252284198999 -0.002381278667598963 
vn 0.007164901588112116 -0.00586724141612649 -0.0037735404912382364 
vn 0.008658169768750668 -0.004132458474487066 -0.002821142552420497 
vn 0.008017170242965221 -0.0041722082532942295 -0.0042799087241292 
vn 0.009215036407113075 -0.0023163931909948587 -0.0031172754243016243 
vn 0.00858656968921423 -0.0023163941223174334 -0.0045722112990915775 
vn 0.009446479380130768 -0.00037131470162421465 -0.003259776160120964 
vn 0.008813130669295788 -0.0003713156038429588 -0.004710713401436806 
vn 0.009351052343845367 0.0015449185157194734 -0.0031892068218439817 
vn 0.008715062402188778 0.0015880720457062125 -0.0046395775862038136 
vn 0.008907079696655273 0.0034452767577022314 -0.0029654642567038536 
vn 0.008263684809207916 0.0034862614702433348 -0.004422381520271301 
vn 0.008152734488248825 0.005175530444830656 -0.0025974519085139036 
vn 0.007545504719018936 0.005212866701185703 -0.003986393101513386 
vn 0.007131636142730713 0.006715078372508287 -0.0020118223037570715 
vn 0.006479119881987572 0.0067795743234455585 -0.0034725081641227007 
vn 0.005837187636643648 0.008007192052900791 -0.001346119912341237 
vn 0.005202739033848047 0.008085023611783981 -0.0027502381708472967 
vn 0.006922366563230753 0.00668264040723443 0.0027245362289249897 
vn 0.00800525862723589 0.0056168558076024055 0.002089670393615961 
vn 0.008861491456627846 0.004330398049205542 0.0016497267642989755 
vn 0.009484762325882912 0.002864930545911193 0.0013533078599721193 
vn 0.009852400980889797 0.0012854041997343302 0.0011304562212899327 
vn 0.009930573403835297 -0.0003276448114775121 0.0011297573801130056 
vn 0.009737197309732437 -0.0019321489380672574 0.0012057267595082521 
vn 0.009278301149606705 -0.003445277689024806 0.0014293949352577329 
vn 0.00855039432644844 -0.004835135769098997 0.0018740834202617407 
vn 0.0037091844715178013 0.00907890871167183 -0.001953272381797433 
vn 0.004397348966449499 0.008965901099145412 -0.0005251988768577576 
vn 0.005202739033848047 0.008085023611783981 -0.0027502381708472967 
vn 0.005837187636643648 0.008007192052900791 -0.001346119912341237 
vn 0.006922366563230753 0.00668264040723443 0.0027245362289249897 
vn 0.0056721242144703865 0.007511789444833994 0.003376380307599902 
vn 0.0027437866665422916 0.009611540473997593 0.0002997006813529879 
vn 0.0020725501235574484 0.009722926653921604 -0.0010812534019351006 
vn 0.0010770605877041817 0.009869596920907497 0.0011961901327595115 
vn 0.0003342576965223998 0.009992262348532677 -0.0002069696638500318 
vn -0.0006471362430602312 0.009752734564244747 0.002113114343956113 
vn -0.0013923628721386194 0.009876536205410957 0.0007178063970059156 
vn -0.0022921764757484198 0.009269832633435726 0.0029691767413169146 
vn -0.0030794665217399597 0.009380205534398556 0.0015901286387816072 
vn 0.00009425261669093743 0.007765497080981731 0.006299844477325678 
vn 0.0015258636558428407 0.008161472156643867 0.005573328118771315 
vn 0.002903991611674428 0.008261214010417461 0.004828982520848513 
vn 0.004322662949562073 0.008033293299376965 0.0040964242070913315 
vn 0.007417840417474508 0.0005459062522277236 0.0066841281950473785 
vn 0.009484762325882912 0.002864930545911193 0.0013533078599721193 
vn 0.007294761948287487 0.001198696787469089 0.0067342049442231655 
vn 0.008861491456627846 0.004330398049205542 0.0016497267642989755 
vn 0.009852400980889797 0.0012854041997343302 0.0011304562212899327 
vn 0.00748466094955802 -0.00010922844376182184 0.0066308267414569855 
vn 0.009930573403835297 -0.0003276448114775121 0.0011297573801130056 
vn 0.0073928432539105415 -0.0008074528304859996 0.006685344502329826 
vn 0.009737197309732437 -0.0019321489380672574 0.0012057267595082521 
vn 0.007199311628937721 -0.0014585198368877172 0.006785466801375151 
vn 0.009278301149606705 -0.003445277689024806 0.0014293949352577329 
vn 0.006865293253213167 -0.0020178116392344236 0.006985421758145094 
vn 0.00855039432644844 -0.004835135769098997 0.0018740834202617407 
vn 0.006492586340755224 -0.0025283447466790676 0.0071731251664459705 
vn 0.007604177109897137 -0.0060427370481193066 0.002379446057602763 
vn 0.005991386249661446 -0.0029485393315553665 0.007443744223564863 
vn 0.006476348731666803 -0.007032335735857487 0.0029331014957278967 
vn 0.005441080778837204 -0.00323937414214015 0.00773957371711731 
vn 0.005199067760258913 -0.007737887557595968 0.0036186601500958204 
vn 0.004899455234408379 -0.003445273730903864 0.008007829077541828 
vn 0.003809988498687744 -0.00816146656870842 0.00434446195140481 
vn 0.0042886799201369286 -0.0034862591419368982 0.008333854377269745 
vn 0.0023470844607800245 -0.008261207491159439 0.0051228441298007965 
vn 0.003673537401482463 -0.0033631050027906895 0.008671478368341923 
vn 0.0009596094023436308 -0.008033286780118942 0.005877527873963118 
vn 0.0031326550524681807 -0.003156574908643961 0.008956695906817913 
vn -0.00043408069177530706 -0.007511783391237259 0.006586696021258831 
vn 0.00257399445399642 -0.0028230345342308283 0.009241477586328983 
vn -0.0016659018583595753 -0.006682633887976408 0.007250314112752676 
vn -0.0029104927089065313 -0.008965899236500263 0.0033378975931555033 
vn -0.00437256321310997 -0.007980939000844955 0.004145503509789705 
vn 0.002115085022523999 -0.002358868718147278 0.009484832175076008 
vn 0.0017658509314060211 -0.001803369726985693 0.009676233865320683 
vn 0.0015418757684528828 -0.0011986865429207683 0.00980742834508419 
vn 0.0013360558077692986 -0.0005458960076794028 0.009895293042063713 
vn -0.00274275173433125 -0.0056168497540056705 0.007805651985108852 
vn -0.003562457161024213 -0.004330391995608807 0.008279885165393353 
vn -0.0042127748019993305 -0.002864924492314458 0.008604919537901878 
vn -0.004561026580631733 -0.0012853980297222733 0.008805946446955204 
vn 0.0013550020521506667 0.00015292878379113972 0.009906587190926075 
vn -0.004644736647605896 0.0003276510105933994 0.008849800564348698 
vn 0.0013913377188146114 0.0008074630750343204 0.009869755245745182 
vn -0.004486262332648039 0.0019321551080793142 0.008725831285119057 
vn 0.001577412011101842 0.001458530081436038 0.009766491129994392 
vn -0.003980726469308138 0.0034452839754521847 0.008501984179019928 
vn 0.001929841237142682 0.0020605975296348333 0.009593202732503414 
vn -0.003258679760619998 0.00487334281206131 0.008101322688162327 
vn 0.007015901617705822 0.0018463401356711984 0.006882448215037584 
vn 0.006661641411483288 0.0023588789626955986 0.007075178902596235 
vn 0.0023338559549301863 0.002570604905486107 0.009377898648381233 
vn -0.0023390199057757854 0.006077499594539404 0.007588996086269617 
vn 0.002790342550724745 0.0029902728274464607 0.009125356562435627 
vn -0.0011631733505055308 0.007063339464366436 0.0069825598038733006 
vn 0.00800525862723589 0.0056168558076024055 0.002089670393615961 
vn 0.006922366563230753 0.00668264040723443 0.0027245362289249897 
vn 0.006222425494343042 0.002823044778779149 0.007301489822566509 
vn 0.0056721242144703865 0.007511789444833994 0.003376380307599902 
vn 0.005668518133461475 0.0031565851531922817 0.007609453517943621 
vn 0.004322662949562073 0.008033293299376965 0.0040964242070913315 
vn 0.0033036356326192617 0.0032806911040097475 0.00885002501308918 
vn 0.00009425261669093743 0.007765497080981731 0.006299844477325678 
vn 0.003912287298589945 0.0034452839754521847 0.008533692918717861 
vn 0.0015258636558428407 0.008161472156643867 0.005573328118771315 
vn 0.004488804843276739 0.003486269386485219 0.008227786049246788 
vn 0.002903991611674428 0.008261214010417461 0.004828982520848513 
vn 0.005119508597999811 0.0034042319748550653 0.00788680836558342 
vn 0.002954564057290554 -0.00849946215748787 -0.004362292122095823 
vn 0.002852702047675848 -0.009236699901521206 -0.002558389212936163 
vn -0.0014501214027404785 -0.008805656805634499 -0.00451192120090127 
vn -0.0015142085030674934 -0.009410135447978973 -0.0030259559862315655 
vn 0.0025896623264998198 -0.009635292924940586 -0.00067428924376145 
vn -0.0017390190623700619 -0.009742984548211098 -0.0014317587483674288 
vn 0.0021838180255144835 -0.00968058779835701 0.0012316824868321419 
vn 0.004055108409374952 -0.009133078157901764 -0.0003779914986807853 
vn 0.0036370926536619663 -0.009185675531625748 0.0015475149266421795 
vn 0.0042982264421880245 -0.00874277763068676 -0.002255876548588276 
vn -0.006934474688023329 -0.00668264040723443 -0.0026935695204883814 
vn -0.007007630541920662 -0.006843556649982929 -0.0020146432798355818 
vn -0.0020360397174954414 -0.009789867326617241 0.00011366954277036712 
vn -0.007164865732192993 -0.006843556184321642 -0.0013529127463698387 
vn 0.0016670020995661616 -0.009380202740430832 0.0030385477002710104 
vn 0.0030564547050744295 -0.008887133561074734 0.0034171384759247303 
vn 0.0009586129453964531 -0.008742773905396461 0.004758660215884447 
vn 0.00239950860850513 -0.008236506953835487 0.005138305947184563 
vn -0.007582602556794882 -0.006518532056361437 -0.0001132600154960528 
vn -0.007341948337852955 -0.006747392937541008 -0.0007539452635683119 
vn -0.003089290577918291 -0.009004257619380951 0.003062599804252386 
vn -0.002521888352930546 -0.009535884484648705 0.001645257929340005 
vn 0.001610501087270677 -0.007276503834873438 0.006667733192443848 
vn 0.0002455523354001343 -0.007792945019900799 0.006261756177991629 
vn 0.00239950860850513 -0.008236506953835487 0.005138305947184563 
vn 0.0009586129453964531 -0.008742773905396461 0.004758660215884447 
vn -0.003089290577918291 -0.009004257619380951 0.003062599804252386 
vn -0.003716389648616314 -0.008211650885641575 0.004330950789153576 
vn -0.0005660203751176596 -0.00658454792574048 0.007504880428314209 
vn 0.0008103259606286883 -0.006042733322829008 0.007926450110971928 
vn -0.0014649454969912767 -0.0051380908116698265 0.008453036658465862 
vn -0.00007554281182819977 -0.0045651840046048164 0.008896811865270138 
vn -0.002316246507689357 -0.003486258676275611 0.00908189918845892 
vn -0.0009049598011188209 -0.0029067588038742542 0.009525317698717117 
vn -0.003135129576548934 -0.0017603753367438912 0.00933123379945755 
vn -0.0017454948974773288 -0.0011552964570000768 0.009778467006981373 
vn -0.00382682541385293 0.00002185264565923717 0.009238767437636852 
vn -0.002482640091329813 0.0006331436452455819 0.009666204452514648 
vn -0.00452085118740797 0.001803381135687232 0.0087355375289917 
vn -0.0031325744930654764 0.002443710807710886 0.009176881052553654 
vn -0.005037853494286537 0.0034452835097908974 0.007921487092971802 
vn -0.003701524343341589 0.004132461734116077 0.00831993855535984 
vn -0.0064993370324373245 -0.0031565760727971792 0.006913361605256796 
vn -0.005792468786239624 -0.004604016430675983 0.0067268311977386475 
vn -0.005105320829898119 -0.005972876213490963 0.006185495760291815 
vn -0.004369601607322693 -0.007185966707766056 0.005410024430602789 
vn -0.004058935679495335 0.005652955733239651 0.007181158289313316 
vn -0.005442879628390074 0.004949463065713644 0.006773314438760281 
vn -0.003701524343341589 0.004132461734116077 0.00831993855535984 
vn -0.005037853494286537 0.0034452835097908974 0.007921487092971802 
vn -0.005690785124897957 0.006249526981264353 0.005343995522707701 
vn -0.004353809170424938 0.00693854596465826 0.005735923536121845 
vn -0.005770555697381496 0.00727651035413146 0.0037085041403770447 
vn -0.004386378452181816 0.008007194846868515 0.004079756326973438 
vn -0.005684244446456432 0.00800719391554594 0.0018905370961874723 
vn -0.004286050330847502 0.00874277763068676 0.0022789263166487217 
vn -0.005415905732661486 0.008406081236898899 0.00007528530841227621 
vn -0.00405531469732523 0.009133078157901764 0.0003757743688765913 
vn -0.005014811176806688 0.008453091606497765 -0.001843045698478818 
vn -0.003640854964032769 0.009185675531625748 -0.0015386429149657488 
vn -0.004453322850167751 0.00816146656870842 -0.0036821565590798855 
vn -0.008063257671892643 0.005398046690970659 -0.002417628886178136 
vn -0.008396855555474758 0.005361215211451054 -0.0008661110769025981 
vn -0.007613807450979948 0.00513809360563755 -0.003953464329242706 
vn -0.009689387865364552 -0.0004586264258250594 -0.0024301051162183285 
vn -0.009497549384832382 -0.0005459040403366089 -0.003081969451159239 
vn -0.006934474688023329 -0.00668264040723443 -0.0026935695204883814 
vn -0.006878819316625595 -0.006452016066759825 -0.0033246453385800123 
vn -0.009265029802918434 -0.0007639004616066813 -0.003684517927467823 
vn -0.006914842873811722 -0.006077497266232967 -0.003904985263943672 
vn -0.009004663676023483 -0.0011118928669020534 -0.004204725380986929 
vn -0.0069823116064071655 -0.0056168572045862675 -0.004438262432813644 
vn -0.008685361593961716 -0.00154492340516299 -0.004709317814558744 
vn -0.007132065482437611 -0.005100564565509558 -0.004808099940419197 
vn -0.008391392417252064 -0.0020605947356671095 -0.0050337305292487144 
vn -0.007309050764888525 -0.004487269092351198 -0.005142192356288433 
vn -0.008106913417577744 -0.0026549543254077435 -0.005218154285103083 
vn -0.007565938401967287 -0.0038923360407352448 -0.005254164803773165 
vn -0.007836062461137772 -0.003239382291212678 -0.0053011770360171795 
vn -0.007007630541920662 -0.006843556649982929 -0.0020146432798355818 
vn -0.009832201525568962 -0.000458626018371433 -0.0017656373092904687 
vn -0.009922673925757408 -0.0005895262002013624 -0.001092245103791356 
vn -0.00861275289207697 0.005025202874094248 0.000753514701500535 
vn -0.009951635263860226 -0.0008510006009601057 -0.0004906637477688491 
vn -0.007341948337852955 -0.006747392937541008 -0.0007539452635683119 
vn -0.007582602556794882 -0.006518532056361437 -0.0001132600154960528 
vn -0.007164865732192993 -0.006843556184321642 -0.0013529127463698387 
vn -0.008700667880475521 0.004409001208841801 0.002204328775405884 
vn -0.008619825355708599 0.0035680378787219524 0.0036010670010000467 
vn -0.008432063274085522 0.002486053854227066 0.004766530357301235 
vn -0.009922277182340622 -0.0012420598650351167 0.00007547857967438176 
vn -0.007851872593164444 -0.006181065458804369 0.00037747109308838844 
vn -0.003716389648616314 -0.008211650885641575 0.004330950789153576 
vn -0.004369601607322693 -0.007185966707766056 0.005410024430602789 
vn -0.00813189335167408 -0.005760589148849249 0.0008293847786262631 
vn -0.005105320829898119 -0.005972876213490963 0.006185495760291815 
vn -0.009840323589742184 -0.001674291561357677 0.0006039629806764424 
vn -0.009694620035588741 -0.002231292426586151 0.0010176807409152389 
vn -0.008102263323962688 0.00119869620539248 0.005737283267080784 
vn -0.007631933782249689 -0.00019660584803204983 0.006458706688135862 
vn -0.00452085118740797 0.001803381135687232 0.0087355375289917 
vn -0.00842529907822609 -0.0052501060999929905 0.0012044406030327082 
vn -0.009507439099252224 -0.002823039423674345 0.0012802486307919025 
vn -0.008726256899535656 -0.0046814181841909885 0.001391665544360876 
vn -0.005792468786239624 -0.004604016430675983 0.0067268311977386475 
vn -0.0064993370324373245 -0.0031565760727971792 0.006913361605256796 
vn -0.003089290577918291 -0.009004257619380951 0.003062599804252386 
vn -0.00927247665822506 -0.003445277689024806 0.0014667055802419782 
vn -0.009023728780448437 -0.0040527218952775 0.001465519773773849 
vn -0.007103507407009602 -0.0016742877196520567 0.006836437154561281 
vn -0.00382682541385293 0.00002185264565923717 0.009238767437636852 
vn -0.003135129576548934 -0.0017603753367438912 0.00933123379945755 
vn -0.0030992485117167234 0.008887133561074734 -0.0033783740364015102 
vn -0.004453322850167751 0.00816146656870842 -0.0036821565590798855 
vn -0.003640854964032769 0.009185675531625748 -0.0015386429149657488 
vn -0.005014811176806688 0.008453091606497765 -0.001843045698478818 
vn -0.002390012377873063 0.008236506953835487 -0.0051427301950752735 
vn -0.003787884023040533 0.0075117843225598335 -0.005406008567661047 
vn -0.0030992485117167234 0.008887133561074734 -0.0033783740364015102 
vn -0.004453322850167751 0.00816146656870842 -0.0036821565590798855 
vn -0.007613807450979948 0.00513809360563755 -0.003953464329242706 
vn -0.00706463772803545 0.004604017361998558 -0.005375300534069538 
vn -0.009497549384832382 -0.0005459040403366089 -0.003081969451159239 
vn -0.009265029802918434 -0.0007639004616066813 -0.003684517927467823 
vn -0.006443225312978029 0.0038116846699267626 -0.006629920098930597 
vn -0.009004663676023483 -0.0011118928669020534 -0.004204725380986929 
vn -0.003023238154128194 0.006584548391401768 -0.0068922885693609715 
vn -0.0016415794380009174 0.007276503834873438 -0.006660149432718754 
vn -0.002181760035455227 0.0053612105548381805 -0.008154583163559437 
vn -0.0008278590976260602 0.006042733322829008 -0.0079246386885643 
vn -0.0057068257592618465 0.002781091956421733 -0.0077264211140573025 
vn -0.008685361593961716 -0.00154492340516299 -0.004709317814558744 
vn -0.005001760087907314 0.0015880696009844542 -0.008512363769114017 
vn -0.008391392417252064 -0.0020605947356671095 -0.0050337305292487144 
vn -0.0013719983398914337 0.003892327193170786 -0.00910863745957613 
vn 0.000018860428099287674 0.0045651840046048164 -0.008897112682461739 
vn -0.0005466891452670097 0.0022738578263670206 -0.00972268357872963 
vn 0.0009225995163433254 0.0029067588038742542 -0.009523625485599041 
vn -0.0043088216334581375 0.00019660426187328994 -0.009021935053169727 
vn -0.008106913417577744 -0.0026549543254077435 -0.005218154285103083 
vn -0.00364852836355567 -0.0012420655693858862 -0.00922742672264576 
vn -0.007836062461137772 -0.003239382291212678 -0.0053011770360171795 
vn 0.0002830765151884407 0.0005458959494717419 -0.009981068782508373 
vn 0.0017083361744880676 0.0011552964570000768 -0.009785027243196964 
vn 0.0010171709582209587 -0.0012420660350471735 -0.009870284236967564 
vn 0.002446079393848777 -0.0006331436452455819 -0.009675520472228527 
vn -0.0029719872400164604 -0.0027391058392822742 -0.009146829135715961 
vn -0.007565938401967287 -0.0038923360407352448 -0.005254164803773165 
vn -0.002477779984474182 -0.004211880266666412 -0.008724709041416645 
vn -0.007309050764888525 -0.004487269092351198 -0.005142192356288433 
vn 0.0016900694463402033 -0.0029902730602771044 -0.009391581639647484 
vn 0.0031682755798101425 -0.002443710807710886 -0.009164616465568542 
vn 0.0022231542970985174 -0.0046814242377877235 -0.008552294224500656 
vn 0.003701524343341589 -0.004132461734116077 -0.00831993855535984 
vn 0.0026293741539120674 -0.006181070581078529 -0.00740814721211791 
vn 0.00408074539154768 -0.005652955733239651 -0.007168787065893412 
vn -0.001983012305572629 -0.005580655764788389 -0.008057531900703907 
vn -0.007132065482437611 -0.005100564565509558 -0.004808099940419197 
vn -0.0016856177244335413 -0.00684355990961194 -0.007093959022313356 
vn 0.002849082462489605 -0.007482877001166344 -0.005990756209939718 
vn -0.0015135285211727023 -0.007927987724542618 -0.005903907585889101 
vn 0.002954564057290554 -0.00849946215748787 -0.004362292122095823 
vn -0.0014501214027404785 -0.008805656805634499 -0.00451192120090127 
vn -0.006914842873811722 -0.006077497266232967 -0.003904985263943672 
vn -0.006878819316625595 -0.006452016066759825 -0.0033246453385800123 
vn -0.0015142085030674934 -0.009410135447978973 -0.0030259559862315655 
vn -0.006934474688023329 -0.00668264040723443 -0.0026935695204883814 
vn -0.0069823116064071655 -0.0056168572045862675 -0.004438262432813644 
vn 0.0026293741539120674 -0.006181070581078529 -0.00740814721211791 
vn 0.00408074539154768 -0.005652955733239651 -0.007168787065893412 
vn 0.002849082462489605 -0.007482877001166344 -0.005990756209939718 
vn 0.004344979301095009 -0.00693854596465826 -0.005742615554481745 
vn 0.002954564057290554 -0.00849946215748787 -0.004362292122095823 
vn 0.004405926913022995 -0.008007194846868515 -0.00405863719061017 
vn 0.002852702047675848 -0.009236699901521206 -0.002558389212936163 
vn 0.0042982264421880245 -0.00874277763068676 -0.002255876548588276 
vn 0.004713956266641617 0.00002185238554375246 0.008819186128675938 
vn 0.004713956266641617 0.00002185238554375246 0.008819186128675938 
vn 0.004713956266641617 0.00002185238554375246 0.008819186128675938 
vn 0.004713956266641617 0.00002185238554375246 0.008819186128675938 
vn 0.004713956266641617 0.00002185238554375246 0.008819186128675938 
vn 0.004713956266641617 0.00002185238554375246 0.008819186128675938 
vn 0.004713956266641617 0.00002185238554375246 0.008819186128675938 
vn 0.004713956266641617 0.00002185238554375246 0.008819186128675938 
vn 0.004713956266641617 0.00002185238554375246 0.008819186128675938 
vn 0.004713956266641617 0.00002185238554375246 0.008819186128675938 
vn 0.004713956266641617 0.00002185238554375246 0.008819186128675938 
vn 0.004713956266641617 0.00002185238554375246 0.008819186128675938 
vn 0.004713956266641617 0.00002185238554375246 0.008819186128675938 
vn 0.004713956266641617 0.00002185238554375246 0.008819186128675938 
vn 0.004713956266641617 0.00002185238554375246 0.008819186128675938 
vn 0.004713956266641617 0.00002185238554375246 0.008819186128675938 
vn 0.004713956266641617 0.00002185238554375246 0.008819186128675938 
vn 0.004713956266641617 0.00002185238554375246 0.008819186128675938 
vn 0.004713956266641617 0.00002185238554375246 0.008819186128675938 
vn 0.004713956266641617 0.00002185238554375246 0.008819186128675938 
vn 0.004713956266641617 0.00002185238554375246 0.008819186128675938 
vn 0.004713956266641617 0.00002185238554375246 0.008819186128675938 
vn 0.004713956266641617 0.00002185238554375246 0.008819186128675938 
vn 0.004713956266641617 0.00002185238554375246 0.008819186128675938 
vn 0.004713956266641617 0.00002185238554375246 0.008819186128675938 
vn 0.004713956266641617 0.00002185238554375246 0.008819186128675938 
vn 0.004713956266641617 0.00002185238554375246 0.008819186128675938 
vn 0.004713956266641617 0.00002185238554375246 0.008819186128675938 
vn 0.004713956266641617 0.00002185238554375246 0.008819186128675938 
vn 0.004713956266641617 0.00002185238554375246 0.008819186128675938 
vn 0.004713956266641617 0.00002185238554375246 0.008819186128675938 
vn 0.004713956266641617 0.00002185238554375246 0.008819186128675938 
vn -0.008986408822238445 -0.0038923341780900955 -0.0020234067924320698 
vn -0.008986408822238445 -0.0038923341780900955 -0.0020234067924320698 
vn -0.008986408822238445 -0.0038923341780900955 -0.0020234067924320698 
vn -0.008986408822238445 -0.0038923341780900955 -0.0020234067924320698 
vn -0.008986408822238445 -0.0038923341780900955 -0.0020234067924320698 
vn -0.008986408822238445 -0.0038923341780900955 -0.0020234067924320698 
vn -0.008986408822238445 -0.0038923341780900955 -0.0020234067924320698 
vn -0.008986408822238445 -0.0038923341780900955 -0.0020234067924320698 
vn -0.008986408822238445 -0.0038923341780900955 -0.0020234067924320698 
vn -0.008986408822238445 -0.0038923341780900955 -0.0020234067924320698 
vn -0.008986408822238445 -0.0038923341780900955 -0.0020234067924320698 
vn -0.008986408822238445 -0.0038923341780900955 -0.0020234067924320698 
vn -0.008986408822238445 -0.0038923341780900955 -0.0020234067924320698 
vn -0.008986408822238445 -0.0038923341780900955 -0.0020234067924320698 
vn -0.008986408822238445 -0.0038923341780900955 -0.0020234067924320698 
vn -0.008986408822238445 -0.0038923341780900955 -0.0020234067924320698 
vn -0.008986408822238445 -0.0038923341780900955 -0.0020234067924320698 
vn -0.008986408822238445 -0.0038923341780900955 -0.0020234067924320698 
vn -0.008986408822238445 -0.0038923341780900955 -0.0020234067924320698 
vn -0.008986408822238445 -0.0038923341780900955 -0.0020234067924320698 
vn -0.008986408822238445 -0.0038923341780900955 -0.0020234067924320698 
vn -0.008986408822238445 -0.0038923341780900955 -0.0020234067924320698 
vn -0.008986408822238445 -0.0038923341780900955 -0.0020234067924320698 
vn -0.008986408822238445 -0.0038923341780900955 -0.0020234067924320698 
vn -0.008986408822238445 -0.0038923341780900955 -0.0020234067924320698 
vn -0.008986408822238445 -0.0038923341780900955 -0.0020234067924320698 
vn -0.008986408822238445 -0.0038923341780900955 -0.0020234067924320698 
vn -0.008986408822238445 -0.0038923341780900955 -0.0020234067924320698 
vn -0.008986408822238445 -0.0038923341780900955 -0.0020234067924320698 
vn -0.008986408822238445 -0.0038923341780900955 -0.0020234067924320698 
vn -0.008986408822238445 -0.0038923341780900955 -0.0020234067924320698 
vn -0.008986408822238445 -0.0038923341780900955 -0.0020234067924320698 
s on 
f 1//1 2//2 3//3 
f 2//2 4//4 3//3 
f 3//3 4//4 5//5 
f 4//4 6//6 5//5 
f 5//5 6//6 7//7 
f 6//6 8//8 7//7 
f 7//7 8//8 9//9 
f 8//8 10//10 9//9 
f 9//9 10//10 11//11 
f 10//10 12//12 11//11 
f 11//11 12//12 13//13 
f 12//12 14//14 13//13 
f 13//13 14//14 15//15 
f 14//14 16//16 15//15 
f 15//15 16//16 17//17 
f 16//16 18//18 17//17 
f 17//17 18//18 19//19 
f 18//18 20//20 19//19 
f 19//19 20//20 21//21 
f 20//20 22//22 21//21 
f 21//21 22//22 23//23 
f 22//22 22//22 23//23 
f 23//23 22//22 24//24 
f 22//22 22//22 24//24 
f 24//24 22//22 25//25 
f 22//22 22//22 25//25 
f 25//25 22//22 26//26 
f 22//22 20//20 26//26 
f 26//26 20//20 27//27 
f 20//20 18//18 27//27 
f 27//27 18//18 28//28 
f 18//18 16//16 28//28 
f 28//28 16//16 29//29 
f 16//16 14//14 29//29 
f 29//29 14//14 30//30 
f 14//14 12//12 30//30 
f 30//30 12//12 31//31 
f 12//12 10//10 31//31 
f 31//31 10//10 32//32 
f 10//10 8//8 32//32 
f 32//32 8//8 33//33 
f 8//8 6//6 33//33 
f 33//33 6//6 34//34 
f 6//6 4//4 34//34 
f 34//34 4//4 35//35 
f 4//4 2//2 35//35 
f 35//35 2//2 36//36 
f 2//2 36//36 36//36 
f 36//36 36//36 37//37 
f 36//36 37//37 37//37 
f 37//37 37//37 38//38 
f 37//37 39//39 38//38 
f 38//38 39//39 38//38 
f 39//39 40//40 38//38 
f 38//38 40//40 41//41 
f 40//40 42//42 41//41 
f 41//41 42//42 43//43 
f 42//42 44//44 43//43 
f 43//43 44//44 45//45 
f 44//44 46//46 45//45 
f 45//45 46//46 45//45 
f 46//46 47//47 45//45 
f 45//45 47//47 45//45 
f 47//47 48//48 45//45 
f 45//45 48//48 45//45 
f 48//48 49//49 45//45 
f 45//45 49//49 43//43 
f 49//49 50//50 43//43 
f 43//43 50//50 41//41 
f 50//50 51//51 41//41 
f 41//41 51//51 38//38 
f 51//51 38//38 38//38 
f 38//38 38//38 46//46 
f 38//38 46//46 46//46 
f 46//46 46//46 47//47 
f 46//46 52//52 47//47 
f 47//47 52//52 53//53 
f 52//52 54//54 53//53 
f 53//53 54//54 54//54 
f 54//54 48//48 54//54 
f 54//54 48//48 48//48 
f 48//48 47//47 48//48 
f 48//48 47//47 55//55 
f 47//47 53//53 55//55 
f 55//55 53//53 56//56 
f 53//53 56//56 56//56 
f 56//56 56//56 57//57 
f 56//56 57//57 57//57 
f 57//57 57//57 58//58 
f 57//57 59//59 58//58 
f 58//58 59//59 60//60 
f 59//59 59//59 60//60 
f 60//60 59//59 61//61 
f 59//59 59//59 61//61 
f 61//61 59//59 62//62 
f 59//59 59//59 62//62 
f 62//62 59//59 63//63 
f 59//59 57//57 63//63 
f 63//63 57//57 63//63 
f 57//57 64//64 63//63 
f 63//63 64//64 65//65 
f 64//64 66//66 65//65 
f 65//65 66//66 67//67 
f 66//66 68//68 67//67 
f 67//67 68//68 69//69 
f 68//68 70//70 69//69 
f 69//69 70//70 71//71 
f 70//70 72//72 71//71 
f 71//71 72//72 73//73 
f 72//72 74//74 73//73 
f 73//73 74//74 75//75 
f 74//74 76//76 75//75 
f 75//75 76//76 77//77 
f 76//76 78//78 77//77 
f 77//77 78//78 79//79 
f 78//78 80//80 79//79 
f 79//79 80//80 80//80 
f 80//80 81//81 80//80 
f 80//80 81//81 81//81 
f 81//81 82//82 81//81 
f 81//81 82//82 79//79 
f 82//82 82//82 79//79 
f 79//79 82//82 77//77 
f 82//82 83//83 77//77 
f 77//77 83//83 75//75 
f 83//83 84//84 75//75 
f 75//75 84//84 73//73 
f 84//84 85//85 73//73 
f 73//73 85//85 71//71 
f 85//85 86//86 71//71 
f 71//71 86//86 69//69 
f 86//86 87//87 69//69 
f 69//69 87//87 67//67 
f 87//87 88//88 67//67 
f 67//67 88//88 65//65 
f 88//88 89//89 65//65 
f 65//65 89//89 63//63 
f 89//89 62//62 63//63 
f 63//63 62//62 62//62 
f 62//62 90//90 62//62 
f 62//62 90//90 90//90 
f 90//90 91//91 90//90 
f 90//90 91//91 92//92 
f 91//91 91//91 92//92 
f 92//92 91//91 93//93 
f 91//91 91//91 93//93 
f 93//93 91//91 94//94 
f 91//91 91//91 94//94 
f 94//94 91//91 95//95 
f 91//91 91//91 95//95 
f 95//95 91//91 96//96 
f 91//91 90//90 96//96 
f 96//96 90//90 96//96 
f 90//90 97//97 96//96 
f 96//96 97//97 98//98 
f 97//97 99//99 98//98 
f 98//98 99//99 100//100 
f 99//99 101//101 100//100 
f 100//100 101//101 102//102 
f 101//101 103//103 102//102 
f 102//102 103//103 103//103 
f 103//103 104//104 103//103 
f 103//103 104//104 104//104 
f 104//104 105//105 104//104 
f 104//104 105//105 102//102 
f 105//105 105//105 102//102 
f 102//102 105//105 100//100 
f 105//105 106//106 100//100 
f 100//100 106//106 98//98 
f 106//106 107//107 98//98 
f 98//98 107//107 96//96 
f 107//107 95//95 96//96 
f 96//96 95//95 95//95 
f 95//95 108//108 95//95 
f 95//95 108//108 108//108 
f 108//108 109//109 108//108 
f 108//108 109//109 110//110 
f 109//109 111//111 110//110 
f 110//110 111//111 111//111 
f 111//111 109//109 111//111 
f 111//111 109//109 109//109 
f 109//109 108//108 109//109 
f 109//109 108//108 112//112 
f 108//108 113//113 112//112 
f 112//112 113//113 114//114 
f 113//113 115//115 114//114 
f 114//114 115//115 116//116 
f 115//115 117//117 116//116 
f 116//116 117//117 118//118 
f 117//117 119//119 118//118 
f 118//118 119//119 120//120 
f 119//119 121//121 120//120 
f 120//120 121//121 122//122 
f 121//121 123//123 122//122 
f 122//122 123//123 124//124 
f 123//123 125//125 124//124 
f 124//124 125//125 126//126 
f 125//125 127//127 126//126 
f 126//126 127//127 128//128 
f 127//127 129//129 128//128 
f 128//128 129//129 130//130 
f 129//129 131//131 130//130 
f 130//130 131//131 132//132 
f 131//131 133//133 132//132 
f 132//132 133//133 134//134 
f 133//133 135//135 134//134 
f 134//134 135//135 134//134 
f 135//135 136//136 134//134 
f 134//134 136//136 137//137 
f 136//136 138//138 137//137 
f 137//137 138//138 138//138 
f 138//138 129//129 138//138 
f 138//138 129//129 129//129 
f 129//129 127//127 129//129 
f 129//129 127//127 131//131 
f 127//127 125//125 131//131 
f 131//131 125//125 133//133 
f 125//125 123//123 133//133 
f 133//133 123//123 135//135 
f 123//123 121//121 135//135 
f 135//135 121//121 139//139 
f 121//121 119//119 139//139 
f 139//139 119//119 140//140 
f 119//119 117//117 140//140 
f 140//140 117//117 141//141 
f 117//117 115//115 141//141 
f 141//141 115//115 142//142 
f 115//115 113//113 142//142 
f 142//142 113//113 113//113 
f 113//113 135//135 113//113 
f 113//113 135//135 135//135 
f 135//135 139//139 135//135 
f 135//135 139//139 136//136 
f 139//139 139//139 136//136 
f 136//136 139//139 143//143 
f 139//139 140//140 143//143 
f 143//143 140//140 144//144 
f 140//140 141//141 144//144 
f 144//144 141//141 145//145 
f 141//141 142//142 145//145 
f 145//145 142//142 146//146 
f 142//142 147//147 146//146 
f 146//146 147//147 148//148 
f 147//147 149//149 148//148 
f 148//148 149//149 150//150 
f 149//149 151//151 150//150 
f 150//150 151//151 152//152 
f 151//151 153//153 152//152 
f 152//152 153//153 154//154 
f 153//153 154//154 154//154 
f 154//154 154//154 142//142 
f 154//154 142//142 142//142 
f 142//142 142//142 147//147 
f 142//142 113//113 147//147 
f 147//147 113//113 147//147 
f 113//113 108//108 147//147 
f 147//147 108//108 149//149 
f 108//108 110//110 149//149 
f 149//149 110//110 151//151 
f 110//110 155//155 151//151 
f 151//151 155//155 153//153 
f 155//155 156//156 153//153 
f 153//153 156//156 153//153 
f 156//156 157//157 153//153 
f 153//153 157//157 154//154 
f 157//157 157//157 154//154 
f 154//154 157//157 158//158 
f 157//157 159//159 158//158 
f 158//158 159//159 160//160 
f 159//159 160//160 160//160 
f 160//160 160//160 110//110 
f 160//160 110//110 110//110 
f 110//110 110//110 155//155 
f 110//110 111//111 155//155 
f 155//155 111//111 155//155 
f 111//111 161//161 155//155 
f 155//155 161//161 156//156 
f 161//161 162//162 156//156 
f 156//156 162//162 163//163 
f 162//162 164//164 163//163 
f 163//163 164//164 165//165 
f 164//164 166//166 165//165 
f 165//165 166//166 166//166 
f 166//166 156//156 166//166 
f 166//166 156//156 156//156 
f 156//156 163//163 156//156 
f 156//156 163//163 157//157 
f 163//163 163//163 157//157 
f 157//157 163//163 159//159 
f 163//163 165//165 159//159 
f 159//159 165//165 159//159 
f 165//165 167//167 159//159 
f 159//159 167//167 160//160 
f 167//167 167//167 160//160 
f 160//160 167//167 168//168 
f 167//167 169//169 168//168 
f 168//168 169//169 170//170 
f 169//169 171//171 170//170 
f 170//170 171//171 172//172 
f 171//171 173//173 172//172 
f 172//172 173//173 166//166 
f 173//173 173//173 166//166 
f 166//166 173//173 165//165 
f 173//173 173//173 165//165 
f 165//165 173//173 167//167 
f 173//173 173//173 167//167 
f 167//167 173//173 169//169 
f 173//173 171//171 169//169 
f 169//169 171//171 171//171 
f 171//171 174//174 171//171 
f 171//171 174//174 174//174 
f 174//174 175//175 174//174 
f 174//174 175//175 176//176 
f 175//175 175//175 176//176 
f 176//176 175//175 177//177 
f 175//175 178//178 177//177 
f 177//177 178//178 179//179 
f 178//178 178//178 179//179 
f 179//179 178//178 180//180 
f 178//178 181//181 180//180 
f 180//180 181//181 182//182 
f 181//181 182//182 182//182 
f 182//182 182//182 181//181 
f 182//182 181//181 181//181 
f 181//181 181//181 183//183 
f 181//181 178//178 183//183 
f 183//183 178//178 175//175 
f 178//178 175//175 175//175 
f 175//175 175//175 177//177 
f 175//175 177//177 177//177 
f 177//177 177//177 184//184 
f 177//177 179//179 184//184 
f 184//184 179//179 185//185 
f 179//179 186//186 185//185 
f 185//185 186//186 187//187 
f 186//186 187//187 187//187 
f 187//187 187//187 179//179 
f 187//187 179//179 179//179 
f 179//179 179//179 186//186 
f 179//179 180//180 186//186 
f 186//186 180//180 188//188 
f 180//180 182//182 188//188 
f 188//188 182//182 188//188 
f 182//182 189//189 188//188 
f 188//188 189//189 190//190 
f 189//189 191//191 190//190 
f 190//190 191//191 191//191 
f 191//191 192//192 191//191 
f 191//191 192//192 192//192 
f 192//192 193//193 192//192 
f 192//192 193//193 194//194 
f 193//193 195//195 194//194 
f 194//194 195//195 190//190 
f 195//195 195//195 190//190 
f 190//190 195//195 188//188 
f 195//195 195//195 188//188 
f 188//188 195//195 186//186 
f 195//195 195//195 186//186 
f 186//186 195//195 187//187 
f 195//195 193//193 187//187 
f 187//187 193//193 193//193 
f 193//193 196//196 193//193 
f 193//193 196//196 196//196 
f 196//196 197//197 196//196 
f 196//196 197//197 198//198 
f 197//197 197//197 198//198 
f 198//198 197//197 199//199 
f 197//197 197//197 199//199 
f 199//199 197//197 200//200 
f 197//197 197//197 200//200 
f 200//200 197//197 201//201 
f 197//197 197//197 201//201 
f 201//201 197//197 202//202 
f 197//197 196//196 202//202 
f 202//202 196//196 202//202 
f 196//196 203//203 202//202 
f 202//202 203//203 204//204 
f 203//203 205//205 204//204 
f 204//204 205//205 206//206 
f 205//205 207//207 206//206 
f 206//206 207//207 208//208 
f 207//207 209//209 208//208 
f 208//208 209//209 210//210 
f 209//209 211//211 210//210 
f 210//210 211//211 212//212 
f 211//211 213//213 212//212 
f 212//212 213//213 214//214 
f 213//213 215//215 214//214 
f 214//214 215//215 215//215 
f 215//215 216//216 215//215 
f 215//215 216//216 216//216 
f 216//216 217//217 216//216 
f 216//216 217//217 208//208 
f 217//217 217//217 208//208 
f 208//208 217//217 206//206 
f 217//217 218//218 206//206 
f 206//206 218//218 204//204 
f 218//218 219//219 204//204 
f 204//204 219//219 202//202 
f 219//219 201//201 202//202 
f 202//202 201//201 201//201 
f 201//201 220//220 201//201 
f 201//201 220//220 220//220 
f 220//220 221//221 220//220 
f 220//220 221//221 222//222 
f 221//221 223//223 222//222 
f 222//222 223//223 223//223 
f 223//223 221//221 223//223 
f 223//223 221//221 221//221 
f 221//221 220//220 221//221 
f 221//221 220//220 224//224 
f 220//220 225//225 224//224 
f 224//224 225//225 226//226 
f 225//225 227//227 226//226 
f 226//226 227//227 228//228 
f 227//227 229//229 228//228 
f 228//228 229//229 230//230 
f 229//229 231//231 230//230 
f 230//230 231//231 232//232 
f 231//231 233//233 232//232 
f 232//232 233//233 233//233 
f 233//233 234//234 233//233 
f 233//233 234//234 234//234 
f 234//234 235//235 234//234 
f 234//234 235//235 232//232 
f 235//235 236//236 232//232 
f 232//232 236//236 230//230 
f 236//236 230//230 230//230 
f 230//230 230//230 234//234 
f 230//230 234//234 234//234 
f 234//234 234//234 235//235 
f 234//234 237//237 235//235 
f 235//235 237//237 238//238 
f 237//237 239//239 238//238 
f 238//238 239//239 240//240 
f 239//239 239//239 240//240 
f 240//240 239//239 241//241 
f 239//239 242//242 241//241 
f 241//241 242//242 243//243 
f 242//242 244//244 243//243 
f 243//243 244//244 245//245 
f 244//244 246//246 245//245 
f 245//245 246//246 247//247 
f 246//246 248//248 247//247 
f 247//247 248//248 249//249 
f 248//248 250//250 249//249 
f 249//249 250//250 251//251 
f 250//250 252//252 251//251 
f 251//251 252//252 252//252 
f 252//252 240//240 252//252 
f 252//252 240//240 240//240 
f 240//240 253//253 240//240 
f 240//240 253//253 238//238 
f 253//253 254//254 238//238 
f 238//238 254//254 235//235 
f 254//254 254//254 235//235 
f 235//235 254//254 236//236 
f 254//254 255//255 236//236 
f 236//236 255//255 256//256 
f 255//255 255//255 256//256 
f 256//256 255//255 257//257 
f 255//255 258//258 257//257 
f 257//257 258//258 259//259 
f 258//258 259//259 259//259 
f 259//259 259//259 253//253 
f 259//259 253//253 253//253 
f 253//253 253//253 254//254 
f 253//253 260//260 254//254 
f 254//254 260//260 255//255 
f 260//260 258//258 255//255 
f 255//255 258//258 258//258 
f 258//258 236//236 258//258 
f 258//258 236//236 236//236 
f 236//236 256//256 236//236 
f 236//236 256//256 230//230 
f 256//256 256//256 230//230 
f 230//230 256//256 228//228 
f 256//256 261//261 228//228 
f 228//228 261//261 226//226 
f 261//261 262//262 226//226 
f 226//226 262//262 224//224 
f 262//262 263//263 224//224 
f 224//224 263//263 221//221 
f 263//263 221//221 221//221 
f 221//221 221//221 256//256 
f 221//221 256//256 256//256 
f 256//256 256//256 261//261 
f 256//256 257//257 261//261 
f 261//261 257//257 264//264 
f 257//257 259//259 264//264 
f 264//264 259//259 265//265 
f 259//259 266//266 265//265 
f 265//265 266//266 265//265 
f 266//266 267//267 265//265 
f 265//265 267//267 268//268 
f 267//267 269//269 268//268 
f 268//268 269//269 269//269 
f 269//269 261//261 269//269 
f 269//269 261//261 261//261 
f 261//261 264//264 261//261 
f 261//261 264//264 262//262 
f 264//264 270//270 262//262 
f 262//262 270//270 263//263 
f 270//270 271//271 263//263 
f 263//263 271//271 263//263 
f 271//271 272//272 263//263 
f 263//263 272//272 221//221 
f 272//272 272//272 221//221 
f 221//221 272//272 223//223 
f 272//272 273//273 223//223 
f 223//223 273//273 274//274 
f 273//273 274//274 274//274 
f 274//274 274//274 264//264 
f 274//274 264//264 264//264 
f 264//264 264//264 270//270 
f 264//264 265//265 270//270 
f 270//270 265//265 270//270 
f 265//265 268//268 270//270 
f 270//270 268//268 271//271 
f 268//268 275//275 271//271 
f 271//271 275//275 276//276 
f 275//275 275//275 276//276 
f 276//276 275//275 277//277 
f 275//275 278//278 277//277 
f 277//277 278//278 279//279 
f 278//278 279//279 279//279 
f 279//279 279//279 266//266 
f 279//279 266//266 266//266 
f 266//266 266//266 280//280 
f 266//266 259//259 280//280 
f 280//280 259//259 259//259 
f 259//259 271//271 259//259 
f 259//259 271//271 271//271 
f 271//271 276//276 271//271 
f 271//271 276//276 272//272 
f 276//276 276//276 272//272 
f 272//272 276//276 273//273 
f 276//276 276//276 273//273 
f 273//273 276//276 281//281 
f 276//276 277//277 281//281 
f 281//281 277//277 282//282 
f 277//277 279//279 282//282 
f 282//282 279//279 283//283 
f 279//279 284//284 283//283 
f 283//283 284//284 283//283 
f 284//284 274//274 283//283 
f 283//283 274//274 283//283 
f 274//274 273//273 283//283 
f 283//283 273//273 283//283 
f 273//273 281//281 283//283 
f 283//283 281//281 282//282 
f 281//281 282//282 282//282 
f 282//282 282//282 268//268 
f 282//282 268//268 268//268 
f 268//268 268//268 275//275 
f 268//268 269//269 275//275 
f 275//275 269//269 278//278 
f 269//269 278//278 278//278 
f 278//278 278//278 284//284 
f 278//278 284//284 284//284 
f 284//284 284//284 285//285 
f 284//284 279//279 285//285 
f 285//285 279//279 279//279 
f 279//279 286//286 279//279 
f 279//279 286//286 286//286 
f 286//286 287//287 286//286 
f 286//286 287//287 288//288 
f 287//287 289//289 288//288 
f 288//288 289//289 289//289 
f 289//289 290//290 289//289 
f 289//289 290//290 290//290 
f 290//290 291//291 290//290 
f 290//290 291//291 292//292 
f 291//291 291//291 292//292 
f 292//292 291//291 293//293 
f 291//291 291//291 293//293 
f 293//293 291//291 294//294 
f 291//291 295//295 294//294 
f 294//294 295//295 296//296 
f 295//295 295//295 296//296 
f 296//296 295//295 297//297 
f 295//295 298//298 297//297 
f 297//297 298//298 299//299 
f 298//298 299//299 299//299 
f 299//299 299//299 298//298 
f 299//299 298//298 298//298 
f 298//298 298//298 300//300 
f 298//298 295//295 300//300 
f 300//300 295//295 300//300 
f 295//295 291//291 300//300 
f 300//300 291//291 300//300 
f 291//291 290//290 300//300 
f 300//300 290//290 300//300 
f 290//290 301//301 300//300 
f 300//300 301//301 302//302 
f 301//301 303//303 302//302 
f 302//302 303//303 303//303 
f 303//303 300//300 303//303 
f 303//303 300//300 300//300 
f 300//300 302//302 300//300 
f 300//300 302//302 298//298 
f 302//302 304//304 298//298 
f 298//298 304//304 299//299 
f 304//304 304//304 299//299 
f 299//299 304//304 305//305 
f 304//304 306//306 305//305 
f 305//305 306//306 307//307 
f 306//306 307//307 307//307 
f 307//307 307//307 306//306 
f 307//307 306//306 306//306 
f 306//306 306//306 308//308 
f 306//306 304//304 308//308 
f 308//308 304//304 308//308 
f 304//304 302//302 308//308 
f 308//308 302//302 308//308 
f 302//302 303//303 308//308 
f 308//308 303//303 308//308 
f 303//303 309//309 308//308 
f 308//308 309//309 310//310 
f 309//309 311//311 310//310 
f 310//310 311//311 311//311 
f 311//311 308//308 311//311 
f 311//311 308//308 308//308 
f 308//308 310//310 308//308 
f 308//308 310//310 306//306 
f 310//310 312//312 306//306 
f 306//306 312//312 307//307 
f 312//312 312//312 307//307 
f 307//307 312//312 313//313 
f 312//312 314//314 313//313 
f 313//313 314//314 315//315 
f 314//314 315//315 315//315 
f 315//315 315//315 314//314 
f 315//315 314//314 314//314 
f 314//314 314//314 316//316 
f 314//314 312//312 316//316 
f 316//316 312//312 316//316 
f 312//312 310//310 316//316 
f 316//316 310//310 316//316 
f 310//310 311//311 316//316 
f 316//316 311//311 316//316 
f 311//311 317//317 316//316 
f 316//316 317//317 318//318 
f 317//317 319//319 318//318 
f 318//318 319//319 319//319 
f 319//319 316//316 319//319 
f 319//319 316//316 316//316 
f 316//316 318//318 316//316 
f 316//316 318//318 314//314 
f 318//318 320//320 314//314 
f 314//314 320//320 315//315 
f 320//320 320//320 315//315 
f 315//315 320//320 321//321 
f 320//320 322//322 321//321 
f 321//321 322//322 323//323 
f 322//322 323//323 323//323 
f 323//323 323//323 322//322 
f 323//323 322//322 322//322 
f 322//322 322//322 324//324 
f 322//322 320//320 324//324 
f 324//324 320//320 324//324 
f 320//320 318//318 324//324 
f 324//324 318//318 324//324 
f 318//318 319//319 324//324 
f 324//324 319//319 324//324 
f 319//319 325//325 324//324 
f 324//324 325//325 326//326 
f 325//325 327//327 326//326 
f 326//326 327//327 328//328 
f 327//327 329//329 328//328 
f 328//328 329//329 329//329 
f 329//329 324//324 329//329 
f 329//329 324//324 324//324 
f 324//324 326//326 324//324 
f 324//324 326//326 322//322 
f 326//326 330//330 322//322 
f 322//322 330//330 323//323 
f 330//330 330//330 323//323 
f 323//323 330//330 331//331 
f 330//330 330//330 331//331 
f 331//331 330//330 332//332 
f 330//330 328//328 332//332 
f 332//332 328//328 332//332 
f 328//328 333//333 332//332 
f 332//332 333//333 334//334 
f 333//333 335//335 334//334 
f 334//334 335//335 334//334 
f 335//335 336//336 334//334 
f 334//334 336//336 337//337 
f 336//336 336//336 337//337 
f 337//337 336//336 338//338 
f 336//336 339//339 338//338 
f 338//338 339//339 340//340 
f 339//339 340//340 340//340 
f 340//340 340//340 328//328 
f 340//340 328//328 328//328 
f 328//328 328//328 326//326 
f 328//328 330//330 326//326 
f 326//326 330//330 330//330 
f 330//330 337//337 330//330 
f 330//330 337//337 337//337 
f 337//337 341//341 337//337 
f 337//337 341//341 334//334 
f 341//341 341//341 334//334 
f 334//334 341//341 332//332 
f 341//341 331//331 332//332 
f 332//332 331//331 331//331 
f 331//331 342//342 331//331 
f 331//331 342//342 342//342 
f 342//342 343//343 342//342 
f 342//342 343//343 344//344 
f 343//343 345//345 344//344 
f 344//344 345//345 346//346 
f 345//345 347//347 346//346 
f 346//346 347//347 348//348 
f 347//347 349//349 348//348 
f 348//348 349//349 349//349 
f 349//349 350//350 349//349 
f 349//349 350//350 350//350 
f 350//350 351//351 350//350 
f 350//350 351//351 352//352 
f 351//351 353//353 352//352 
f 352//352 353//353 354//354 
f 353//353 355//355 354//354 
f 354//354 355//355 356//356 
f 355//355 357//357 356//356 
f 356//356 357//357 358//358 
f 357//357 359//359 358//358 
f 358//358 359//359 360//360 
f 359//359 361//361 360//360 
f 360//360 361//361 362//362 
f 361//361 363//363 362//362 
f 362//362 363//363 364//364 
f 363//363 365//365 364//364 
f 364//364 365//365 366//366 
f 365//365 367//367 366//366 
f 366//366 367//367 368//368 
f 367//367 369//369 368//368 
f 368//368 369//369 370//370 
f 369//369 371//371 370//370 
f 370//370 371//371 372//372 
f 371//371 373//373 372//372 
f 372//372 373//373 374//374 
f 373//373 375//375 374//374 
f 374//374 375//375 376//376 
f 375//375 377//377 376//376 
f 376//376 377//377 378//378 
f 377//377 379//379 378//378 
f 378//378 379//379 380//380 
f 379//379 381//381 380//380 
f 380//380 381//381 381//381 
f 381//381 382//382 381//381 
f 381//381 382//382 382//382 
f 382//382 383//383 382//382 
f 382//382 383//383 384//384 
f 383//383 385//385 384//384 
f 384//384 385//385 386//386 
f 385//385 387//387 386//386 
f 386//386 387//387 388//388 
f 387//387 389//389 388//388 
f 388//388 389//389 390//390 
f 389//389 391//391 390//390 
f 390//390 391//391 392//392 
f 391//391 393//393 392//392 
f 392//392 393//393 394//394 
f 393//393 395//395 394//394 
f 394//394 395//395 396//396 
f 395//395 397//397 396//396 
f 396//396 397//397 398//398 
f 397//397 399//399 398//398 
f 398//398 399//399 400//400 
f 399//399 401//401 400//400 
f 400//400 401//401 402//402 
f 401//401 403//403 402//402 
f 402//402 403//403 404//404 
f 403//403 405//405 404//404 
f 404//404 405//405 406//406 
f 405//405 407//407 406//406 
f 406//406 407//407 408//408 
f 407//407 409//409 408//408 
f 408//408 409//409 410//410 
f 409//409 411//411 410//410 
f 410//410 411//411 412//412 
f 411//411 413//413 412//412 

