mtllib model_1.mtl
o model_1
v -169.78509521484375 71.06084442138672 81.04017639160156 
v -169.78509521484375 164.33712768554688 81.04011535644531 
v -169.82553100585938 71.06079864501953 9.67530632019043 
v -169.82553100585938 164.33709716796875 9.675248146057129 
v -169.73117065429688 71.0608901977539 157.14549255371094 
v -169.73117065429688 164.33718872070312 157.1454315185547 
v -169.7716064453125 71.06084442138672 85.7967529296875 
v -169.7716064453125 164.33714294433594 85.79669952392578 
v -169.90643310546875 71.06072998046875 -95.69509887695312 
v -169.90643310546875 164.33702087402344 -95.69515991210938 
v -169.94686889648438 71.0606918334961 -167.04383850097656 
v -169.94686889648438 164.33697509765625 -167.0438995361328 
v -169.8524932861328 71.06078338623047 -19.57364845275879 
v -169.8524932861328 164.33706665039062 -19.573705673217773 
v -169.8929443359375 71.06073760986328 -90.93851470947266 
v -169.8929443359375 164.3370361328125 -90.9385757446289 
v 184.35780334472656 164.33709716796875 9.433387756347656 
v 184.41172790527344 164.33712768554688 80.78213500976562 
v 184.35780334472656 71.06079864501953 9.43344497680664 
v 184.41172790527344 71.06084442138672 80.78218841552734 
v 184.41172790527344 164.33714294433594 85.5387191772461 
v 184.4656524658203 164.33718872070312 156.90357971191406 
v 184.41172790527344 71.06084442138672 85.53877258300781 
v 184.4656524658203 71.0608901977539 156.9036407470703 
v 184.23646545410156 164.5328826904297 -167.2857666015625 
v 184.29039001464844 164.53292846679688 -95.93701934814453 
v 184.23646545410156 71.256591796875 -167.28570556640625 
v 184.29039001464844 71.25663757324219 -95.93695831298828 
v 184.29039001464844 164.53294372558594 -91.18043518066406 
v 184.34432983398438 164.53297424316406 -19.81556510925293 
v 184.29039001464844 71.25663757324219 -91.18037414550781 
v 184.34432983398438 71.25668334960938 -19.815507888793945 
v -148.4709930419922 17.093128204345703 -185.39292907714844 
v -148.4709930419922 142.47227478027344 -185.39300537109375 
v -79.8237075805664 17.093128204345703 -185.44131469726562 
v -79.8237075805664 142.47227478027344 -185.44139099121094 
v -5.7434163093566895 17.093353271484375 177.36505126953125 
v -5.7434163093566895 142.47250366210938 177.36497497558594 
v -74.39070129394531 17.093353271484375 177.3972930908203 
v -74.39070129394531 142.47250366210938 177.397216796875 
v -88.54617309570312 142.47250366210938 177.413330078125 
v -157.19346618652344 142.47250366210938 177.46170043945312 
v -88.54617309570312 17.093353271484375 177.4134063720703 
v -157.19346618652344 17.093353271484375 177.4617919921875 
v 168.71937561035156 61.052711486816406 175.44625854492188 
v 168.71937561035156 163.68133544921875 175.44619750976562 
v 21.677749633789062 61.052711486816406 175.54299926757812 
v 21.677749633789062 163.68133544921875 175.54293823242188 
v 114.02534484863281 230.38247680664062 -188.6178741455078 
v 159.80816650390625 230.38247680664062 -188.65011596679688 
v 114.02534484863281 207.44456481933594 -188.61785888671875 
v 159.80816650390625 207.44456481933594 -188.6501007080078 
vn -0.009999976493418217 0.000021846928575541824 -1.3518943776935632e-11 
vn -0.009999976493418217 0.000021846928575541824 -1.3518943776935632e-11 
vn -0.009999976493418217 0.000021846928575541824 -1.3518943776935632e-11 
vn -0.009999976493418217 0.000021846928575541824 -1.3518943776935632e-11 
vn -0.009999976493418217 0.000021846928575541824 -1.3518943776935632e-11 
vn -0.009999976493418217 0.000021846928575541824 -1.3518943776935632e-11 
vn -0.009999976493418217 0.000021846928575541824 -1.3518943776935632e-11 
vn -0.009999976493418217 0.000021846928575541824 -1.3518943776935632e-11 
vn -0.009999976493418217 0.000021846928575541824 -1.3518943776935632e-11 
vn -0.009999976493418217 0.000021846928575541824 -1.3518943776935632e-11 
vn -0.009999976493418217 0.000021846928575541824 -1.3518943776935632e-11 
vn -0.009999976493418217 0.000021846928575541824 -1.3518943776935632e-11 
vn -0.009999976493418217 0.000021846928575541824 -1.3518943776935632e-11 
vn -0.009999976493418217 0.000021846928575541824 -1.3518943776935632e-11 
vn -0.009999976493418217 0.000021846928575541824 -1.3518943776935632e-11 
vn -0.009999976493418217 0.000021846928575541824 -1.3518943776935632e-11 
vn 0.009999976493418217 -0.000021846928575541824 1.3521011567318997e-11 
vn 0.009999976493418217 -0.000021846928575541824 1.3521011567318997e-11 
vn 0.009999976493418217 -0.000021846928575541824 1.3521011567318997e-11 
vn 0.009999976493418217 -0.000021846928575541824 1.3521011567318997e-11 
vn 0.009999976493418217 0.000021846928575541824 -1.3521011567318997e-11 
vn 0.009999976493418217 0.000021846928575541824 -1.3521011567318997e-11 
vn 0.009999976493418217 0.000021846928575541824 -1.3521011567318997e-11 
vn 0.009999976493418217 0.000021846928575541824 -1.3521011567318997e-11 
vn 0.009999976493418217 0.000021846928575541824 -1.3521011567318997e-11 
vn 0.009999976493418217 0.000021846928575541824 -1.3521011567318997e-11 
vn 0.009999976493418217 0.000021846928575541824 -1.3521011567318997e-11 
vn 0.009999976493418217 0.000021846928575541824 -1.3521011567318997e-11 
vn 0.009999976493418217 0.000021846928575541824 -1.3521011567318997e-11 
vn 0.009999976493418217 0.000021846928575541824 -1.3521011567318997e-11 
vn 0.009999976493418217 0.000021846928575541824 -1.3521011567318997e-11 
vn 0.009999976493418217 0.000021846928575541824 -1.3521011567318997e-11 
vn -1.0341130909078582e-15 0.000021840738554601558 -0.009999969974160194 
vn -1.0341130909078582e-15 0.000021840738554601558 -0.009999969974160194 
vn -1.0341130909078582e-15 0.000021840738554601558 -0.009999969974160194 
vn -1.0341130909078582e-15 0.000021840738554601558 -0.009999969974160194 
vn 3.097898490739357e-15 -0.000021840738554601558 0.009999969974160194 
vn 3.097898490739357e-15 -0.000021840738554601558 0.009999969974160194 
vn 3.097898490739357e-15 -0.000021840738554601558 0.009999969974160194 
vn 3.097898490739357e-15 -0.000021840738554601558 0.009999969974160194 
vn 3.097898490739357e-15 -0.000021840738554601558 0.009999969974160194 
vn 3.097898490739357e-15 -0.000021840738554601558 0.009999969974160194 
vn 3.097898490739357e-15 -0.000021840738554601558 0.009999969974160194 
vn 3.097898490739357e-15 -0.000021840738554601558 0.009999969974160194 
vn 3.097898490739357e-15 0.000021853116777492687 0.009999969974160194 
vn 3.097898490739357e-15 0.000021853116777492687 0.009999969974160194 
vn 3.097898490739357e-15 0.000021853116777492687 0.009999969974160194 
vn 3.097898490739357e-15 0.000021853116777492687 0.009999969974160194 
vn -1.0341130909078582e-15 0.000021840738554601558 -0.009999969974160194 
vn -1.0341130909078582e-15 0.000021840738554601558 -0.009999969974160194 
vn -1.0341130909078582e-15 0.000021840738554601558 -0.009999969974160194 
vn -1.0341130909078582e-15 0.000021840738554601558 -0.009999969974160194 
s on 
f 1//1 2//2 3//3 
f 2//2 4//4 3//3 
f 3//3 4//4 4//4 
f 4//4 5//5 4//4 
f 4//4 5//5 5//5 
f 5//5 6//6 5//5 
f 5//5 6//6 7//7 
f 6//6 8//8 7//7 
f 7//7 8//8 8//8 
f 8//8 9//9 8//8 
f 8//8 9//9 9//9 
f 9//9 10//10 9//9 
f 9//9 10//10 11//11 
f 10//10 12//12 11//11 
f 11//11 12//12 12//12 
f 12//12 13//13 12//12 
f 12//12 13//13 13//13 
f 13//13 14//14 13//13 
f 13//13 14//14 15//15 
f 14//14 16//16 15//15 
f 15//15 16//16 16//16 
f 16//16 17//17 16//16 
f 16//16 17//17 17//17 
f 17//17 18//18 17//17 
f 17//17 18//18 19//19 
f 18//18 20//20 19//19 
f 19//19 20//20 20//20 
f 20//20 21//21 20//20 
f 20//20 21//21 21//21 
f 21//21 22//22 21//21 
f 21//21 22//22 23//23 
f 22//22 24//24 23//23 
f 23//23 24//24 24//24 
f 24//24 25//25 24//24 
f 24//24 25//25 25//25 
f 25//25 26//26 25//25 
f 25//25 26//26 27//27 
f 26//26 28//28 27//27 
f 27//27 28//28 28//28 
f 28//28 29//29 28//28 
f 28//28 29//29 29//29 
f 29//29 30//30 29//29 
f 29//29 30//30 31//31 
f 30//30 32//32 31//31 
f 31//31 32//32 32//32 
f 32//32 33//33 32//32 
f 32//32 33//33 33//33 
f 33//33 34//34 33//33 
f 33//33 34//34 35//35 
f 34//34 36//36 35//35 
f 35//35 36//36 36//36 
f 36//36 37//37 36//36 
f 36//36 37//37 37//37 
f 37//37 38//38 37//37 
f 37//37 38//38 39//39 
f 38//38 40//40 39//39 
f 39//39 40//40 40//40 
f 40//40 41//41 40//40 
f 40//40 41//41 41//41 
f 41//41 42//42 41//41 
f 41//41 42//42 43//43 
f 42//42 44//44 43//43 
f 43//43 44//44 44//44 
f 44//44 45//45 44//44 
f 44//44 45//45 45//45 
f 45//45 46//46 45//45 
f 45//45 46//46 47//47 
f 46//46 48//48 47//47 
f 47//47 48//48 48//48 
f 48//48 49//49 48//48 
f 48//48 49//49 49//49 
f 49//49 50//50 49//49 
f 49//49 50//50 51//51 
f 50//50 52//52 51//51 

