mtllib model_5.mtl
o model_5
usemtl PharmacyMat
v -7.243352890014648 6.636560440063477 16.65340805053711 
v -7.220489978790283 6.624835968017578 16.539093017578125 
v -7.243352890014648 6.624835968017578 16.5367488861084 
v -7.243352890014648 6.590835094451904 16.4241943359375 
v -7.287905693054199 6.590835094451904 16.42829704284668 
v -7.265629291534424 6.624835968017578 16.539093017578125 
v -7.330699920654297 6.590835094451904 16.44178009033203 
v -7.287905693054199 6.624835968017578 16.545541763305664 
v -7.37056303024292 6.590835094451904 16.4628849029541 
v -7.30783748626709 6.624835968017578 16.556093215942383 
v -7.405150413513184 6.590835094451904 16.491609573364258 
v -7.326010227203369 6.624835968017578 16.570749282836914 
v -7.433875560760498 6.590835094451904 16.52619743347168 
v -7.340665817260742 6.624835968017578 16.58892250061035 
v -7.454979419708252 6.590835094451904 16.566059112548828 
v -7.351217746734619 6.624835968017578 16.608854293823242 
v -7.4684624671936035 6.590835094451904 16.608854293823242 
v -7.357666492462158 6.624835968017578 16.63113021850586 
v -7.4725661277771 6.590835094451904 16.65340805053711 
v -7.360011100769043 6.624835968017578 16.65340805053711 
v -7.357666492462158 6.624835968017578 16.67626953125 
v -7.4684624671936035 6.590835094451904 16.698545455932617 
v -7.4725661277771 6.590835094451904 16.65340805053711 
v -7.569879055023193 6.535729885101318 16.718477249145508 
v -7.576327323913574 6.535729885101318 16.65340805053711 
v -7.569879055023193 6.535729885101318 16.58892250061035 
v -7.551119804382324 6.535729885101318 16.52619743347168 
v -7.520050048828125 6.535729885101318 16.468746185302734 
v -7.4790143966674805 6.535729885101318 16.41774559020996 
v -7.428013324737549 6.535729885101318 16.376708984375 
v -7.37056303024292 6.535729885101318 16.345640182495117 
v -7.30783748626709 6.535729885101318 16.326881408691406 
v -7.405150413513184 6.460693359375 16.261810302734375 
v -7.4790143966674805 6.460693359375 16.30108642578125 
v -7.54291296005249 6.460693359375 16.35384750366211 
v -7.595673084259033 6.460693359375 16.41774559020996 
v -7.634949684143066 6.460693359375 16.491609573364258 
v -7.658985137939453 6.460693359375 16.570749282836914 
v -7.667191982269287 6.460693359375 16.65340805053711 
v -7.7422285079956055 6.369828701019287 16.65340805053711 
v -7.732263088226318 6.369828701019287 16.556093215942383 
v -7.7041239738464355 6.369828701019287 16.4628849029541 
v -7.797333717346191 6.266067028045654 16.65340805053711 
v -7.7867817878723145 6.266067028045654 16.545541763305664 
v -7.831334590911865 6.153512001037598 16.65340805053711 
v -7.820196151733398 6.153512001037598 16.768306732177734 
v -7.7867817878723145 6.266067028045654 16.761857986450195 
v -7.7422285079956055 6.369828701019287 16.65340805053711 
v -7.732263088226318 6.369828701019287 16.751306533813477 
v -7.667191982269287 6.460693359375 16.65340805053711 
v -7.658985137939453 6.460693359375 16.736650466918945 
v -7.634949684143066 6.460693359375 16.8157901763916 
v -7.551119804382324 6.535729885101318 16.781204223632812 
v -7.454979419708252 6.590835094451904 16.74134063720703 
v -7.351217746734619 6.624835968017578 16.698545455932617 
v -7.340665817260742 6.624835968017578 16.718477249145508 
v -7.326010227203369 6.624835968017578 16.736650466918945 
v -7.405150413513184 6.590835094451904 16.8157901763916 
v -7.37056303024292 6.590835094451904 16.84451675415039 
v -7.30783748626709 6.624835968017578 16.751306533813477 
v -7.330699920654297 6.590835094451904 16.865619659423828 
v -7.287905693054199 6.624835968017578 16.761857986450195 
v -7.287905693054199 6.590835094451904 16.87910270690918 
v -7.265629291534424 6.624835968017578 16.768306732177734 
v -7.433875560760498 6.590835094451904 16.781204223632812 
v -7.243352890014648 6.590835094451904 16.883207321166992 
v -7.243352890014648 6.624835968017578 16.77065086364746 
v -7.220489978790283 6.624835968017578 16.768306732177734 
v -7.198213577270508 6.624835968017578 16.761857986450195 
v -7.15541934967041 6.590835094451904 16.865619659423828 
v -7.115556240081787 6.590835094451904 16.84451675415039 
v -7.178282260894775 6.624835968017578 16.751306533813477 
v -7.080969333648682 6.590835094451904 16.8157901763916 
v -7.160109043121338 6.624835968017578 16.736650466918945 
v -7.052244186401367 6.590835094451904 16.781204223632812 
v -7.145453453063965 6.624835968017578 16.718477249145508 
v -7.031140327453613 6.590835094451904 16.74134063720703 
v -7.134901523590088 6.624835968017578 16.698545455932617 
v -7.198213577270508 6.590835094451904 16.87910270690918 
v -7.0176568031311035 6.590835094451904 16.698545455932617 
v -7.128453254699707 6.624835968017578 16.67626953125 
v -7.126108169555664 6.624835968017578 16.65340805053711 
v -7.128453254699707 6.624835968017578 16.63113021850586 
v -7.0176568031311035 6.590835094451904 16.608854293823242 
v -7.031140327453613 6.590835094451904 16.566059112548828 
v -7.134901523590088 6.624835968017578 16.608854293823242 
v -7.052244186401367 6.590835094451904 16.52619743347168 
v -7.145453453063965 6.624835968017578 16.58892250061035 
v -7.080969333648682 6.590835094451904 16.491609573364258 
v -7.160109043121338 6.624835968017578 16.570749282836914 
v -7.178282260894775 6.624835968017578 16.556093215942383 
v -7.198213577270508 6.624835968017578 16.545541763305664 
v -7.198213577270508 6.590835094451904 16.42829704284668 
v -7.243352890014648 6.535729885101318 16.320432662963867 
v -7.326010227203369 6.460693359375 16.237775802612305 
v -7.433875560760498 6.369828701019287 16.192636489868164 
v -7.520050048828125 6.369828701019287 16.23894691467285 
v -7.595673084259033 6.369828701019287 16.30108642578125 
v -7.657812595367432 6.369828701019287 16.376708984375 
v -7.755125522613525 6.266067028045654 16.44178009033203 
v -7.820196151733398 6.153512001037598 16.539093017578125 
v -7.843059062957764 6.036267280578613 16.65340805053711 
v -7.831334590911865 6.036267280578613 16.77065086364746 
v -7.797333717346191 6.036267280578613 16.883207321166992 
v -7.7867817878723145 6.153512001037598 16.87910270690918 
v -7.755125522613525 6.266067028045654 16.865619659423828 
v -7.7041239738464355 6.369828701019287 16.84451675415039 
v -7.657812595367432 6.369828701019287 16.93069076538086 
v -7.595673084259033 6.460693359375 16.8896541595459 
v -7.520050048828125 6.535729885101318 16.838653564453125 
v -7.4790143966674805 6.535729885101318 16.8896541595459 
v -7.013553619384766 6.590835094451904 16.65340805053711 
v -7.54291296005249 6.460693359375 16.953554153442383 
v -7.595673084259033 6.369828701019287 17.00631332397461 
v -7.634949684143066 6.266067028045654 17.045589447021484 
v -7.7041239738464355 6.266067028045654 16.961759567260742 
v -7.658985137939453 6.153512001037598 17.069625854492188 
v -7.732263088226318 6.153512001037598 16.980520248413086 
v -7.667191982269287 6.036267280578613 17.07783317565918 
v -7.7422285079956055 6.036267280578613 16.986967086791992 
v -7.732263088226318 5.9196085929870605 16.980520248413086 
v -7.658985137939453 5.9196085929870605 17.069625854492188 
v -7.569879055023193 5.9196085929870605 17.14290428161621 
v -7.576327323913574 6.036267280578613 17.152868270874023 
v -7.569879055023193 6.153512001037598 17.14290428161621 
v -7.551119804382324 6.266067028045654 17.114765167236328 
v -7.520050048828125 6.369828701019287 17.068452835083008 
v -7.4790143966674805 6.460693359375 17.00631332397461 
v -7.428013324737549 6.535729885101318 16.93069076538086 
v -7.37056303024292 6.535729885101318 16.961759567260742 
v -7.405150413513184 6.460693359375 17.045589447021484 
v -7.433875560760498 6.369828701019287 17.114765167236328 
v -7.454979419708252 6.266067028045654 17.1657657623291 
v -7.4684624671936035 6.153512001037598 17.19742202758789 
v -7.4725661277771 6.036267280578613 17.20797348022461 
v -7.4684624671936035 5.9196085929870605 17.19742202758789 
v -7.454979419708252 5.807053565979004 17.1657657623291 
v -7.551119804382324 5.807053565979004 17.114765167236328 
v -7.433875560760498 5.703291893005371 17.114765167236328 
v -7.520050048828125 5.703291893005371 17.068452835083008 
v -7.634949684143066 5.807053565979004 17.045589447021484 
v -7.340665817260742 5.703291893005371 17.14290428161621 
v -7.351217746734619 5.807053565979004 17.19742202758789 
v -7.357666492462158 5.9196085929870605 17.230836868286133 
v -7.360011100769043 6.036267280578613 17.241975784301758 
v -7.357666492462158 6.153512001037598 17.230836868286133 
v -7.351217746734619 6.266067028045654 17.19742202758789 
v -7.340665817260742 6.369828701019287 17.14290428161621 
v -7.326010227203369 6.460693359375 17.069625854492188 
v -7.30783748626709 6.535729885101318 16.980520248413086 
v -7.243352890014648 6.535729885101318 16.986967086791992 
v -7.243352890014648 6.460693359375 17.07783317565918 
v -7.243352890014648 6.369828701019287 17.152868270874023 
v -7.243352890014648 6.266067028045654 17.20797348022461 
v -7.243352890014648 6.153512001037598 17.241975784301758 
v -7.243352890014648 6.036267280578613 17.253700256347656 
v -7.243352890014648 5.9196085929870605 17.241975784301758 
v -7.243352890014648 5.807053565979004 17.20797348022461 
v -7.243352890014648 5.703291893005371 17.152868270874023 
v -7.243352890014648 5.612427234649658 17.07783317565918 
v -7.326010227203369 5.612427234649658 17.069625854492188 
v -7.243352890014648 5.53739070892334 16.986967086791992 
v -7.30783748626709 5.53739070892334 16.980520248413086 
v -7.405150413513184 5.612427234649658 17.045589447021484 
v -7.178282260894775 5.53739070892334 16.980520248413086 
v -7.160109043121338 5.612427234649658 17.069625854492188 
v -7.145453453063965 5.703291893005371 17.14290428161621 
v -7.134901523590088 5.807053565979004 17.19742202758789 
v -7.128453254699707 5.9196085929870605 17.230836868286133 
v -7.126108169555664 6.036267280578613 17.241975784301758 
v -7.128453254699707 6.153512001037598 17.230836868286133 
v -7.134901523590088 6.266067028045654 17.19742202758789 
v -7.145453453063965 6.369828701019287 17.14290428161621 
v -7.160109043121338 6.460693359375 17.069625854492188 
v -7.178282260894775 6.535729885101318 16.980520248413086 
v -7.115556240081787 6.535729885101318 16.961759567260742 
v -7.080969333648682 6.460693359375 17.045589447021484 
v -7.052244186401367 6.369828701019287 17.114765167236328 
v -7.031140327453613 6.266067028045654 17.1657657623291 
v -7.0176568031311035 6.153512001037598 17.19742202758789 
v -7.013553619384766 6.036267280578613 17.20797348022461 
v -7.0176568031311035 5.9196085929870605 17.19742202758789 
v -7.031140327453613 5.807053565979004 17.1657657623291 
v -7.052244186401367 5.703291893005371 17.114765167236328 
v -7.080969333648682 5.612427234649658 17.045589447021484 
v -7.115556240081787 5.53739070892334 16.961759567260742 
v -7.15541934967041 5.482285499572754 16.865619659423828 
v -7.198213577270508 5.482285499572754 16.87910270690918 
v -7.198213577270508 5.44828462600708 16.761857986450195 
v -7.220489978790283 5.44828462600708 16.768306732177734 
v -7.243352890014648 5.482285499572754 16.883207321166992 
v -7.178282260894775 5.44828462600708 16.751306533813477 
v -7.115556240081787 5.482285499572754 16.84451675415039 
v -7.058106422424316 5.53739070892334 16.93069076538086 
v -7.007104873657227 5.612427234649658 17.00631332397461 
v -6.966069221496582 5.703291893005371 17.068452835083008 
v -6.934999465942383 5.807053565979004 17.114765167236328 
v -6.916240215301514 5.9196085929870605 17.14290428161621 
v -6.909791946411133 6.036267280578613 17.152868270874023 
v -6.916240215301514 6.153512001037598 17.14290428161621 
v -6.934999465942383 6.266067028045654 17.114765167236328 
v -6.966069221496582 6.369828701019287 17.068452835083008 
v -7.007104873657227 6.460693359375 17.00631332397461 
v -7.058106422424316 6.535729885101318 16.93069076538086 
v -7.007104873657227 6.535729885101318 16.8896541595459 
v -6.943206787109375 6.460693359375 16.953554153442383 
v -6.890446662902832 6.369828701019287 17.00631332397461 
v -6.851169586181641 6.266067028045654 17.045589447021484 
v -6.827134609222412 6.153512001037598 17.069625854492188 
v -6.81892728805542 6.036267280578613 17.07783317565918 
v -6.827134609222412 5.9196085929870605 17.069625854492188 
v -6.851169586181641 5.807053565979004 17.045589447021484 
v -6.890446662902832 5.703291893005371 17.00631332397461 
v -6.943206787109375 5.612427234649658 16.953554153442383 
v -7.007104873657227 5.53739070892334 16.8896541595459 
v -7.080969333648682 5.482285499572754 16.8157901763916 
v -7.160109043121338 5.44828462600708 16.736650466918945 
v -7.243352890014648 5.436560153961182 16.65340805053711 
v -7.243352890014648 5.44828462600708 16.77065086364746 
v -7.287905693054199 5.482285499572754 16.87910270690918 
v -7.265629291534424 5.44828462600708 16.768306732177734 
v -7.287905693054199 5.44828462600708 16.761857986450195 
v -7.30783748626709 5.44828462600708 16.751306533813477 
v -7.37056303024292 5.482285499572754 16.84451675415039 
v -7.405150413513184 5.482285499572754 16.8157901763916 
v -7.326010227203369 5.44828462600708 16.736650466918945 
v -7.433875560760498 5.482285499572754 16.781204223632812 
v -7.340665817260742 5.44828462600708 16.718477249145508 
v -7.454979419708252 5.482285499572754 16.74134063720703 
v -7.351217746734619 5.44828462600708 16.698545455932617 
v -7.4684624671936035 5.482285499572754 16.698545455932617 
v -7.357666492462158 5.44828462600708 16.67626953125 
v -7.330699920654297 5.482285499572754 16.865619659423828 
v -7.4725661277771 5.482285499572754 16.65340805053711 
v -7.360011100769043 5.44828462600708 16.65340805053711 
v -7.357666492462158 5.44828462600708 16.63113021850586 
v -7.4684624671936035 5.482285499572754 16.608854293823242 
v -7.4725661277771 5.482285499572754 16.65340805053711 
v -7.569879055023193 5.53739070892334 16.58892250061035 
v -7.576327323913574 5.53739070892334 16.65340805053711 
v -7.569879055023193 5.53739070892334 16.718477249145508 
v -7.551119804382324 5.53739070892334 16.781204223632812 
v -7.520050048828125 5.53739070892334 16.838653564453125 
v -7.4790143966674805 5.53739070892334 16.8896541595459 
v -7.428013324737549 5.53739070892334 16.93069076538086 
v -7.37056303024292 5.53739070892334 16.961759567260742 
v -7.4790143966674805 5.612427234649658 17.00631332397461 
v -7.595673084259033 5.703291893005371 17.00631332397461 
v -7.7041239738464355 5.807053565979004 16.961759567260742 
v -7.7867817878723145 5.9196085929870605 16.87910270690918 
v -7.820196151733398 5.9196085929870605 16.768306732177734 
v -7.54291296005249 5.612427234649658 16.953554153442383 
v -7.657812595367432 5.703291893005371 16.93069076538086 
v -7.755125522613525 5.807053565979004 16.865619659423828 
v -7.595673084259033 5.612427234649658 16.8896541595459 
v -7.634949684143066 5.612427234649658 16.8157901763916 
v -7.7041239738464355 5.703291893005371 16.84451675415039 
v -7.7867817878723145 5.807053565979004 16.761857986450195 
v -7.831334590911865 5.9196085929870605 16.65340805053711 
v -7.831334590911865 6.036267280578613 16.5367488861084 
v -7.7867817878723145 6.153512001037598 16.42829704284668 
v -7.7041239738464355 6.266067028045654 16.345640182495117 
v -7.634949684143066 6.266067028045654 16.261810302734375 
v -7.732263088226318 6.153512001037598 16.326881408691406 
v -7.797333717346191 6.036267280578613 16.4241943359375 
v -7.820196151733398 5.9196085929870605 16.539093017578125 
v -7.797333717346191 5.807053565979004 16.65340805053711 
v -7.732263088226318 5.703291893005371 16.751306533813477 
v -7.658985137939453 5.612427234649658 16.736650466918945 
v -7.667191982269287 5.612427234649658 16.65340805053711 
v -7.7422285079956055 5.703291893005371 16.65340805053711 
v -7.7867817878723145 5.807053565979004 16.545541763305664 
v -7.7422285079956055 5.703291893005371 16.65340805053711 
v -7.732263088226318 5.703291893005371 16.556093215942383 
v -7.667191982269287 5.612427234649658 16.65340805053711 
v -7.658985137939453 5.612427234649658 16.570749282836914 
v -7.634949684143066 5.612427234649658 16.491609573364258 
v -7.551119804382324 5.53739070892334 16.52619743347168 
v -7.454979419708252 5.482285499572754 16.566059112548828 
v -7.351217746734619 5.44828462600708 16.608854293823242 
v -7.340665817260742 5.44828462600708 16.58892250061035 
v -7.326010227203369 5.44828462600708 16.570749282836914 
v -7.405150413513184 5.482285499572754 16.491609573364258 
v -7.37056303024292 5.482285499572754 16.4628849029541 
v -7.30783748626709 5.44828462600708 16.556093215942383 
v -7.330699920654297 5.482285499572754 16.44178009033203 
v -7.287905693054199 5.44828462600708 16.545541763305664 
v -7.287905693054199 5.482285499572754 16.42829704284668 
v -7.265629291534424 5.44828462600708 16.539093017578125 
v -7.243352890014648 5.482285499572754 16.4241943359375 
v -7.243352890014648 5.44828462600708 16.5367488861084 
v -7.433875560760498 5.482285499572754 16.52619743347168 
v -7.198213577270508 5.482285499572754 16.42829704284668 
v -7.220489978790283 5.44828462600708 16.539093017578125 
v -7.198213577270508 5.44828462600708 16.545541763305664 
v -7.178282260894775 5.44828462600708 16.556093215942383 
v -7.115556240081787 5.482285499572754 16.4628849029541 
v -7.080969333648682 5.482285499572754 16.491609573364258 
v -7.160109043121338 5.44828462600708 16.570749282836914 
v -7.052244186401367 5.482285499572754 16.52619743347168 
v -7.145453453063965 5.44828462600708 16.58892250061035 
v -7.134901523590088 5.44828462600708 16.608854293823242 
v -7.031140327453613 5.482285499572754 16.566059112548828 
v -6.934999465942383 5.53739070892334 16.52619743347168 
v -6.966069221496582 5.53739070892334 16.468746185302734 
v -7.007104873657227 5.53739070892334 16.41774559020996 
v -7.058106422424316 5.53739070892334 16.376708984375 
v -7.15541934967041 5.482285499572754 16.44178009033203 
v -7.115556240081787 5.53739070892334 16.345640182495117 
v -7.178282260894775 5.53739070892334 16.326881408691406 
v -7.243352890014648 5.53739070892334 16.320432662963867 
v -7.30783748626709 5.53739070892334 16.326881408691406 
v -7.37056303024292 5.53739070892334 16.345640182495117 
v -7.428013324737549 5.53739070892334 16.376708984375 
v -7.4790143966674805 5.53739070892334 16.41774559020996 
v -7.520050048828125 5.53739070892334 16.468746185302734 
v -7.595673084259033 5.612427234649658 16.41774559020996 
v -7.54291296005249 5.612427234649658 16.35384750366211 
v -7.4790143966674805 5.612427234649658 16.30108642578125 
v -7.405150413513184 5.612427234649658 16.261810302734375 
v -7.326010227203369 5.612427234649658 16.237775802612305 
v -7.243352890014648 5.612427234649658 16.229568481445312 
v -7.160109043121338 5.612427234649658 16.237775802612305 
v -7.080969333648682 5.612427234649658 16.261810302734375 
v -7.007104873657227 5.612427234649658 16.30108642578125 
v -6.943206787109375 5.612427234649658 16.35384750366211 
v -6.890446662902832 5.612427234649658 16.41774559020996 
v -6.851169586181641 5.612427234649658 16.491609573364258 
v -6.7819952964782715 5.703291893005371 16.4628849029541 
v -6.828307151794434 5.703291893005371 16.376708984375 
v -6.890446662902832 5.703291893005371 16.30108642578125 
v -6.966069221496582 5.703291893005371 16.23894691467285 
v -7.052244186401367 5.703291893005371 16.192636489868164 
v -7.145453453063965 5.703291893005371 16.16449737548828 
v -7.243352890014648 5.703291893005371 16.154531478881836 
v -7.340665817260742 5.703291893005371 16.16449737548828 
v -7.433875560760498 5.703291893005371 16.192636489868164 
v -7.520050048828125 5.703291893005371 16.23894691467285 
v -7.595673084259033 5.703291893005371 16.30108642578125 
v -7.657812595367432 5.703291893005371 16.376708984375 
v -7.7041239738464355 5.703291893005371 16.4628849029541 
v -7.755125522613525 5.807053565979004 16.44178009033203 
v -7.7867817878723145 5.9196085929870605 16.42829704284668 
v -7.7422285079956055 6.036267280578613 16.320432662963867 
v -7.658985137939453 6.153512001037598 16.237775802612305 
v -7.551119804382324 6.266067028045654 16.192636489868164 
v -7.454979419708252 6.266067028045654 16.141633987426758 
v -7.569879055023193 6.153512001037598 16.16449737548828 
v -7.667191982269287 6.036267280578613 16.229568481445312 
v -7.732263088226318 5.9196085929870605 16.326881408691406 
v -7.7041239738464355 5.807053565979004 16.345640182495117 
v -7.634949684143066 5.807053565979004 16.261810302734375 
v -7.658985137939453 5.9196085929870605 16.237775802612305 
v -7.576327323913574 6.036267280578613 16.154531478881836 
v -7.4684624671936035 6.153512001037598 16.10997772216797 
v -7.351217746734619 6.266067028045654 16.10997772216797 
v -7.340665817260742 6.369828701019287 16.16449737548828 
v -7.243352890014648 6.460693359375 16.229568481445312 
v -7.178282260894775 6.535729885101318 16.326881408691406 
v -7.15541934967041 6.590835094451904 16.44178009033203 
v -7.115556240081787 6.590835094451904 16.4628849029541 
v -7.058106422424316 6.535729885101318 16.376708984375 
v -7.115556240081787 6.535729885101318 16.345640182495117 
v -7.160109043121338 6.460693359375 16.237775802612305 
v -7.243352890014648 6.369828701019287 16.154531478881836 
v -7.243352890014648 6.266067028045654 16.09942626953125 
v -7.145453453063965 6.369828701019287 16.16449737548828 
v -7.080969333648682 6.460693359375 16.261810302734375 
v -7.007104873657227 6.460693359375 16.30108642578125 
v -7.052244186401367 6.369828701019287 16.192636489868164 
v -7.134901523590088 6.266067028045654 16.10997772216797 
v -7.243352890014648 6.153512001037598 16.065425872802734 
v -7.357666492462158 6.153512001037598 16.076562881469727 
v -7.4725661277771 6.036267280578613 16.09942626953125 
v -7.569879055023193 5.9196085929870605 16.16449737548828 
v -7.551119804382324 5.807053565979004 16.192636489868164 
v -7.454979419708252 5.807053565979004 16.141633987426758 
v -7.4684624671936035 5.9196085929870605 16.10997772216797 
v -7.360011100769043 6.036267280578613 16.065425872802734 
v -7.242766857147217 6.036267280578613 16.053701400756836 
v -7.128453254699707 6.153512001037598 16.076562881469727 
v -7.031140327453613 6.266067028045654 16.141633987426758 
v -6.966069221496582 6.369828701019287 16.23894691467285 
v -6.943206787109375 6.460693359375 16.35384750366211 
v -7.007104873657227 6.535729885101318 16.41774559020996 
v -6.966069221496582 6.535729885101318 16.468746185302734 
v -6.934999465942383 6.535729885101318 16.52619743347168 
v -6.890446662902832 6.460693359375 16.41774559020996 
v -6.890446662902832 6.369828701019287 16.30108642578125 
v -6.934999465942383 6.266067028045654 16.192636489868164 
v -7.0176568031311035 6.153512001037598 16.10997772216797 
v -7.126108169555664 6.036267280578613 16.065425872802734 
v -7.243352890014648 5.9196085929870605 16.065425872802734 
v -7.357666492462158 5.9196085929870605 16.076562881469727 
v -7.351217746734619 5.807053565979004 16.10997772216797 
v -7.243352890014648 5.807053565979004 16.09942626953125 
v -7.128453254699707 5.9196085929870605 16.076562881469727 
v -7.013553619384766 6.036267280578613 16.09942626953125 
v -6.916240215301514 6.153512001037598 16.16449737548828 
v -6.851169586181641 6.266067028045654 16.261810302734375 
v -6.828307151794434 6.369828701019287 16.376708984375 
v -6.851169586181641 6.460693359375 16.491609573364258 
v -6.916240215301514 6.535729885101318 16.58892250061035 
v -6.909791946411133 6.535729885101318 16.65340805053711 
v -6.827134609222412 6.460693359375 16.570749282836914 
v -6.7819952964782715 6.369828701019287 16.4628849029541 
v -6.7819952964782715 6.266067028045654 16.345640182495117 
v -6.827134609222412 6.153512001037598 16.237775802612305 
v -6.909791946411133 6.036267280578613 16.154531478881836 
v -7.0176568031311035 5.9196085929870605 16.10997772216797 
v -7.134901523590088 5.807053565979004 16.10997772216797 
v -7.031140327453613 5.807053565979004 16.141633987426758 
v -6.916240215301514 5.9196085929870605 16.16449737548828 
v -6.81892728805542 6.036267280578613 16.229568481445312 
v -6.753856658935547 6.153512001037598 16.326881408691406 
v -6.73099422454834 6.266067028045654 16.44178009033203 
v -6.753856658935547 6.369828701019287 16.556093215942383 
v -6.81892728805542 6.460693359375 16.65340805053711 
v -6.916240215301514 6.535729885101318 16.718477249145508 
v -6.934999465942383 6.535729885101318 16.781204223632812 
v -6.827134609222412 6.460693359375 16.736650466918945 
v -6.743890762329102 6.369828701019287 16.65340805053711 
v -6.699337959289551 6.266067028045654 16.545541763305664 
v -6.699337959289551 6.153512001037598 16.42829704284668 
v -6.743890762329102 6.036267280578613 16.320432662963867 
v -6.827134609222412 5.9196085929870605 16.237775802612305 
v -6.934999465942383 5.807053565979004 16.192636489868164 
v -6.851169586181641 5.807053565979004 16.261810302734375 
v -6.753856658935547 5.9196085929870605 16.326881408691406 
v -6.688786029815674 6.036267280578613 16.4241943359375 
v -6.665923118591309 6.153512001037598 16.539093017578125 
v -6.688786029815674 6.266067028045654 16.65340805053711 
v -6.753856658935547 6.369828701019287 16.751306533813477 
v -6.851169586181641 6.460693359375 16.8157901763916 
v -6.966069221496582 6.535729885101318 16.838653564453125 
v -6.890446662902832 6.460693359375 16.8896541595459 
v -6.7819952964782715 6.369828701019287 16.84451675415039 
v -6.699337959289551 6.266067028045654 16.761857986450195 
v -6.65478515625 6.153512001037598 16.65340805053711 
v -6.65478515625 6.036267280578613 16.5367488861084 
v -6.699337959289551 5.9196085929870605 16.42829704284668 
v -6.7819952964782715 5.807053565979004 16.345640182495117 
v -6.73099422454834 5.807053565979004 16.44178009033203 
v -6.665923118591309 5.9196085929870605 16.539093017578125 
v -6.643060684204102 6.036267280578613 16.65340805053711 
v -6.665923118591309 6.153512001037598 16.768306732177734 
v -6.73099422454834 6.266067028045654 16.865619659423828 
v -6.828307151794434 6.369828701019287 16.93069076538086 
v -6.7819952964782715 6.266067028045654 16.961759567260742 
v -6.699337959289551 6.153512001037598 16.87910270690918 
v -6.65478515625 6.036267280578613 16.77065086364746 
v -6.65478515625 5.9196085929870605 16.65340805053711 
v -6.699337959289551 5.807053565979004 16.545541763305664 
v -6.753856658935547 5.703291893005371 16.556093215942383 
v -6.827134609222412 5.612427234649658 16.570749282836914 
v -6.916240215301514 5.53739070892334 16.58892250061035 
v -7.0176568031311035 5.482285499572754 16.608854293823242 
v -7.128453254699707 5.44828462600708 16.63113021850586 
v -7.126108169555664 5.44828462600708 16.65340805053711 
v -7.013553619384766 5.482285499572754 16.65340805053711 
v -6.909791946411133 5.53739070892334 16.65340805053711 
v -6.81892728805542 5.612427234649658 16.65340805053711 
v -6.743890762329102 5.703291893005371 16.65340805053711 
v -6.688786029815674 5.807053565979004 16.65340805053711 
v -6.665923118591309 5.9196085929870605 16.768306732177734 
v -6.688786029815674 6.036267280578613 16.883207321166992 
v -6.753856658935547 6.153512001037598 16.980520248413086 
v -6.743890762329102 6.036267280578613 16.986967086791992 
v -6.699337959289551 5.9196085929870605 16.87910270690918 
v -6.699337959289551 5.807053565979004 16.761857986450195 
v -6.753856658935547 5.703291893005371 16.751306533813477 
v -6.827134609222412 5.612427234649658 16.736650466918945 
v -6.916240215301514 5.53739070892334 16.718477249145508 
v -7.0176568031311035 5.482285499572754 16.698545455932617 
v -7.128453254699707 5.44828462600708 16.67626953125 
v -7.134901523590088 5.44828462600708 16.698545455932617 
v -7.145453453063965 5.44828462600708 16.718477249145508 
v -7.052244186401367 5.482285499572754 16.781204223632812 
v -7.031140327453613 5.482285499572754 16.74134063720703 
v -6.934999465942383 5.53739070892334 16.781204223632812 
v -6.851169586181641 5.612427234649658 16.8157901763916 
v -6.7819952964782715 5.703291893005371 16.84451675415039 
v -6.73099422454834 5.807053565979004 16.865619659423828 
v -6.753856658935547 5.9196085929870605 16.980520248413086 
v -6.7819952964782715 5.807053565979004 16.961759567260742 
v -6.828307151794434 5.703291893005371 16.93069076538086 
v -6.890446662902832 5.612427234649658 16.8896541595459 
v -6.966069221496582 5.53739070892334 16.838653564453125 
vn -1.0341130485562108e-13 0.999997615814209 0.002184694167226553 
vn 0.03773224726319313 0.9795764088630676 -0.1975002884864807 
vn -0.0018877115799114108 0.9794287085533142 -0.2017817199230194 
vn 0.0037778534460812807 0.9211313724517822 -0.3892335295677185 
vn -0.07357124239206314 0.9215733408927917 -0.3811691105365753 
vn -0.03773224726319313 0.9795764088630676 -0.1975002884864807 
vn -0.1485622376203537 0.9222908020019531 -0.3568037748336792 
vn -0.07917960733175278 0.9796126484870911 -0.18463370203971863 
vn -0.21892917156219482 0.9203988909721375 -0.3239381015300751 
vn -0.11306456476449966 0.9793792963027954 -0.16742929816246033 
vn -0.2755664885044098 0.9214316606521606 -0.27391019463539124 
vn -0.14291973412036896 0.9795629978179932 -0.1415284425020218 
vn -0.32398316264152527 0.9214014410972595 -0.21460255980491638 
vn -0.16719859838485718 0.9796333909034729 -0.1111890971660614 
vn -0.3560062348842621 0.9223380088806152 -0.15017375349998474 
vn -0.18386723101139069 0.9799782633781433 -0.0763898640871048 
vn -0.3789486587047577 0.9222594499588013 -0.0763898640871048 
vn -0.19495578110218048 0.980108916759491 -0.03713129088282585 
vn -0.38964858651161194 0.9209610223770142 0.002184694167226553 
vn -0.20249100029468536 0.9792816638946533 0.002184694167226553 
vn -0.19495578110218048 0.980108916759491 0.03713129088282585 
vn -0.3789486587047577 0.9222594499588013 0.0763898640871048 
vn -0.38964858651161194 0.9209610223770142 0.002184694167226553 
vn -0.5503583550453186 0.827491819858551 0.1111890971660614 
vn -0.5618321895599365 0.8272483348846436 0.002184694167226553 
vn -0.5503583550453186 0.827491819858551 -0.1111890971660614 
vn -0.5142614245414734 0.830349862575531 -0.21460255980491638 
vn -0.4641854763031006 0.8291524648666382 -0.31150925159454346 
vn -0.3964731991291046 0.8276394009590149 -0.3972681760787964 
vn -0.308632493019104 0.830176591873169 -0.4642767012119293 
vn -0.21659255027770996 0.8277838230133057 -0.5175535082817078 
vn -0.10925479978322983 0.8274604082107544 -0.5507928133010864 
vn -0.2733288109302521 0.7043121457099915 -0.6551609039306641 
vn -0.39264896512031555 0.7052825689315796 -0.590256929397583 
vn -0.5041975378990173 0.7023232579231262 -0.5025205612182617 
vn -0.5895504951477051 0.7055359482765198 -0.3932546079158783 
vn -0.6571397185325623 0.7038654088973999 -0.26970529556274414 
vn -0.6950585842132568 0.705740213394165 -0.1372016966342926 
vn -0.7124248743057251 0.7017449736595154 0.002184694167226553 
vn -0.8314676284790039 0.5555689334869385 0.002184694167226553 
vn -0.8180978298187256 0.5514597296714783 -0.16312000155448914 
vn -0.7700680494308472 0.5520166158676147 -0.3198012113571167 
vn -0.9238772988319397 0.38268253207206726 0.002184694167226553 
vn -0.9061819314956665 0.3825083076953888 -0.18033768236637115 
vn -0.9807829260826111 0.19508986175060272 0.002184694167226553 
vn -0.9623497724533081 0.19118285179138184 0.19321508705615997 
vn -0.9078272581100464 0.3785867691040039 0.18033768236637115 
vn -0.8314676284790039 0.5555689334869385 0.002184694167226553 
vn -0.8180978298187256 0.5514597296714783 0.16312000155448914 
vn -0.7124248743057251 0.7017449736595154 0.002184694167226553 
vn -0.698416531085968 0.7024173140525818 0.1372016966342926 
vn -0.6550991535186768 0.705764889717102 0.26970529556274414 
vn -0.5142614245414734 0.830349862575531 0.21460255980491638 
vn -0.3560062348842621 0.9223380088806152 0.15017375349998474 
vn -0.18386723101139069 0.9799782633781433 0.0763898640871048 
vn -0.16719859838485718 0.9796333909034729 0.1111890971660614 
vn -0.14291973412036896 0.9795629978179932 0.1415284425020218 
vn -0.27342450618743896 0.9220695495605469 0.27391019463539124 
vn -0.2168211191892624 0.9208977818489075 0.3239381015300751 
vn -0.11105339974164963 0.9796093702316284 0.16742929816246033 
vn -0.14651042222976685 0.9226189851760864 0.3568037748336792 
vn -0.07917960733175278 0.9796126484870911 0.18463370203971863 
vn -0.07911454886198044 0.9211139678955078 0.3811691105365753 
vn -0.03773224726319313 0.9795764088630676 0.1975002884864807 
vn -0.32398316264152527 0.9214014410972595 0.21460255980491638 
vn -0.0018864679150283337 0.9211371541023254 0.3892335295677185 
vn -0.0018877115799114108 0.9794287085533142 0.2017817199230194 
vn 0.03773224726319313 0.9795764088630676 0.1975002884864807 
vn 0.07917960733175278 0.9796126484870911 0.18463370203971863 
vn 0.14651042222976685 0.9226189851760864 0.3568037748336792 
vn 0.2168211191892624 0.9208977818489075 0.3239381015300751 
vn 0.11480109393596649 0.9791772961616516 0.16742929816246033 
vn 0.2770388126373291 0.9209900498390198 0.27391019463539124 
vn 0.14291973412036896 0.9795629978179932 0.1415284425020218 
vn 0.3204202950000763 0.9226465225219727 0.21460255980491638 
vn 0.16347599029541016 0.980261504650116 0.1111890971660614 
vn 0.3595244288444519 0.9209723472595215 0.15017375349998474 
vn 0.18386723101139069 0.9799782633781433 0.0763898640871048 
vn 0.07911454886198044 0.9211139678955078 0.3811691105365753 
vn 0.3789486587047577 0.9222594499588013 0.0763898640871048 
vn 0.19495578110218048 0.980108916759491 0.03713129088282585 
vn 0.20249100029468536 0.9792816638946533 0.002184694167226553 
vn 0.19495578110218048 0.980108916759491 -0.03713129088282585 
vn 0.3789486587047577 0.9222594499588013 -0.0763898640871048 
vn 0.3595244288444519 0.9209723472595215 -0.15017375349998474 
vn 0.18386723101139069 0.9799782633781433 -0.0763898640871048 
vn 0.3204202950000763 0.9226465225219727 -0.21460255980491638 
vn 0.16347599029541016 0.980261504650116 -0.1111890971660614 
vn 0.2755664885044098 0.9214316606521606 -0.27391019463539124 
vn 0.14291973412036896 0.9795629978179932 -0.1415284425020218 
vn 0.11306456476449966 0.9793792963027954 -0.16742929816246033 
vn 0.07917960733175278 0.9796126484870911 -0.18463370203971863 
vn 0.07733552157878876 0.9212650656700134 -0.3811691105365753 
vn 0.0037780797574669123 0.829788327217102 -0.5580654144287109 
vn -0.13525770604610443 0.7042044997215271 -0.6969945430755615 
vn -0.3162229359149933 0.552756667137146 -0.7710143327713013 
vn -0.46111056208610535 0.5531208515167236 -0.6938546895980835 
vn -0.5885381698608398 0.5524667501449585 -0.590256929397583 
vn -0.6946408748626709 0.5494735836982727 -0.4642767012119293 
vn -0.854421079158783 0.3815157115459442 -0.3527185618877411 
vn -0.9615597128868103 0.19511756300926208 -0.19321508705615997 
vn -0.999997615814209 -2.0682260971124217e-13 0.002184694167226553 
vn -0.9811491966247559 0.0037728105671703815 0.19321508705615997 
vn -0.924505352973938 -1.9120906843538704e-13 0.3811691105365753 
vn -0.9062357544898987 0.19108310341835022 0.37712597846984863 
vn -0.8561564087867737 0.3776053786277771 0.3527185618877411 
vn -0.7683013081550598 0.5544729828834534 0.3198012113571167 
vn -0.6927961707115173 0.55179762840271 0.4642767012119293 
vn -0.5932416915893555 0.7024351358413696 0.3932546079158783 
vn -0.4641854763031006 0.8291524648666382 0.31150925159454346 
vn -0.39428621530532837 0.8286834955215454 0.3972681760787964 
vn 0.38964858651161194 0.9209610223770142 0.002184694167226553 
vn -0.5020555853843689 0.7038559913635254 0.5025205612182617 
vn -0.5865713953971863 0.5545545220375061 0.590256929397583 
vn -0.6539583206176758 0.37828919291496277 0.6551609039306641 
vn -0.7682111263275146 0.3819044530391693 0.5138099193572998 
vn -0.6935878396034241 0.1936531960964203 0.6938546895980835 
vn -0.8174682855606079 0.19072793424129486 0.5434780716896057 
vn -0.7078787684440613 -1.4640568759497624e-13 0.7063339352607727 
vn -0.8322188854217529 0.0037727425806224346 0.5544344186782837 
vn -0.8174682855606079 -0.19072793424129486 0.5434780716896057 
vn -0.6935878396034241 -0.1936531960964203 0.6938546895980835 
vn -0.5449713468551636 -0.1921187937259674 0.8161473870277405 
vn -0.5562512278556824 -1.150456140942835e-13 0.8310141563415527 
vn -0.5449713468551636 0.1921187937259674 0.8161473870277405 
vn -0.5152475833892822 0.3799356520175934 0.7682244777679443 
vn -0.4648037850856781 0.5500209927558899 0.6938546895980835 
vn -0.39705389738082886 0.7028121948242188 0.590256929397583 
vn -0.3135276436805725 0.8283402323722839 0.4642767012119293 
vn -0.21447104215621948 0.8283360004425049 0.5175535082817078 
vn -0.27115413546562195 0.7051522135734558 0.6551609039306641 
vn -0.31840890645980835 0.5515003800392151 0.7710143327713013 
vn -0.35441309213638306 0.37972381711006165 0.8545181155204773 
vn -0.3769600987434387 0.19228209555149078 0.9060511589050293 
vn -0.3831879794597626 -7.925212949008026e-14 0.9236704111099243 
vn -0.3769600987434387 -0.19228209555149078 0.9060511589050293 
vn -0.35441309213638306 -0.37972381711006165 0.8545181155204773 
vn -0.5152475833892822 -0.3799356520175934 0.7682244777679443 
vn -0.31840890645980835 -0.5515003800392151 0.7710143327713013 
vn -0.4648037850856781 -0.5500209927558899 0.6938546895980835 
vn -0.6539583206176758 -0.37828919291496277 0.6551609039306641 
vn -0.15983840823173523 -0.555297315120697 0.8161473870277405 
vn -0.17848892509937286 -0.3793082535266876 0.9078915119171143 
vn -0.19153141975402832 -0.1928613930940628 0.962351381778717 
vn -0.19535815715789795 -4.0404579503125135e-14 0.9807319641113281 
vn -0.19153141975402832 0.1928613930940628 0.962351381778717 
vn -0.17848892509937286 0.3793082535266876 0.9078915119171143 
vn -0.15983840823173523 0.555297315120697 0.8161473870277405 
vn -0.1385088562965393 0.7035722732543945 0.6969945430755615 
vn -0.10722800344228745 0.8277254700660706 0.5507928133010864 
vn -0.001886310987174511 0.8297948241233826 0.5580654144287109 
vn -0.0018859856063500047 0.7047832608222961 0.7094202041625977 
vn 0.001882958342321217 0.5526117086410522 0.8334367275238037 
vn 0.001878746203146875 0.3791438043117523 0.9253358840942383 
vn -2.0202289751562567e-14 0.19535815715789795 0.9807319641113281 
vn 0 0 1 
vn 6.069362406321138e-14 -0.19535815715789795 0.9807319641113281 
vn 0.001878746203146875 -0.3791438043117523 0.9253358840942383 
vn 0.001882958342321217 -0.5526117086410522 0.8334367275238037 
vn -0.0018859856063500047 -0.7047832608222961 0.7094202041625977 
vn -0.1385088562965393 -0.7035722732543945 0.6969945430755615 
vn -0.001886310987174511 -0.8297948241233826 0.5580654144287109 
vn -0.10722800344228745 -0.8277254700660706 0.5507928133010864 
vn -0.27115413546562195 -0.7051522135734558 0.6551609039306641 
vn 0.1109684407711029 -0.827232301235199 0.5507928133010864 
vn 0.1385088562965393 -0.7035722732543945 0.6969945430755615 
vn 0.15983840823173523 -0.555297315120697 0.8161473870277405 
vn 0.17848892509937286 -0.3793082535266876 0.9078915119171143 
vn 0.18884404003620148 -0.19549356400966644 0.962351381778717 
vn 0.19535815715789795 0 0.9807319641113281 
vn 0.18884404003620148 0.19549356400966644 0.962351381778717 
vn 0.17848892509937286 0.3793082535266876 0.9078915119171143 
vn 0.15983840823173523 0.555297315120697 0.8161473870277405 
vn 0.1385088562965393 0.7035722732543945 0.6969945430755615 
vn 0.1109684407711029 0.827232301235199 0.5507928133010864 
vn 0.21081919968128204 0.8292729258537292 0.5175535082817078 
vn 0.27467265725135803 0.7037891149520874 0.6551609039306641 
vn 0.3151404559612274 0.5533745288848877 0.7710143327713013 
vn 0.35164874792099 0.3822852075099945 0.8545181155204773 
vn 0.375233918428421 0.1956292688846588 0.9060511589050293 
vn 0.3831879794597626 0 0.9236704111099243 
vn 0.375233918428421 -0.1956292688846588 0.9060511589050293 
vn 0.35164874792099 -0.3822852075099945 0.8545181155204773 
vn 0.3151404559612274 -0.5533745288848877 0.7710143327713013 
vn 0.27467265725135803 -0.7037891149520874 0.6551609039306641 
vn 0.21081919968128204 -0.8292729258537292 0.5175535082817078 
vn 0.14651042222976685 -0.9226189851760864 0.3568037748336792 
vn 0.07911454886198044 -0.9211139678955078 0.3811691105365753 
vn 0.07917960733175278 -0.9796126484870911 0.18463370203971863 
vn 0.03773224726319313 -0.9795764088630676 0.1975002884864807 
vn -0.0018864679150283337 -0.9211371541023254 0.3892335295677185 
vn 0.11480109393596649 -0.9791772961616516 0.16742929816246033 
vn 0.2168211191892624 -0.9208977818489075 0.3239381015300751 
vn 0.3135276436805725 -0.8283402323722839 0.4642767012119293 
vn 0.39705389738082886 -0.7028121948242188 0.590256929397583 
vn 0.4648037850856781 -0.5500209927558899 0.6938546895980835 
vn 0.5152475833892822 -0.3799356520175934 0.7682244777679443 
vn 0.5449713468551636 -0.1921187937259674 0.8161473870277405 
vn 0.5562512278556824 0 0.8310141563415527 
vn 0.5449713468551636 0.1921187937259674 0.8161473870277405 
vn 0.5152475833892822 0.3799356520175934 0.7682244777679443 
vn 0.4648037850856781 0.5500209927558899 0.6938546895980835 
vn 0.39705389738082886 0.7028121948242188 0.590256929397583 
vn 0.3135276436805725 0.8283402323722839 0.4642767012119293 
vn 0.39428621530532837 0.8286834955215454 0.3972681760787964 
vn 0.5020555853843689 0.7038559913635254 0.5025205612182617 
vn 0.5865713953971863 0.5545545220375061 0.590256929397583 
vn 0.6520608067512512 0.38155072927474976 0.6551609039306641 
vn 0.6935878396034241 0.1936531960964203 0.6938546895980835 
vn 0.7078787684440613 0 0.7063339352607727 
vn 0.6935878396034241 -0.1936531960964203 0.6938546895980835 
vn 0.6520608067512512 -0.38155072927474976 0.6551609039306641 
vn 0.5865713953971863 -0.5545545220375061 0.590256929397583 
vn 0.5020555853843689 -0.7038559913635254 0.5025205612182617 
vn 0.39428621530532837 -0.8286834955215454 0.3972681760787964 
vn 0.2770388126373291 -0.9209900498390198 0.27391019463539124 
vn 0.14291973412036896 -0.9795629978179932 0.1415284425020218 
vn 3.097898456858039e-13 -0.999997615814209 0.002184694167226553 
vn -0.0018877115799114108 -0.9794287085533142 0.2017817199230194 
vn -0.07911454886198044 -0.9211139678955078 0.3811691105365753 
vn -0.03773224726319313 -0.9795764088630676 0.1975002884864807 
vn -0.07917960733175278 -0.9796126484870911 0.18463370203971863 
vn -0.11105339974164963 -0.9796093702316284 0.16742929816246033 
vn -0.2168211191892624 -0.9208977818489075 0.3239381015300751 
vn -0.27342450618743896 -0.9220695495605469 0.27391019463539124 
vn -0.14291973412036896 -0.9795629978179932 0.1415284425020218 
vn -0.32398316264152527 -0.9214014410972595 0.21460255980491638 
vn -0.16719859838485718 -0.9796333909034729 0.1111890971660614 
vn -0.3560062348842621 -0.9223380088806152 0.15017375349998474 
vn -0.18386723101139069 -0.9799782633781433 0.0763898640871048 
vn -0.3789486587047577 -0.9222594499588013 0.0763898640871048 
vn -0.19495578110218048 -0.980108916759491 0.03713129088282585 
vn -0.14651042222976685 -0.9226189851760864 0.3568037748336792 
vn -0.38964858651161194 -0.9209610223770142 0.002184694167226553 
vn -0.20249100029468536 -0.9792816638946533 0.002184694167226553 
vn -0.19495578110218048 -0.980108916759491 -0.03713129088282585 
vn -0.3789486587047577 -0.9222594499588013 -0.0763898640871048 
vn -0.38964858651161194 -0.9209610223770142 0.002184694167226553 
vn -0.5503583550453186 -0.827491819858551 -0.1111890971660614 
vn -0.5618321895599365 -0.8272483348846436 0.002184694167226553 
vn -0.5503583550453186 -0.827491819858551 0.1111890971660614 
vn -0.5142614245414734 -0.830349862575531 0.21460255980491638 
vn -0.4641854763031006 -0.8291524648666382 0.31150925159454346 
vn -0.39428621530532837 -0.8286834955215454 0.3972681760787964 
vn -0.3135276436805725 -0.8283402323722839 0.4642767012119293 
vn -0.21447104215621948 -0.8283360004425049 0.5175535082817078 
vn -0.39705389738082886 -0.7028121948242188 0.590256929397583 
vn -0.5865713953971863 -0.5545545220375061 0.590256929397583 
vn -0.7682111263275146 -0.3819044530391693 0.5138099193572998 
vn -0.9062357544898987 -0.19108310341835022 0.37712597846984863 
vn -0.9623497724533081 -0.19118285179138184 0.19321508705615997 
vn -0.5020555853843689 -0.7038559913635254 0.5025205612182617 
vn -0.6927961707115173 -0.55179762840271 0.4642767012119293 
vn -0.8561564087867737 -0.3776053786277771 0.3527185618877411 
vn -0.5932416915893555 -0.7024351358413696 0.3932546079158783 
vn -0.6550991535186768 -0.705764889717102 0.26970529556274414 
vn -0.7683013081550598 -0.5544729828834534 0.3198012113571167 
vn -0.9078272581100464 -0.3785867691040039 0.18033768236637115 
vn -0.9807829260826111 -0.19508986175060272 0.002184694167226553 
vn -0.9811564087867737 -2.0249009717240862e-13 -0.19321508705615997 
vn -0.9062357544898987 0.19108310341835022 -0.37712597846984863 
vn -0.7696393132209778 0.37901800870895386 -0.5138099193572998 
vn -0.6517388820648193 0.38210028409957886 -0.6551609039306641 
vn -0.8165376782417297 0.19467344880104065 -0.5434780716896057 
vn -0.9244976043701172 0.0037768674083054066 -0.3811691105365753 
vn -0.9615597128868103 -0.19511756300926208 -0.19321508705615997 
vn -0.9238772988319397 -0.38268253207206726 0.002184694167226553 
vn -0.8180978298187256 -0.5514597296714783 0.16312000155448914 
vn -0.698416531085968 -0.7024173140525818 0.1372016966342926 
vn -0.7124248743057251 -0.7017449736595154 0.002184694167226553 
vn -0.8314676284790039 -0.5555689334869385 0.002184694167226553 
vn -0.9061819314956665 -0.3825083076953888 -0.18033768236637115 
vn -0.8314676284790039 -0.5555689334869385 0.002184694167226553 
vn -0.8180978298187256 -0.5514597296714783 -0.16312000155448914 
vn -0.7124248743057251 -0.7017449736595154 0.002184694167226553 
vn -0.6950585842132568 -0.705740213394165 -0.1372016966342926 
vn -0.6571397185325623 -0.7038654088973999 -0.26970529556274414 
vn -0.5142614245414734 -0.830349862575531 -0.21460255980491638 
vn -0.3560062348842621 -0.9223380088806152 -0.15017375349998474 
vn -0.18386723101139069 -0.9799782633781433 -0.0763898640871048 
vn -0.16719859838485718 -0.9796333909034729 -0.1111890971660614 
vn -0.14291973412036896 -0.9795629978179932 -0.1415284425020218 
vn -0.2755664885044098 -0.9214316606521606 -0.27391019463539124 
vn -0.21892917156219482 -0.9203988909721375 -0.3239381015300751 
vn -0.11306456476449966 -0.9793792963027954 -0.16742929816246033 
vn -0.1485622376203537 -0.9222908020019531 -0.3568037748336792 
vn -0.07917960733175278 -0.9796126484870911 -0.18463370203971863 
vn -0.07357124239206314 -0.9215733408927917 -0.3811691105365753 
vn -0.03773224726319313 -0.9795764088630676 -0.1975002884864807 
vn 0.0037778534460812807 -0.9211313724517822 -0.3892335295677185 
vn -0.0018877115799114108 -0.9794287085533142 -0.2017817199230194 
vn -0.32398316264152527 -0.9214014410972595 -0.21460255980491638 
vn 0.07733552157878876 -0.9212650656700134 -0.3811691105365753 
vn 0.03773224726319313 -0.9795764088630676 -0.1975002884864807 
vn 0.07917960733175278 -0.9796126484870911 -0.18463370203971863 
vn 0.11306456476449966 -0.9793792963027954 -0.16742929816246033 
vn 0.2152533233165741 -0.9212654829025269 -0.3239381015300751 
vn 0.2755664885044098 -0.9214316606521606 -0.27391019463539124 
vn 0.14291973412036896 -0.9795629978179932 -0.1415284425020218 
vn 0.3204202950000763 -0.9226465225219727 -0.21460255980491638 
vn 0.16347599029541016 -0.980261504650116 -0.1111890971660614 
vn 0.18386723101139069 -0.9799782633781433 -0.0763898640871048 
vn 0.3595244288444519 -0.9209723472595215 -0.15017375349998474 
vn 0.5174662470817566 -0.8283564448356628 -0.21460255980491638 
vn 0.46747493743896484 -0.8273023366928101 -0.31150925159454346 
vn 0.3930620849132538 -0.8292648196220398 -0.3972681760787964 
vn 0.3121684491634369 -0.8288534283638 -0.4642767012119293 
vn 0.14483198523521423 -0.922883927822113 -0.3568037748336792 
vn 0.21659255027770996 -0.8277838230133057 -0.5175535082817078 
vn 0.10925479978322983 -0.8274604082107544 -0.5507928133010864 
vn 0.0037780797574669123 -0.829788327217102 -0.5580654144287109 
vn -0.10925479978322983 -0.8274604082107544 -0.5507928133010864 
vn -0.21659255027770996 -0.8277838230133057 -0.5175535082817078 
vn -0.308632493019104 -0.830176591873169 -0.4642767012119293 
vn -0.3964731991291046 -0.8276394009590149 -0.3972681760787964 
vn -0.4641854763031006 -0.8291524648666382 -0.31150925159454346 
vn -0.5895504951477051 -0.7055359482765198 -0.3932546079158783 
vn -0.5041975378990173 -0.7023232579231262 -0.5025205612182617 
vn -0.39264896512031555 -0.7052825689315796 -0.590256929397583 
vn -0.2733288109302521 -0.7043121457099915 -0.6551609039306641 
vn -0.13525770604610443 -0.7042044997215271 -0.6969945430755615 
vn 0.0037783945444971323 -0.7047756314277649 -0.7094202041625977 
vn 0.13525770604610443 -0.7042044997215271 -0.6969945430755615 
vn 0.2733288109302521 -0.7043121457099915 -0.6551609039306641 
vn 0.39594677090644836 -0.7034364938735962 -0.590256929397583 
vn 0.5011240243911743 -0.7045195698738098 -0.5025205612182617 
vn 0.5924429297447205 -0.7031089663505554 -0.3932546079158783 
vn 0.6543740034103394 -0.7064372897148132 -0.26970529556274414 
vn 0.7700680494308472 -0.5520166158676147 -0.3198012113571167 
vn 0.692292332649231 -0.5524296164512634 -0.4642767012119293 
vn 0.591118335723877 -0.5497052073478699 -0.590256929397583 
vn 0.46400517225265503 -0.5506948828697205 -0.6938546895980835 
vn 0.31949999928474426 -0.5508689880371094 -0.7710143327713013 
vn 0.1641164869070053 -0.5540480017662048 -0.8161473870277405 
vn -0.001891162944957614 -0.5526116490364075 -0.8334367275238037 
vn -0.1641164869070053 -0.5540480017662048 -0.8161473870277405 
vn -0.3162229359149933 -0.552756667137146 -0.7710143327713013 
vn -0.46111056208610535 -0.5531208515167236 -0.6938546895980835 
vn -0.5885381698608398 -0.5524667501449585 -0.590256929397583 
vn -0.6946408748626709 -0.5494735836982727 -0.4642767012119293 
vn -0.7700680494308472 -0.5520166158676147 -0.3198012113571167 
vn -0.854421079158783 -0.3815157115459442 -0.3527185618877411 
vn -0.9062357544898987 -0.19108310341835022 -0.37712597846984863 
vn -0.8322274088859558 -1.721238575931247e-13 -0.5544344186782837 
vn -0.6945074796676636 0.19032858312129974 -0.6938546895980835 
vn -0.5143385529518127 0.3811653256416321 -0.7682244777679443 
vn -0.3564487397670746 0.3778136074542999 -0.8545181155204773 
vn -0.544699490070343 0.19288821518421173 -0.8161473870277405 
vn -0.7078686952590942 0.0037756471429020166 -0.7063339352607727 
vn -0.8165376782417297 -0.19467344880104065 -0.5434780716896057 
vn -0.7696393132209778 -0.37901800870895386 -0.5138099193572998 
vn -0.6517388820648193 -0.38210028409957886 -0.6551609039306641 
vn -0.6945074796676636 -0.19032858312129974 -0.6938546895980835 
vn -0.5562512278556824 -1.150456140942835e-13 -0.8310141563415527 
vn -0.37496650218963623 0.19614139199256897 -0.9060511589050293 
vn -0.18285992741584778 0.3772205114364624 -0.9078915119171143 
vn -0.1641164869070053 0.5540480017662048 -0.8161473870277405 
vn 0.0037783945444971323 0.7047756314277649 -0.7094202041625977 
vn 0.10925479978322983 0.8274604082107544 -0.5507928133010864 
vn 0.14483198523521423 0.922883927822113 -0.3568037748336792 
vn 0.2152533233165741 0.9212654829025269 -0.3239381015300751 
vn 0.3121684491634369 0.8288534283638 -0.4642767012119293 
vn 0.21659255027770996 0.8277838230133057 -0.5175535082817078 
vn 0.13525770604610443 0.7042044997215271 -0.6969945430755615 
vn -0.001891162944957614 0.5526116490364075 -0.8334367275238037 
vn -0.0018906746990978718 0.37914374470710754 -0.9253358840942383 
vn 0.1641164869070053 0.5540480017662048 -0.8161473870277405 
vn 0.2733288109302521 0.7043121457099915 -0.6551609039306641 
vn 0.39594677090644836 0.7034364938735962 -0.590256929397583 
vn 0.31949999928474426 0.5508689880371094 -0.7710143327713013 
vn 0.18285992741584778 0.3772205114364624 -0.9078915119171143 
vn 0.00378825468942523 0.19532142579555511 -0.9807319641113281 
vn -0.19352875649929047 0.19085706770420074 -0.962351381778717 
vn -0.3831879794597626 -7.925212949008026e-14 -0.9236704111099243 
vn -0.544699490070343 -0.19288821518421173 -0.8161473870277405 
vn -0.5143385529518127 -0.3811653256416321 -0.7682244777679443 
vn -0.3564487397670746 -0.3778136074542999 -0.8545181155204773 
vn -0.37496650218963623 -0.19614139199256897 -0.9060511589050293 
vn -0.19535815715789795 -4.0404579503125135e-14 -0.9807319641113281 
vn -2.0682311115474694e-13 0 -1 
vn 0.19352875649929047 0.19085706770420074 -0.962351381778717 
vn 0.3564487397670746 0.3778136074542999 -0.8545181155204773 
vn 0.46400517225265503 0.5506948828697205 -0.6938546895980835 
vn 0.5011240243911743 0.7045195698738098 -0.5025205612182617 
vn 0.3930620849132538 0.8292648196220398 -0.3972681760787964 
vn 0.46747493743896484 0.8273023366928101 -0.31150925159454346 
vn 0.5174662470817566 0.8283564448356628 -0.21460255980491638 
vn 0.5924429297447205 0.7031089663505554 -0.3932546079158783 
vn 0.591118335723877 0.5497052073478699 -0.590256929397583 
vn 0.5143385529518127 0.3811653256416321 -0.7682244777679443 
vn 0.37496650218963623 0.19614139199256897 -0.9060511589050293 
vn 0.19535815715789795 0 -0.9807319641113281 
vn 0.00378825468942523 -0.19532142579555511 -0.9807319641113281 
vn -0.19352875649929047 -0.19085706770420074 -0.962351381778717 
vn -0.18285992741584778 -0.3772205114364624 -0.9078915119171143 
vn -0.0018906746990978718 -0.37914374470710754 -0.9253358840942383 
vn 0.19352875649929047 -0.19085706770420074 -0.962351381778717 
vn 0.3831879794597626 0 -0.9236704111099243 
vn 0.544699490070343 0.19288821518421173 -0.8161473870277405 
vn 0.6517388820648193 0.38210028409957886 -0.6551609039306641 
vn 0.692292332649231 0.5524296164512634 -0.4642767012119293 
vn 0.6543740034103394 0.7064372897148132 -0.26970529556274414 
vn 0.5472109317779541 0.8295764923095703 -0.1111890971660614 
vn 0.5618321895599365 0.8272483348846436 0.002184694167226553 
vn 0.6950585842132568 0.705740213394165 -0.1372016966342926 
vn 0.7700680494308472 0.5520166158676147 -0.3198012113571167 
vn 0.7696393132209778 0.37901800870895386 -0.5138099193572998 
vn 0.693499743938446 0.19396844506263733 -0.6938546895980835 
vn 0.5562512278556824 0 -0.8310141563415527 
vn 0.37496650218963623 -0.19614139199256897 -0.9060511589050293 
vn 0.18285992741584778 -0.3772205114364624 -0.9078915119171143 
vn 0.3564487397670746 -0.3778136074542999 -0.8545181155204773 
vn 0.544699490070343 -0.19288821518421173 -0.8161473870277405 
vn 0.7078787684440613 0 -0.7063339352607727 
vn 0.8165376782417297 0.19467344880104065 -0.5434780716896057 
vn 0.854421079158783 0.3815157115459442 -0.3527185618877411 
vn 0.8159816265106201 0.5545861721038818 -0.16312000155448914 
vn 0.7124248743057251 0.7017449736595154 0.002184694167226553 
vn 0.5472109317779541 0.8295764923095703 0.1111890971660614 
vn 0.5174662470817566 0.8283564448356628 0.21460255980491638 
vn 0.6957366466522217 0.705071747303009 0.1372016966342926 
vn 0.8314676284790039 0.5555689334869385 0.002184694167226553 
vn 0.9061819314956665 0.3825083076953888 -0.18033768236637115 
vn 0.905449628829956 0.19477413594722748 -0.37712597846984863 
vn 0.8322274088859558 0 -0.5544344186782837 
vn 0.693499743938446 -0.19396844506263733 -0.6938546895980835 
vn 0.5143385529518127 -0.3811653256416321 -0.7682244777679443 
vn 0.6517388820648193 -0.38210028409957886 -0.6551609039306641 
vn 0.8165376782417297 -0.19467344880104065 -0.5434780716896057 
vn 0.924505352973938 0 -0.3811691105365753 
vn 0.9615597128868103 0.19511756300926208 -0.19321508705615997 
vn 0.9238772988319397 0.38268253207206726 0.002184694167226553 
vn 0.8159816265106201 0.5545861721038818 0.16312000155448914 
vn 0.6550991535186768 0.705764889717102 0.26970529556274414 
vn 0.46747493743896484 0.8273023366928101 0.31150925159454346 
vn 0.5932416915893555 0.7024351358413696 0.3932546079158783 
vn 0.7705029845237732 0.5514094233512878 0.3198012113571167 
vn 0.9063683748245239 0.3820663094520569 0.18033768236637115 
vn 0.9807829260826111 0.19508986175060272 0.002184694167226553 
vn 0.9811564087867737 0 -0.19321508705615997 
vn 0.905449628829956 -0.19477413594722748 -0.37712597846984863 
vn 0.7696393132209778 -0.37901800870895386 -0.5138099193572998 
vn 0.854421079158783 -0.3815157115459442 -0.3527185618877411 
vn 0.9615597128868103 -0.19511756300926208 -0.19321508705615997 
vn 0.999997615814209 0 0.002184694167226553 
vn 0.9616075158119202 0.19488193094730377 0.19321508705615997 
vn 0.8546265959739685 0.3810550570487976 0.3527185618877411 
vn 0.6927961707115173 0.55179762840271 0.4642767012119293 
vn 0.7698817253112793 0.37852537631988525 0.5138099193572998 
vn 0.905449628829956 0.19477413594722748 0.37712597846984863 
vn 0.9811564087867737 0 0.19321508705615997 
vn 0.9807829260826111 -0.19508986175060272 0.002184694167226553 
vn 0.9061819314956665 -0.3825083076953888 -0.18033768236637115 
vn 0.8159816265106201 -0.5545861721038818 -0.16312000155448914 
vn 0.6950585842132568 -0.705740213394165 -0.1372016966342926 
vn 0.5472109317779541 -0.8295764923095703 -0.1111890971660614 
vn 0.3789486587047577 -0.9222594499588013 -0.0763898640871048 
vn 0.19495578110218048 -0.980108916759491 -0.03713129088282585 
vn 0.20249100029468536 -0.9792816638946533 0.002184694167226553 
vn 0.38964858651161194 -0.9209610223770142 0.002184694167226553 
vn 0.5618321895599365 -0.8272483348846436 0.002184694167226553 
vn 0.7124248743057251 -0.7017449736595154 0.002184694167226553 
vn 0.8314676284790039 -0.5555689334869385 0.002184694167226553 
vn 0.9238772988319397 -0.38268253207206726 0.002184694167226553 
vn 0.9616075158119202 -0.19488193094730377 0.19321508705615997 
vn 0.924505352973938 0 0.3811691105365753 
vn 0.8166028261184692 0.19440002739429474 0.5434780716896057 
vn 0.8322274088859558 0 0.5544344186782837 
vn 0.905449628829956 -0.19477413594722748 0.37712597846984863 
vn 0.9063683748245239 -0.3820663094520569 0.18033768236637115 
vn 0.8159816265106201 -0.5545861721038818 0.16312000155448914 
vn 0.6957366466522217 -0.705071747303009 0.1372016966342926 
vn 0.5472109317779541 -0.8295764923095703 0.1111890971660614 
vn 0.3789486587047577 -0.9222594499588013 0.0763898640871048 
vn 0.19495578110218048 -0.980108916759491 0.03713129088282585 
vn 0.18386723101139069 -0.9799782633781433 0.0763898640871048 
vn 0.16347599029541016 -0.980261504650116 0.1111890971660614 
vn 0.3204202950000763 -0.9226465225219727 0.21460255980491638 
vn 0.3595244288444519 -0.9209723472595215 0.15017375349998474 
vn 0.5174662470817566 -0.8283564448356628 0.21460255980491638 
vn 0.6550991535186768 -0.705764889717102 0.26970529556274414 
vn 0.7705029845237732 -0.5514094233512878 0.3198012113571167 
vn 0.8546265959739685 -0.3810550570487976 0.3527185618877411 
vn 0.8166028261184692 -0.19440002739429474 0.5434780716896057 
vn 0.7698817253112793 -0.37852537631988525 0.5138099193572998 
vn 0.6927961707115173 -0.55179762840271 0.4642767012119293 
vn 0.5932416915893555 -0.7024351358413696 0.3932546079158783 
vn 0.46747493743896484 -0.8273023366928101 0.31150925159454346 
s on 
f 1//1 2//2 3//3 
f 2//2 4//4 3//3 
f 3//3 4//4 3//3 
f 4//4 5//5 3//3 
f 3//3 5//5 6//6 
f 5//5 7//7 6//6 
f 6//6 7//7 8//8 
f 7//7 9//9 8//8 
f 8//8 9//9 10//10 
f 9//9 11//11 10//10 
f 10//10 11//11 12//12 
f 11//11 13//13 12//12 
f 12//12 13//13 14//14 
f 13//13 15//15 14//14 
f 14//14 15//15 16//16 
f 15//15 17//17 16//16 
f 16//16 17//17 16//16 
f 17//17 18//18 16//16 
f 16//16 18//18 16//16 
f 18//18 1//1 16//16 
f 16//16 1//1 14//14 
f 1//1 1//1 14//14 
f 14//14 1//1 12//12 
f 1//1 1//1 12//12 
f 12//12 1//1 10//10 
f 1//1 1//1 10//10 
f 10//10 1//1 8//8 
f 1//1 1//1 8//8 
f 8//8 1//1 6//6 
f 1//1 3//3 6//6 
f 6//6 3//3 3//3 
f 3//3 17//17 3//3 
f 3//3 17//17 17//17 
f 17//17 19//19 17//17 
f 17//17 19//19 18//18 
f 19//19 20//20 18//18 
f 18//18 20//20 1//1 
f 20//20 20//20 1//1 
f 1//1 20//20 21//21 
f 20//20 20//20 21//21 
f 21//21 20//20 22//22 
f 20//20 23//23 22//22 
f 22//22 23//23 24//24 
f 23//23 25//25 24//24 
f 24//24 25//25 25//25 
f 25//25 19//19 25//25 
f 25//25 19//19 19//19 
f 19//19 17//17 19//19 
f 19//19 17//17 25//25 
f 17//17 17//17 25//25 
f 25//25 17//17 26//26 
f 17//17 15//15 26//26 
f 26//26 15//15 27//27 
f 15//15 13//13 27//27 
f 27//27 13//13 28//28 
f 13//13 11//11 28//28 
f 28//28 11//11 29//29 
f 11//11 9//9 29//29 
f 29//29 9//9 30//30 
f 9//9 7//7 30//30 
f 30//30 7//7 31//31 
f 7//7 5//5 31//31 
f 31//31 5//5 32//32 
f 5//5 4//4 32//32 
f 32//32 4//4 4//4 
f 4//4 32//32 4//4 
f 4//4 32//32 32//32 
f 32//32 33//33 32//32 
f 32//32 33//33 31//31 
f 33//33 34//34 31//31 
f 31//31 34//34 30//30 
f 34//34 35//35 30//30 
f 30//30 35//35 29//29 
f 35//35 36//36 29//29 
f 29//29 36//36 28//28 
f 36//36 37//37 28//28 
f 28//28 37//37 27//27 
f 37//37 38//38 27//27 
f 27//27 38//38 26//26 
f 38//38 39//39 26//26 
f 26//26 39//39 25//25 
f 39//39 25//25 25//25 
f 25//25 25//25 39//39 
f 25//25 39//39 39//39 
f 39//39 39//39 40//40 
f 39//39 38//38 40//40 
f 40//40 38//38 41//41 
f 38//38 37//37 41//41 
f 41//41 37//37 42//42 
f 37//37 36//36 42//42 
f 42//42 36//36 36//36 
f 36//36 40//40 36//36 
f 36//36 40//40 40//40 
f 40//40 41//41 40//40 
f 40//40 41//41 43//43 
f 41//41 44//44 43//43 
f 43//43 44//44 43//43 
f 44//44 45//45 43//43 
f 43//43 45//45 43//43 
f 45//45 46//46 43//43 
f 43//43 46//46 43//43 
f 46//46 47//47 43//43 
f 43//43 47//47 48//48 
f 47//47 49//49 48//48 
f 48//48 49//49 50//50 
f 49//49 51//51 50//50 
f 50//50 51//51 25//25 
f 51//51 51//51 25//25 
f 25//25 51//51 24//24 
f 51//51 52//52 24//24 
f 24//24 52//52 24//24 
f 52//52 53//53 24//24 
f 24//24 53//53 22//22 
f 53//53 54//54 22//22 
f 22//22 54//54 21//21 
f 54//54 55//55 21//21 
f 21//21 55//55 1//1 
f 55//55 56//56 1//1 
f 1//1 56//56 57//57 
f 56//56 58//58 57//57 
f 57//57 58//58 57//57 
f 58//58 59//59 57//57 
f 57//57 59//59 60//60 
f 59//59 61//61 60//60 
f 60//60 61//61 62//62 
f 61//61 63//63 62//62 
f 62//62 63//63 62//62 
f 63//63 64//64 62//62 
f 62//62 64//64 62//62 
f 64//64 1//1 62//62 
f 62//62 1//1 60//60 
f 1//1 57//57 60//60 
f 60//60 57//57 57//57 
f 57//57 44//44 57//57 
f 57//57 44//44 44//44 
f 44//44 41//41 44//44 
f 44//44 41//41 42//42 
f 41//41 42//42 42//42 
f 42//42 42//42 54//54 
f 42//42 54//54 54//54 
f 54//54 54//54 55//55 
f 54//54 65//65 55//55 
f 55//55 65//65 56//56 
f 65//65 58//58 56//56 
f 56//56 58//58 58//58 
f 58//58 63//63 58//58 
f 58//58 63//63 63//63 
f 63//63 66//66 63//63 
f 63//63 66//66 64//64 
f 66//66 67//67 64//64 
f 64//64 67//67 1//1 
f 67//67 68//68 1//1 
f 1//1 68//68 69//69 
f 68//68 70//70 69//69 
f 69//69 70//70 69//69 
f 70//70 71//71 69//69 
f 69//69 71//71 72//72 
f 71//71 73//73 72//72 
f 72//72 73//73 74//74 
f 73//73 75//75 74//74 
f 74//74 75//75 76//76 
f 75//75 77//77 76//76 
f 76//76 77//77 76//76 
f 77//77 78//78 76//76 
f 76//76 78//78 76//76 
f 78//78 1//1 76//76 
f 76//76 1//1 74//74 
f 1//1 1//1 74//74 
f 74//74 1//1 72//72 
f 1//1 69//69 72//72 
f 72//72 69//69 69//69 
f 69//69 66//66 69//69 
f 69//69 66//66 66//66 
f 66//66 79//79 66//66 
f 66//66 79//79 67//67 
f 79//79 79//79 67//67 
f 67//67 79//79 68//68 
f 79//79 70//70 68//68 
f 68//68 70//70 70//70 
f 70//70 77//77 70//70 
f 70//70 77//77 77//77 
f 77//77 80//80 77//77 
f 77//77 80//80 78//78 
f 80//80 81//81 78//78 
f 78//78 81//81 1//1 
f 81//81 82//82 1//1 
f 1//1 82//82 83//83 
f 82//82 84//84 83//83 
f 83//83 84//84 83//83 
f 84//84 85//85 83//83 
f 83//83 85//85 86//86 
f 85//85 87//87 86//86 
f 86//86 87//87 88//88 
f 87//87 89//89 88//88 
f 88//88 89//89 88//88 
f 89//89 90//90 88//88 
f 88//88 90//90 1//1 
f 90//90 91//91 1//1 
f 1//1 91//91 1//1 
f 91//91 92//92 1//1 
f 1//1 92//92 2//2 
f 92//92 93//93 2//2 
f 2//2 93//93 4//4 
f 93//93 94//94 4//4 
f 4//4 94//94 32//32 
f 94//94 95//95 32//32 
f 32//32 95//95 33//33 
f 95//95 96//96 33//33 
f 33//33 96//96 33//33 
f 96//96 97//97 33//33 
f 33//33 97//97 34//34 
f 97//97 98//98 34//34 
f 34//34 98//98 35//35 
f 98//98 99//99 35//35 
f 35//35 99//99 36//36 
f 99//99 99//99 36//36 
f 36//36 99//99 42//42 
f 99//99 100//100 42//42 
f 42//42 100//100 44//44 
f 100//100 101//101 44//44 
f 44//44 101//101 45//45 
f 101//101 102//102 45//45 
f 45//45 102//102 45//45 
f 102//102 103//103 45//45 
f 45//45 103//103 46//46 
f 103//103 104//104 46//46 
f 46//46 104//104 46//46 
f 104//104 105//105 46//46 
f 46//46 105//105 47//47 
f 105//105 106//106 47//47 
f 47//47 106//106 49//49 
f 106//106 107//107 49//49 
f 49//49 107//107 51//51 
f 107//107 107//107 51//51 
f 51//51 107//107 52//52 
f 107//107 108//108 52//52 
f 52//52 108//108 52//52 
f 108//108 109//109 52//52 
f 52//52 109//109 53//53 
f 109//109 110//110 53//53 
f 53//53 110//110 54//54 
f 110//110 110//110 54//54 
f 54//54 110//110 65//65 
f 110//110 111//111 65//65 
f 65//65 111//111 58//58 
f 111//111 58//58 58//58 
f 58//58 58//58 83//83 
f 58//58 83//83 83//83 
f 83//83 83//83 1//1 
f 83//83 86//86 1//1 
f 1//1 86//86 88//88 
f 86//86 88//88 88//88 
f 88//88 88//88 80//80 
f 88//88 80//80 80//80 
f 80//80 80//80 81//81 
f 80//80 112//112 81//81 
f 81//81 112//112 82//82 
f 112//112 84//84 82//82 
f 82//82 84//84 84//84 
f 84//84 111//111 84//84 
f 84//84 111//111 111//111 
f 111//111 110//110 111//111 
f 111//111 110//110 113//113 
f 110//110 109//109 113//113 
f 113//113 109//109 114//114 
f 109//109 108//108 114//114 
f 114//114 108//108 115//115 
f 108//108 116//116 115//115 
f 115//115 116//116 117//117 
f 116//116 118//118 117//117 
f 117//117 118//118 119//119 
f 118//118 118//118 119//119 
f 119//119 118//118 120//120 
f 118//118 105//105 120//120 
f 120//120 105//105 120//120 
f 105//105 104//104 120//120 
f 120//120 104//104 120//120 
f 104//104 121//121 120//120 
f 120//120 121//121 120//120 
f 121//121 122//122 120//120 
f 120//120 122//122 119//119 
f 122//122 123//123 119//119 
f 119//119 123//123 119//119 
f 123//123 124//124 119//119 
f 119//119 124//124 117//117 
f 124//124 125//125 117//117 
f 117//117 125//125 115//115 
f 125//125 126//126 115//115 
f 115//115 126//126 114//114 
f 126//126 127//127 114//114 
f 114//114 127//127 113//113 
f 127//127 128//128 113//113 
f 113//113 128//128 111//111 
f 128//128 129//129 111//111 
f 111//111 129//129 58//58 
f 129//129 129//129 58//58 
f 58//58 129//129 59//59 
f 129//129 130//130 59//59 
f 59//59 130//130 61//61 
f 130//130 61//61 61//61 
f 61//61 61//61 108//108 
f 61//61 108//108 108//108 
f 108//108 108//108 116//116 
f 108//108 107//107 116//116 
f 116//116 107//107 116//116 
f 107//107 106//106 116//116 
f 116//116 106//106 118//118 
f 106//106 105//105 118//118 
f 118//118 105//105 105//105 
f 105//105 130//130 105//105 
f 105//105 130//130 130//130 
f 130//130 129//129 130//130 
f 130//130 129//129 131//131 
f 129//129 128//128 131//131 
f 131//131 128//128 132//132 
f 128//128 127//127 132//132 
f 132//132 127//127 133//133 
f 127//127 126//126 133//133 
f 133//133 126//126 134//134 
f 126//126 125//125 134//134 
f 134//134 125//125 135//135 
f 125//125 124//124 135//135 
f 135//135 124//124 136//136 
f 124//124 123//123 136//136 
f 136//136 123//123 137//137 
f 123//123 138//138 137//137 
f 137//137 138//138 139//139 
f 138//138 138//138 139//139 
f 139//139 138//138 140//140 
f 138//138 138//138 140//140 
f 140//140 138//138 141//141 
f 138//138 122//122 141//141 
f 141//141 122//122 121//121 
f 122//122 121//121 121//121 
f 121//121 121//121 138//138 
f 121//121 138//138 138//138 
f 138//138 138//138 122//122 
f 138//138 123//123 122//122 
f 122//122 123//123 123//123 
f 123//123 139//139 123//123 
f 123//123 139//139 139//139 
f 139//139 142//142 139//139 
f 139//139 142//142 137//137 
f 142//142 143//143 137//137 
f 137//137 143//143 136//136 
f 143//143 144//144 136//136 
f 136//136 144//144 135//135 
f 144//144 145//145 135//135 
f 135//135 145//145 134//134 
f 145//145 146//146 134//134 
f 134//134 146//146 133//133 
f 146//146 147//147 133//133 
f 133//133 147//147 132//132 
f 147//147 148//148 132//132 
f 132//132 148//148 131//131 
f 148//148 149//149 131//131 
f 131//131 149//149 130//130 
f 149//149 150//150 130//130 
f 130//130 150//150 61//61 
f 150//150 150//150 61//61 
f 61//61 150//150 63//63 
f 150//150 151//151 63//63 
f 63//63 151//151 66//66 
f 151//151 66//66 66//66 
f 66//66 66//66 151//151 
f 66//66 151//151 151//151 
f 151//151 151//151 152//152 
f 151//151 150//150 152//152 
f 152//152 150//150 152//152 
f 150//150 149//149 152//152 
f 152//152 149//149 153//153 
f 149//149 148//148 153//153 
f 153//153 148//148 154//154 
f 148//148 147//147 154//154 
f 154//154 147//147 155//155 
f 147//147 146//146 155//155 
f 155//155 146//146 156//156 
f 146//146 145//145 156//156 
f 156//156 145//145 157//157 
f 145//145 144//144 157//157 
f 157//157 144//144 158//158 
f 144//144 143//143 158//158 
f 158//158 143//143 159//159 
f 143//143 142//142 159//159 
f 159//159 142//142 160//160 
f 142//142 161//161 160//160 
f 160//160 161//161 162//162 
f 161//161 161//161 162//162 
f 162//162 161//161 163//163 
f 161//161 161//161 163//163 
f 163//163 161//161 164//164 
f 161//161 139//139 164//164 
f 164//164 139//139 140//140 
f 139//139 140//140 140//140 
f 140//140 140//140 161//161 
f 140//140 161//161 161//161 
f 161//161 161//161 139//139 
f 161//161 142//142 139//139 
f 139//139 142//142 142//142 
f 142//142 162//162 142//142 
f 142//142 162//162 162//162 
f 162//162 165//165 162//162 
f 162//162 165//165 160//160 
f 165//165 166//166 160//160 
f 160//160 166//166 159//159 
f 166//166 167//167 159//159 
f 159//159 167//167 158//158 
f 167//167 168//168 158//158 
f 158//158 168//168 157//157 
f 168//168 169//169 157//157 
f 157//157 169//169 156//156 
f 169//169 170//170 156//156 
f 156//156 170//170 155//155 
f 170//170 171//171 155//155 
f 155//155 171//171 154//154 
f 171//171 172//172 154//154 
f 154//154 172//172 153//153 
f 172//172 173//173 153//153 
f 153//153 173//173 152//152 
f 173//173 174//174 152//152 
f 152//152 174//174 151//151 
f 174//174 175//175 151//151 
f 151//151 175//175 66//66 
f 175//175 175//175 66//66 
f 66//66 175//175 79//79 
f 175//175 176//176 79//79 
f 79//79 176//176 70//70 
f 176//176 70//70 70//70 
f 70//70 70//70 176//176 
f 70//70 176//176 176//176 
f 176//176 176//176 177//177 
f 176//176 175//175 177//177 
f 177//177 175//175 177//177 
f 175//175 174//174 177//177 
f 177//177 174//174 178//178 
f 174//174 173//173 178//178 
f 178//178 173//173 179//179 
f 173//173 172//172 179//179 
f 179//179 172//172 180//180 
f 172//172 171//171 180//180 
f 180//180 171//171 181//181 
f 171//171 170//170 181//181 
f 181//181 170//170 182//182 
f 170//170 169//169 182//182 
f 182//182 169//169 183//183 
f 169//169 168//168 183//183 
f 183//183 168//168 184//184 
f 168//168 167//167 184//184 
f 184//184 167//167 185//185 
f 167//167 166//166 185//185 
f 185//185 166//166 186//186 
f 166//166 165//165 186//186 
f 186//186 165//165 187//187 
f 165//165 188//188 187//187 
f 187//187 188//188 189//189 
f 188//188 188//188 189//189 
f 189//189 188//188 190//190 
f 188//188 188//188 190//190 
f 190//190 188//188 191//191 
f 188//188 162//162 191//191 
f 191//191 162//162 163//163 
f 162//162 163//163 163//163 
f 163//163 163//163 188//188 
f 163//163 188//188 188//188 
f 188//188 188//188 162//162 
f 188//188 165//165 162//162 
f 162//162 165//165 165//165 
f 165//165 189//189 165//165 
f 165//165 189//189 189//189 
f 189//189 192//192 189//189 
f 189//189 192//192 187//187 
f 192//192 193//193 187//187 
f 187//187 193//193 186//186 
f 193//193 194//194 186//186 
f 186//186 194//194 185//185 
f 194//194 195//195 185//185 
f 185//185 195//195 184//184 
f 195//195 196//196 184//184 
f 184//184 196//196 183//183 
f 196//196 197//197 183//183 
f 183//183 197//197 182//182 
f 197//197 198//198 182//182 
f 182//182 198//198 181//181 
f 198//198 199//199 181//181 
f 181//181 199//199 180//180 
f 199//199 200//200 180//180 
f 180//180 200//200 179//179 
f 200//200 201//201 179//179 
f 179//179 201//201 178//178 
f 201//201 202//202 178//178 
f 178//178 202//202 177//177 
f 202//202 203//203 177//177 
f 177//177 203//203 176//176 
f 203//203 204//204 176//176 
f 176//176 204//204 70//70 
f 204//204 204//204 70//70 
f 70//70 204//204 71//71 
f 204//204 205//205 71//71 
f 71//71 205//205 73//73 
f 205//205 73//73 73//73 
f 73//73 73//73 205//205 
f 73//73 205//205 205//205 
f 205//205 205//205 206//206 
f 205//205 204//204 206//206 
f 206//206 204//204 206//206 
f 204//204 203//203 206//206 
f 206//206 203//203 207//207 
f 203//203 202//202 207//207 
f 207//207 202//202 208//208 
f 202//202 201//201 208//208 
f 208//208 201//201 209//209 
f 201//201 200//200 209//209 
f 209//209 200//200 210//210 
f 200//200 199//199 210//210 
f 210//210 199//199 211//211 
f 199//199 198//198 211//211 
f 211//211 198//198 212//212 
f 198//198 197//197 212//212 
f 212//212 197//197 213//213 
f 197//197 196//196 213//213 
f 213//213 196//196 214//214 
f 196//196 195//195 214//214 
f 214//214 195//195 215//215 
f 195//195 194//194 215//215 
f 215//215 194//194 216//216 
f 194//194 193//193 216//216 
f 216//216 193//193 217//217 
f 193//193 192//192 217//217 
f 217//217 192//192 218//218 
f 192//192 189//189 218//218 
f 218//218 189//189 218//218 
f 189//189 190//190 218//218 
f 218//218 190//190 219//219 
f 190//190 191//191 219//219 
f 219//219 191//191 220//220 
f 191//191 163//163 220//220 
f 220//220 163//163 163//163 
f 163//163 220//220 163//163 
f 163//163 220//220 220//220 
f 220//220 221//221 220//220 
f 220//220 221//221 219//219 
f 221//221 221//221 219//219 
f 219//219 221//221 218//218 
f 221//221 222//222 218//218 
f 218//218 222//222 223//223 
f 222//222 224//224 223//223 
f 223//223 224//224 223//223 
f 224//224 225//225 223//223 
f 223//223 225//225 226//226 
f 225//225 227//227 226//226 
f 226//226 227//227 228//228 
f 227//227 229//229 228//228 
f 228//228 229//229 230//230 
f 229//229 231//231 230//230 
f 230//230 231//231 230//230 
f 231//231 232//232 230//230 
f 230//230 232//232 230//230 
f 232//232 218//218 230//230 
f 230//230 218//218 228//228 
f 218//218 218//218 228//228 
f 228//228 218//218 226//226 
f 218//218 223//223 226//226 
f 226//226 223//223 223//223 
f 223//223 220//220 223//223 
f 223//223 220//220 220//220 
f 220//220 233//233 220//220 
f 220//220 233//233 221//221 
f 233//233 233//233 221//221 
f 221//221 233//233 222//222 
f 233//233 224//224 222//222 
f 222//222 224//224 224//224 
f 224//224 231//231 224//224 
f 224//224 231//231 231//231 
f 231//231 234//234 231//231 
f 231//231 234//234 232//232 
f 234//234 235//235 232//232 
f 232//232 235//235 218//218 
f 235//235 235//235 218//218 
f 218//218 235//235 236//236 
f 235//235 235//235 236//236 
f 236//236 235//235 237//237 
f 235//235 238//238 237//237 
f 237//237 238//238 239//239 
f 238//238 240//240 239//239 
f 239//239 240//240 240//240 
f 240//240 234//234 240//240 
f 240//240 234//234 234//234 
f 234//234 231//231 234//234 
f 234//234 231//231 240//240 
f 231//231 231//231 240//240 
f 240//240 231//231 241//241 
f 231//231 229//229 241//241 
f 241//241 229//229 242//242 
f 229//229 227//227 242//242 
f 242//242 227//227 243//243 
f 227//227 225//225 243//243 
f 243//243 225//225 244//244 
f 225//225 224//224 244//244 
f 244//244 224//224 245//245 
f 224//224 233//233 245//245 
f 245//245 233//233 246//246 
f 233//233 220//220 246//246 
f 246//246 220//220 246//246 
f 220//220 163//163 246//246 
f 246//246 163//163 246//246 
f 163//163 164//164 246//246 
f 246//246 164//164 247//247 
f 164//164 140//140 247//247 
f 247//247 140//140 248//248 
f 140//140 141//141 248//248 
f 248//248 141//141 249//249 
f 141//141 121//121 249//249 
f 249//249 121//121 250//250 
f 121//121 104//104 250//250 
f 250//250 104//104 250//250 
f 104//104 103//103 250//250 
f 250//250 103//103 251//251 
f 103//103 102//102 251//251 
f 251//251 102//102 102//102 
f 102//102 246//246 102//102 
f 102//102 246//246 246//246 
f 246//246 247//247 246//246 
f 246//246 247//247 245//245 
f 247//247 252//252 245//245 
f 245//245 252//252 244//244 
f 252//252 244//244 244//244 
f 244//244 244//244 247//247 
f 244//244 247//247 247//247 
f 247//247 247//247 252//252 
f 247//247 248//248 252//252 
f 252//252 248//248 253//253 
f 248//248 249//249 253//253 
f 253//253 249//249 254//254 
f 249//249 250//250 254//254 
f 254//254 250//250 251//251 
f 250//250 251//251 251//251 
f 251//251 251//251 253//253 
f 251//251 253//253 253//253 
f 253//253 253//253 252//252 
f 253//253 255//255 252//252 
f 252//252 255//255 244//244 
f 255//255 255//255 244//244 
f 244//244 255//255 243//243 
f 255//255 256//256 243//243 
f 243//243 256//256 242//242 
f 256//256 242//242 242//242 
f 242//242 242//242 256//256 
f 242//242 256//256 256//256 
f 256//256 256//256 257//257 
f 256//256 255//255 257//257 
f 257//257 255//255 257//257 
f 255//255 253//253 257//257 
f 257//257 253//253 257//257 
f 253//253 254//254 257//257 
f 257//257 254//254 258//258 
f 254//254 251//251 258//258 
f 258//258 251//251 259//259 
f 251//251 102//102 259//259 
f 259//259 102//102 260//260 
f 102//102 101//101 260//260 
f 260//260 101//101 261//261 
f 101//101 100//100 261//261 
f 261//261 100//100 262//262 
f 100//100 99//99 262//262 
f 262//262 99//99 262//262 
f 99//99 98//98 262//262 
f 262//262 98//98 263//263 
f 98//98 97//97 263//263 
f 263//263 97//97 97//97 
f 97//97 263//263 97//97 
f 97//97 263//263 263//263 
f 263//263 264//264 263//263 
f 263//263 264//264 262//262 
f 264//264 264//264 262//262 
f 262//262 264//264 261//261 
f 264//264 265//265 261//261 
f 261//261 265//265 260//260 
f 265//265 266//266 260//260 
f 260//260 266//266 259//259 
f 266//266 267//267 259//259 
f 259//259 267//267 258//258 
f 267//267 268//268 258//258 
f 258//258 268//268 257//257 
f 268//268 268//268 257//257 
f 257//257 268//268 256//256 
f 268//268 269//269 256//256 
f 256//256 269//269 242//242 
f 269//269 269//269 242//242 
f 242//242 269//269 241//241 
f 269//269 270//270 241//241 
f 241//241 270//270 240//240 
f 270//270 240//240 240//240 
f 240//240 240//240 270//270 
f 240//240 270//270 270//270 
f 270//270 270//270 271//271 
f 270//270 269//269 271//271 
f 271//271 269//269 271//271 
f 269//269 268//268 271//271 
f 271//271 268//268 267//267 
f 268//268 267//267 267//267 
f 267//267 267//267 266//266 
f 267//267 266//266 266//266 
f 266//266 266//266 267//267 
f 266//266 272//272 267//267 
f 267//267 272//272 273//273 
f 272//272 274//274 273//273 
f 273//273 274//274 275//275 
f 274//274 276//276 275//275 
f 275//275 276//276 240//240 
f 276//276 276//276 240//240 
f 240//240 276//276 239//239 
f 276//276 277//277 239//239 
f 239//239 277//277 239//239 
f 277//277 278//278 239//239 
f 239//239 278//278 237//237 
f 278//278 279//279 237//237 
f 237//237 279//279 236//236 
f 279//279 280//280 236//236 
f 236//236 280//280 218//218 
f 280//280 281//281 218//218 
f 218//218 281//281 282//282 
f 281//281 283//283 282//282 
f 282//282 283//283 282//282 
f 283//283 284//284 282//282 
f 282//282 284//284 285//285 
f 284//284 286//286 285//285 
f 285//285 286//286 287//287 
f 286//286 288//288 287//287 
f 287//287 288//288 289//289 
f 288//288 290//290 289//289 
f 289//289 290//290 289//289 
f 290//290 291//291 289//289 
f 289//289 291//291 289//289 
f 291//291 218//218 289//289 
f 289//289 218//218 287//287 
f 218//218 218//218 287//287 
f 287//287 218//218 285//285 
f 218//218 282//282 285//285 
f 285//285 282//282 282//282 
f 282//282 279//279 282//282 
f 282//282 279//279 279//279 
f 279//279 292//292 279//279 
f 279//279 292//292 280//280 
f 292//292 292//292 280//280 
f 280//280 292//292 281//281 
f 292//292 283//283 281//281 
f 281//281 283//283 283//283 
f 283//283 290//290 283//283 
f 283//283 290//290 290//290 
f 290//290 293//293 290//290 
f 290//290 293//293 291//291 
f 293//293 294//294 291//291 
f 291//291 294//294 218//218 
f 294//294 295//295 218//218 
f 218//218 295//295 296//296 
f 295//295 297//297 296//296 
f 296//296 297//297 296//296 
f 297//297 298//298 296//296 
f 296//296 298//298 299//299 
f 298//298 300//300 299//299 
f 299//299 300//300 299//299 
f 300//300 301//301 299//299 
f 299//299 301//301 218//218 
f 301//301 301//301 218//218 
f 218//218 301//301 302//302 
f 301//301 301//301 302//302 
f 302//302 301//301 303//303 
f 301//301 300//300 303//303 
f 303//303 300//300 304//304 
f 300//300 300//300 304//304 
f 304//304 300//300 305//305 
f 300//300 298//298 305//305 
f 305//305 298//298 306//306 
f 298//298 297//297 306//306 
f 306//306 297//297 307//307 
f 297//297 308//308 307//307 
f 307//307 308//308 309//309 
f 308//308 293//293 309//309 
f 309//309 293//293 310//310 
f 293//293 290//290 310//310 
f 310//310 290//290 311//311 
f 290//290 288//288 311//311 
f 311//311 288//288 312//312 
f 288//288 286//286 312//312 
f 312//312 286//286 313//313 
f 286//286 284//284 313//313 
f 313//313 284//284 314//314 
f 284//284 283//283 314//314 
f 314//314 283//283 315//315 
f 283//283 292//292 315//315 
f 315//315 292//292 316//316 
f 292//292 279//279 316//316 
f 316//316 279//279 316//316 
f 279//279 278//278 316//316 
f 316//316 278//278 317//317 
f 278//278 277//277 317//317 
f 317//317 277//277 277//277 
f 277//277 293//293 277//277 
f 277//277 293//293 293//293 
f 293//293 308//308 293//293 
f 293//293 308//308 294//294 
f 308//308 308//308 294//294 
f 294//294 308//308 295//295 
f 308//308 297//297 295//295 
f 295//295 297//297 297//297 
f 297//297 218//218 297//297 
f 297//297 218//218 218//218 
f 218//218 296//296 218//218 
f 218//218 296//296 299//299 
f 296//296 299//299 299//299 
f 299//299 299//299 317//317 
f 299//299 317//317 317//317 
f 317//317 317//317 316//316 
f 317//317 318//318 316//316 
f 316//316 318//318 315//315 
f 318//318 319//319 315//315 
f 315//315 319//319 314//314 
f 319//319 320//320 314//314 
f 314//314 320//320 313//313 
f 320//320 321//321 313//313 
f 313//313 321//321 312//312 
f 321//321 322//322 312//312 
f 312//312 322//322 311//311 
f 322//322 323//323 311//311 
f 311//311 323//323 310//310 
f 323//323 324//324 310//310 
f 310//310 324//324 309//309 
f 324//324 325//325 309//309 
f 309//309 325//325 307//307 
f 325//325 326//326 307//307 
f 307//307 326//326 306//306 
f 326//326 327//327 306//306 
f 306//306 327//327 305//305 
f 327//327 328//328 305//305 
f 305//305 328//328 304//304 
f 328//328 304//304 304//304 
f 304//304 304//304 328//328 
f 304//304 328//328 328//328 
f 328//328 328//328 329//329 
f 328//328 327//327 329//329 
f 329//329 327//327 330//330 
f 327//327 326//326 330//330 
f 330//330 326//326 331//331 
f 326//326 325//325 331//331 
f 331//331 325//325 332//332 
f 325//325 324//324 332//332 
f 332//332 324//324 333//333 
f 324//324 323//323 333//333 
f 333//333 323//323 334//334 
f 323//323 322//322 334//334 
f 334//334 322//322 335//335 
f 322//322 321//321 335//335 
f 335//335 321//321 336//336 
f 321//321 320//320 336//336 
f 336//336 320//320 337//337 
f 320//320 319//319 337//337 
f 337//337 319//319 338//338 
f 319//319 318//318 338//338 
f 338//338 318//318 339//339 
f 318//318 317//317 339//339 
f 339//339 317//317 340//340 
f 317//317 277//277 340//340 
f 340//340 277//277 341//341 
f 277//277 276//276 341//341 
f 341//341 276//276 341//341 
f 276//276 274//274 341//341 
f 341//341 274//274 342//342 
f 274//274 272//272 342//342 
f 342//342 272//272 343//343 
f 272//272 266//266 343//343 
f 343//343 266//266 343//343 
f 266//266 265//265 343//343 
f 343//343 265//265 344//344 
f 265//265 264//264 344//344 
f 344//344 264//264 345//345 
f 264//264 263//263 345//345 
f 345//345 263//263 346//346 
f 263//263 97//97 346//346 
f 346//346 97//97 346//346 
f 97//97 96//96 346//346 
f 346//346 96//96 346//346 
f 96//96 347//347 346//346 
f 346//346 347//347 346//346 
f 347//347 348//348 346//346 
f 346//346 348//348 345//345 
f 348//348 349//349 345//345 
f 345//345 349//349 344//344 
f 349//349 350//350 344//344 
f 344//344 350//350 343//343 
f 350//350 350//350 343//343 
f 343//343 350//350 342//342 
f 350//350 351//351 342//342 
f 342//342 351//351 341//341 
f 351//351 351//351 341//341 
f 341//341 351//351 340//340 
f 351//351 352//352 340//340 
f 340//340 352//352 339//339 
f 352//352 339//339 339//339 
f 339//339 339//339 352//352 
f 339//339 352//352 352//352 
f 352//352 352//352 353//353 
f 352//352 351//351 353//353 
f 353//353 351//351 353//353 
f 351//351 350//350 353//353 
f 353//353 350//350 353//353 
f 350//350 349//349 353//353 
f 353//353 349//349 354//354 
f 349//349 348//348 354//354 
f 354//354 348//348 355//355 
f 348//348 347//347 355//355 
f 355//355 347//347 356//356 
f 347//347 347//347 356//356 
f 356//356 347//347 357//357 
f 347//347 96//96 357//357 
f 357//357 96//96 357//357 
f 96//96 95//95 357//357 
f 357//357 95//95 358//358 
f 95//95 94//94 358//358 
f 358//358 94//94 359//359 
f 94//94 93//93 359//359 
f 359//359 93//93 360//360 
f 93//93 92//92 360//360 
f 360//360 92//92 360//360 
f 92//92 91//91 360//360 
f 360//360 91//91 361//361 
f 91//91 90//90 361//361 
f 361//361 90//90 361//361 
f 90//90 89//89 361//361 
f 361//361 89//89 361//361 
f 89//89 362//362 361//361 
f 361//361 362//362 361//361 
f 362//362 363//363 361//361 
f 361//361 363//363 360//360 
f 363//363 363//363 360//360 
f 360//360 363//363 359//359 
f 363//363 364//364 359//359 
f 359//359 364//364 358//358 
f 364//364 365//365 358//358 
f 358//358 365//365 357//357 
f 365//365 365//365 357//357 
f 357//357 365//365 356//356 
f 365//365 365//365 356//356 
f 356//356 365//365 366//366 
f 365//365 365//365 366//366 
f 366//366 365//365 367//367 
f 365//365 364//364 367//367 
f 367//367 364//364 368//368 
f 364//364 363//363 368//368 
f 368//368 363//363 368//368 
f 363//363 362//362 368//368 
f 368//368 362//362 368//368 
f 362//362 369//369 368//368 
f 368//368 369//369 368//368 
f 369//369 370//370 368//368 
f 368//368 370//370 367//367 
f 370//370 371//371 367//367 
f 367//367 371//371 366//366 
f 371//371 372//372 366//366 
f 366//366 372//372 366//366 
f 372//372 373//373 366//366 
f 366//366 373//373 356//356 
f 373//373 373//373 356//356 
f 356//356 373//373 355//355 
f 373//373 374//374 355//355 
f 355//355 374//374 354//354 
f 374//374 375//375 354//354 
f 354//354 375//375 353//353 
f 375//375 375//375 353//353 
f 353//353 375//375 352//352 
f 375//375 376//376 352//352 
f 352//352 376//376 339//339 
f 376//376 376//376 339//339 
f 339//339 376//376 338//338 
f 376//376 377//377 338//338 
f 338//338 377//377 337//337 
f 377//377 337//337 337//337 
f 337//337 337//337 377//377 
f 337//337 377//377 377//377 
f 377//377 377//377 378//378 
f 377//377 376//376 378//378 
f 378//378 376//376 378//378 
f 376//376 375//375 378//378 
f 378//378 375//375 378//378 
f 375//375 374//374 378//378 
f 378//378 374//374 379//379 
f 374//374 373//373 379//379 
f 379//379 373//373 379//379 
f 373//373 372//372 379//379 
f 379//379 372//372 380//380 
f 372//372 372//372 380//380 
f 380//380 372//372 381//381 
f 372//372 371//371 381//381 
f 381//381 371//371 382//382 
f 371//371 370//370 382//382 
f 382//382 370//370 383//383 
f 370//370 369//369 383//383 
f 383//383 369//369 384//384 
f 369//369 385//385 384//384 
f 384//384 385//385 386//386 
f 385//385 87//87 386//386 
f 386//386 87//87 386//386 
f 87//87 85//85 386//386 
f 386//386 85//85 387//387 
f 85//85 84//84 387//387 
f 387//387 84//84 84//84 
f 84//84 369//369 84//84 
f 84//84 369//369 369//369 
f 369//369 362//362 369//369 
f 369//369 362//362 385//385 
f 362//362 89//89 385//385 
f 385//385 89//89 87//87 
f 89//89 87//87 87//87 
f 87//87 87//87 387//387 
f 87//87 387//387 387//387 
f 387//387 387//387 386//386 
f 387//387 388//388 386//386 
f 386//386 388//388 384//384 
f 388//388 389//389 384//384 
f 384//384 389//389 383//383 
f 389//389 390//390 383//383 
f 383//383 390//390 382//382 
f 390//390 391//391 382//382 
f 382//382 391//391 381//381 
f 391//391 392//392 381//381 
f 381//381 392//392 380//380 
f 392//392 393//393 380//380 
f 380//380 393//393 394//394 
f 393//393 395//395 394//394 
f 394//394 395//395 377//377 
f 395//395 395//395 377//377 
f 377//377 395//395 337//337 
f 395//395 395//395 337//337 
f 337//337 395//395 336//336 
f 395//395 396//396 336//336 
f 336//336 396//396 335//335 
f 396//396 335//335 335//335 
f 335//335 335//335 380//380 
f 335//335 380//380 380//380 
f 380//380 380//380 379//379 
f 380//380 394//394 379//379 
f 379//379 394//394 378//378 
f 394//394 377//377 378//378 
f 378//378 377//377 377//377 
f 377//377 395//395 377//377 
f 377//377 395//395 395//395 
f 395//395 393//393 395//395 
f 395//395 393//393 396//396 
f 393//393 393//393 396//396 
f 396//396 393//393 397//397 
f 393//393 392//392 397//397 
f 397//397 392//392 398//398 
f 392//392 391//391 398//398 
f 398//398 391//391 399//399 
f 391//391 390//390 399//399 
f 399//399 390//390 400//400 
f 390//390 389//389 400//400 
f 400//400 389//389 401//401 
f 389//389 388//388 401//401 
f 401//401 388//388 402//402 
f 388//388 387//387 402//402 
f 402//402 387//387 403//403 
f 387//387 84//84 403//403 
f 403//403 84//84 403//403 
f 84//84 112//112 403//403 
f 403//403 112//112 404//404 
f 112//112 80//80 404//404 
f 404//404 80//80 80//80 
f 80//80 404//404 80//80 
f 80//80 404//404 404//404 
f 404//404 405//405 404//404 
f 404//404 405//405 403//403 
f 405//405 405//405 403//403 
f 403//403 405//405 402//402 
f 405//405 406//406 402//402 
f 402//402 406//406 401//401 
f 406//406 407//407 401//401 
f 401//401 407//407 400//400 
f 407//407 408//408 400//400 
f 400//400 408//408 399//399 
f 408//408 409//409 399//399 
f 399//399 409//409 398//398 
f 409//409 410//410 398//398 
f 398//398 410//410 397//397 
f 410//410 411//411 397//397 
f 397//397 411//411 396//396 
f 411//411 411//411 396//396 
f 396//396 411//411 335//335 
f 411//411 411//411 335//335 
f 335//335 411//411 334//334 
f 411//411 412//412 334//334 
f 334//334 412//412 333//333 
f 412//412 333//333 333//333 
f 333//333 333//333 411//411 
f 333//333 411//411 411//411 
f 411//411 411//411 412//412 
f 411//411 410//410 412//412 
f 412//412 410//410 413//413 
f 410//410 409//409 413//413 
f 413//413 409//409 414//414 
f 409//409 408//408 414//414 
f 414//414 408//408 415//415 
f 408//408 407//407 415//415 
f 415//415 407//407 416//416 
f 407//407 406//406 416//416 
f 416//416 406//406 417//417 
f 406//406 405//405 417//417 
f 417//417 405//405 418//418 
f 405//405 404//404 418//418 
f 418//418 404//404 419//419 
f 404//404 80//80 419//419 
f 419//419 80//80 419//419 
f 80//80 77//77 419//419 
f 419//419 77//77 420//420 
f 77//77 75//75 420//420 
f 420//420 75//75 75//75 
f 75//75 420//420 75//75 
f 75//75 420//420 420//420 
f 420//420 421//421 420//420 
f 420//420 421//421 419//419 
f 421//421 421//421 419//419 
f 419//419 421//421 418//418 
f 421//421 422//422 418//418 
f 418//418 422//422 417//417 
f 422//422 423//423 417//417 
f 417//417 423//423 416//416 
f 423//423 424//424 416//416 
f 416//416 424//424 415//415 
f 424//424 425//425 415//415 
f 415//415 425//425 414//414 
f 425//425 426//426 414//414 
f 414//414 426//426 413//413 
f 426//426 427//427 413//413 
f 413//413 427//427 412//412 
f 427//427 427//427 412//412 
f 412//412 427//427 333//333 
f 427//427 427//427 333//333 
f 333//333 427//427 332//332 
f 427//427 428//428 332//332 
f 332//332 428//428 331//331 
f 428//428 331//331 331//331 
f 331//331 331//331 427//427 
f 331//331 427//427 427//427 
f 427//427 427//427 428//428 
f 427//427 426//426 428//428 
f 428//428 426//426 429//429 
f 426//426 425//425 429//429 
f 429//429 425//425 430//430 
f 425//425 424//424 430//430 
f 430//430 424//424 431//431 
f 424//424 423//423 431//431 
f 431//431 423//423 432//432 
f 423//423 422//422 432//432 
f 432//432 422//422 433//433 
f 422//422 421//421 433//433 
f 433//433 421//421 434//434 
f 421//421 420//420 434//434 
f 434//434 420//420 435//435 
f 420//420 75//75 435//435 
f 435//435 75//75 435//435 
f 75//75 73//73 435//435 
f 435//435 73//73 435//435 
f 73//73 205//205 435//435 
f 435//435 205//205 436//436 
f 205//205 206//206 436//436 
f 436//436 206//206 206//206 
f 206//206 435//435 206//206 
f 206//206 435//435 435//435 
f 435//435 436//436 435//435 
f 435//435 436//436 434//434 
f 436//436 437//437 434//434 
f 434//434 437//437 433//433 
f 437//437 438//438 433//433 
f 433//433 438//438 432//432 
f 438//438 439//439 432//432 
f 432//432 439//439 431//431 
f 439//439 440//440 431//431 
f 431//431 440//440 430//430 
f 440//440 441//441 430//430 
f 430//430 441//441 429//429 
f 441//441 442//442 429//429 
f 429//429 442//442 428//428 
f 442//442 442//442 428//428 
f 428//428 442//442 331//331 
f 442//442 442//442 331//331 
f 331//331 442//442 330//330 
f 442//442 443//443 330//330 
f 330//330 443//443 329//329 
f 443//443 329//329 329//329 
f 329//329 329//329 442//442 
f 329//329 442//442 442//442 
f 442//442 442//442 443//443 
f 442//442 441//441 443//443 
f 443//443 441//441 444//444 
f 441//441 440//440 444//444 
f 444//444 440//440 445//445 
f 440//440 439//439 445//445 
f 445//445 439//439 446//446 
f 439//439 438//438 446//446 
f 446//446 438//438 447//447 
f 438//438 437//437 447//447 
f 447//447 437//437 448//448 
f 437//437 436//436 448//448 
f 448//448 436//436 448//448 
f 436//436 206//206 448//448 
f 448//448 206//206 448//448 
f 206//206 207//207 448//448 
f 448//448 207//207 449//449 
f 207//207 208//208 449//449 
f 449//449 208//208 208//208 
f 208//208 448//448 208//208 
f 208//208 448//448 448//448 
f 448//448 449//449 448//448 
f 448//448 449//449 447//447 
f 449//449 450//450 447//447 
f 447//447 450//450 446//446 
f 450//450 451//451 446//446 
f 446//446 451//451 445//445 
f 451//451 452//452 445//445 
f 445//445 452//452 444//444 
f 452//452 453//453 444//444 
f 444//444 453//453 443//443 
f 453//453 453//453 443//443 
f 443//443 453//453 329//329 
f 453//453 454//454 329//329 
f 329//329 454//454 328//328 
f 454//454 455//455 328//328 
f 328//328 455//455 304//304 
f 455//455 456//456 304//304 
f 304//304 456//456 303//303 
f 456//456 457//457 303//303 
f 303//303 457//457 302//302 
f 457//457 458//458 302//302 
f 302//302 458//458 218//218 
f 458//458 458//458 218//218 
f 218//218 458//458 459//459 
f 458//458 458//458 459//459 
f 459//459 458//458 460//460 
f 458//458 457//457 460//460 
f 460//460 457//457 461//461 
f 457//457 456//456 461//461 
f 461//461 456//456 462//462 
f 456//456 455//455 462//462 
f 462//462 455//455 463//463 
f 455//455 454//454 463//463 
f 463//463 454//454 464//464 
f 454//454 453//453 464//464 
f 464//464 453//453 464//464 
f 453//453 452//452 464//464 
f 464//464 452//452 465//465 
f 452//452 451//451 465//465 
f 465//465 451//451 466//466 
f 451//451 450//450 466//466 
f 466//466 450//450 467//467 
f 450//450 449//449 467//467 
f 467//467 449//449 467//467 
f 449//449 208//208 467//467 
f 467//467 208//208 467//467 
f 208//208 209//209 467//467 
f 467//467 209//209 468//468 
f 209//209 210//210 468//468 
f 468//468 210//210 210//210 
f 210//210 467//467 210//210 
f 210//210 467//467 467//467 
f 467//467 468//468 467//467 
f 467//467 468//468 466//466 
f 468//468 469//469 466//466 
f 466//466 469//469 465//465 
f 469//469 470//470 465//465 
f 465//465 470//470 464//464 
f 470//470 470//470 464//464 
f 464//464 470//470 463//463 
f 470//470 471//471 463//463 
f 463//463 471//471 462//462 
f 471//471 472//472 462//462 
f 462//462 472//472 461//461 
f 472//472 473//473 461//461 
f 461//461 473//473 460//460 
f 473//473 474//474 460//460 
f 460//460 474//474 459//459 
f 474//474 475//475 459//459 
f 459//459 475//475 218//218 
f 475//475 476//476 218//218 
f 218//218 476//476 477//477 
f 476//476 478//478 477//477 
f 477//477 478//478 216//216 
f 478//478 215//215 216//216 
f 216//216 215//215 215//215 
f 215//215 218//218 215//215 
f 215//215 218//218 218//218 
f 218//218 477//477 218//218 
f 218//218 477//477 217//217 
f 477//477 216//216 217//217 
f 217//217 216//216 216//216 
f 216//216 478//478 216//216 
f 216//216 478//478 478//478 
f 478//478 476//476 478//478 
f 478//478 476//476 479//479 
f 476//476 475//475 479//479 
f 479//479 475//475 479//479 
f 475//475 474//474 479//479 
f 479//479 474//474 480//480 
f 474//474 473//473 480//480 
f 480//480 473//473 481//481 
f 473//473 472//472 481//481 
f 481//481 472//472 482//482 
f 472//472 471//471 482//482 
f 482//482 471//471 483//483 
f 471//471 470//470 483//483 
f 483//483 470//470 483//483 
f 470//470 469//469 483//483 
f 483//483 469//469 484//484 
f 469//469 468//468 484//484 
f 484//484 468//468 484//484 
f 468//468 210//210 484//484 
f 484//484 210//210 484//484 
f 210//210 211//211 484//484 
f 484//484 211//211 484//484 
f 211//211 485//485 484//484 
f 484//484 485//485 483//483 
f 485//485 485//485 483//483 
f 483//483 485//485 482//482 
f 485//485 486//486 482//482 
f 482//482 486//486 481//481 
f 486//486 487//487 481//481 
f 481//481 487//487 480//480 
f 487//487 488//488 480//480 
f 480//480 488//488 479//479 
f 488//488 488//488 479//479 
f 479//479 488//488 478//478 
f 488//488 488//488 478//478 
f 478//478 488//488 215//215 
f 488//488 488//488 215//215 
f 215//215 488//488 214//214 
f 488//488 487//487 214//214 
f 214//214 487//487 213//213 
f 487//487 486//486 213//213 
f 213//213 486//486 212//212 
f 486//486 485//485 212//212 
f 212//212 485//485 211//211 

